G04 EAGLE Gerber RS-274X export*
G75*
%MOMM*%
%FSLAX34Y34*%
%LPD*%
%INTop Copper*%
%IPPOS*%
%AMOC8*
5,1,8,0,0,1.08239X$1,22.5*%
G01*
%ADD10R,1.308000X1.308000*%
%ADD11C,1.308000*%
%ADD12R,1.000000X1.100000*%
%ADD13C,1.320800*%
%ADD14C,1.524000*%
%ADD15R,0.800000X1.400000*%
%ADD16R,0.800000X1.900000*%
%ADD17C,1.422400*%
%ADD18P,1.539592X8X22.500000*%
%ADD19P,1.649562X8X22.500000*%
%ADD20C,0.756400*%
%ADD21C,0.152400*%

G36*
X520790Y621554D02*
X520790Y621554D01*
X520881Y621561D01*
X520911Y621573D01*
X520943Y621579D01*
X521023Y621621D01*
X521107Y621657D01*
X521139Y621683D01*
X521160Y621694D01*
X521182Y621717D01*
X521238Y621762D01*
X538336Y638860D01*
X538389Y638934D01*
X538449Y639003D01*
X538461Y639033D01*
X538480Y639059D01*
X538507Y639146D01*
X538541Y639231D01*
X538545Y639272D01*
X538552Y639295D01*
X538551Y639327D01*
X538559Y639398D01*
X538559Y641977D01*
X541138Y641977D01*
X541228Y641992D01*
X541319Y641999D01*
X541349Y642011D01*
X541381Y642017D01*
X541461Y642059D01*
X541545Y642095D01*
X541577Y642121D01*
X541598Y642132D01*
X541620Y642155D01*
X541676Y642200D01*
X543200Y643724D01*
X543242Y643782D01*
X543291Y643834D01*
X543313Y643881D01*
X543344Y643923D01*
X543365Y643992D01*
X543395Y644057D01*
X543401Y644109D01*
X543416Y644158D01*
X543414Y644230D01*
X543422Y644301D01*
X543411Y644352D01*
X543410Y644404D01*
X543385Y644472D01*
X543370Y644542D01*
X543343Y644586D01*
X543325Y644635D01*
X543280Y644691D01*
X543244Y644753D01*
X543204Y644787D01*
X543172Y644827D01*
X543111Y644866D01*
X543057Y644913D01*
X543008Y644932D01*
X542965Y644960D01*
X542895Y644978D01*
X542829Y645005D01*
X542757Y645013D01*
X542726Y645020D01*
X542703Y645019D01*
X542662Y645023D01*
X538559Y645023D01*
X538559Y649334D01*
X538732Y649981D01*
X539067Y650560D01*
X539540Y651033D01*
X540119Y651368D01*
X540766Y651541D01*
X544577Y651541D01*
X544577Y646938D01*
X544588Y646867D01*
X544590Y646796D01*
X544608Y646747D01*
X544617Y646695D01*
X544650Y646632D01*
X544675Y646565D01*
X544707Y646524D01*
X544732Y646478D01*
X544784Y646429D01*
X544828Y646373D01*
X544872Y646344D01*
X544910Y646309D01*
X544975Y646278D01*
X545035Y646240D01*
X545086Y646227D01*
X545133Y646205D01*
X545204Y646197D01*
X545274Y646180D01*
X545326Y646184D01*
X545378Y646178D01*
X545448Y646193D01*
X545519Y646199D01*
X545567Y646219D01*
X545618Y646230D01*
X545680Y646267D01*
X545745Y646295D01*
X545801Y646340D01*
X545829Y646356D01*
X545844Y646374D01*
X545876Y646400D01*
X546638Y647162D01*
X546691Y647236D01*
X546751Y647305D01*
X546763Y647335D01*
X546782Y647361D01*
X546809Y647448D01*
X546843Y647533D01*
X546847Y647574D01*
X546854Y647597D01*
X546853Y647629D01*
X546861Y647700D01*
X546861Y685800D01*
X546847Y685890D01*
X546839Y685981D01*
X546827Y686011D01*
X546822Y686043D01*
X546779Y686123D01*
X546743Y686207D01*
X546717Y686239D01*
X546706Y686260D01*
X546683Y686282D01*
X546638Y686338D01*
X470438Y762538D01*
X470364Y762591D01*
X470295Y762651D01*
X470265Y762663D01*
X470239Y762682D01*
X470152Y762709D01*
X470067Y762743D01*
X470026Y762747D01*
X470003Y762754D01*
X469971Y762753D01*
X469900Y762761D01*
X445262Y762761D01*
X445242Y762758D01*
X445223Y762760D01*
X445121Y762738D01*
X445019Y762722D01*
X445002Y762712D01*
X444982Y762708D01*
X444893Y762655D01*
X444802Y762606D01*
X444788Y762592D01*
X444771Y762582D01*
X444704Y762503D01*
X444633Y762428D01*
X444624Y762410D01*
X444611Y762395D01*
X444573Y762299D01*
X444529Y762205D01*
X444527Y762185D01*
X444519Y762167D01*
X444501Y762000D01*
X444501Y761999D01*
X444500Y761999D01*
X444480Y761996D01*
X444461Y761998D01*
X444359Y761976D01*
X444257Y761959D01*
X444240Y761950D01*
X444220Y761946D01*
X444131Y761893D01*
X444040Y761844D01*
X444026Y761830D01*
X444009Y761820D01*
X443942Y761741D01*
X443871Y761666D01*
X443862Y761648D01*
X443849Y761633D01*
X443810Y761537D01*
X443767Y761443D01*
X443765Y761423D01*
X443757Y761405D01*
X443739Y761238D01*
X443739Y711962D01*
X443742Y711942D01*
X443740Y711923D01*
X443762Y711821D01*
X443779Y711719D01*
X443788Y711702D01*
X443792Y711682D01*
X443845Y711593D01*
X443894Y711502D01*
X443908Y711488D01*
X443918Y711471D01*
X443997Y711404D01*
X444072Y711333D01*
X444090Y711324D01*
X444105Y711311D01*
X444201Y711273D01*
X444295Y711229D01*
X444315Y711227D01*
X444333Y711219D01*
X444500Y711201D01*
X444501Y711201D01*
X444501Y710438D01*
X444504Y710418D01*
X444502Y710399D01*
X444524Y710297D01*
X444541Y710195D01*
X444550Y710178D01*
X444554Y710158D01*
X444607Y710069D01*
X444656Y709978D01*
X444670Y709964D01*
X444680Y709947D01*
X444759Y709880D01*
X444834Y709809D01*
X444852Y709800D01*
X444867Y709787D01*
X444963Y709748D01*
X445057Y709705D01*
X445077Y709703D01*
X445095Y709695D01*
X445262Y709677D01*
X454661Y709677D01*
X454661Y702780D01*
X454411Y701201D01*
X453916Y699679D01*
X453491Y698846D01*
X453468Y698774D01*
X453436Y698705D01*
X453431Y698657D01*
X453417Y698611D01*
X453418Y698536D01*
X453409Y698461D01*
X453420Y698414D01*
X453420Y698365D01*
X453446Y698294D01*
X453462Y698220D01*
X453486Y698179D01*
X453502Y698134D01*
X453549Y698074D01*
X453588Y698009D01*
X453624Y697978D01*
X453654Y697940D01*
X453717Y697898D01*
X453775Y697849D01*
X453819Y697831D01*
X453860Y697805D01*
X453933Y697786D01*
X454003Y697757D01*
X454068Y697750D01*
X454097Y697742D01*
X454123Y697744D01*
X454170Y697739D01*
X494985Y697739D01*
X510646Y682078D01*
X510683Y682051D01*
X510714Y682017D01*
X510782Y681980D01*
X510846Y681934D01*
X510889Y681921D01*
X510930Y681898D01*
X511006Y681885D01*
X511081Y681862D01*
X511126Y681863D01*
X511172Y681855D01*
X511249Y681866D01*
X511326Y681868D01*
X511370Y681884D01*
X511415Y681891D01*
X511484Y681926D01*
X511557Y681953D01*
X511593Y681981D01*
X511634Y682002D01*
X511689Y682058D01*
X511750Y682106D01*
X511774Y682145D01*
X511806Y682178D01*
X511872Y682297D01*
X511883Y682313D01*
X511884Y682318D01*
X511887Y682325D01*
X512596Y684036D01*
X513597Y685534D01*
X514870Y686807D01*
X516368Y687808D01*
X518033Y688497D01*
X519177Y688725D01*
X519177Y673862D01*
X519180Y673842D01*
X519178Y673823D01*
X519200Y673721D01*
X519217Y673619D01*
X519226Y673602D01*
X519230Y673582D01*
X519283Y673493D01*
X519332Y673402D01*
X519346Y673388D01*
X519356Y673371D01*
X519435Y673304D01*
X519510Y673233D01*
X519528Y673224D01*
X519543Y673211D01*
X519639Y673173D01*
X519733Y673129D01*
X519753Y673127D01*
X519771Y673119D01*
X519938Y673101D01*
X520701Y673101D01*
X520701Y673099D01*
X519938Y673099D01*
X519918Y673096D01*
X519899Y673098D01*
X519797Y673076D01*
X519695Y673059D01*
X519678Y673050D01*
X519658Y673046D01*
X519569Y672993D01*
X519478Y672944D01*
X519464Y672930D01*
X519447Y672920D01*
X519380Y672841D01*
X519309Y672766D01*
X519300Y672748D01*
X519287Y672733D01*
X519248Y672637D01*
X519205Y672543D01*
X519203Y672523D01*
X519195Y672505D01*
X519177Y672338D01*
X519177Y657475D01*
X518033Y657703D01*
X516368Y658392D01*
X514870Y659393D01*
X513597Y660666D01*
X512596Y662164D01*
X511887Y663875D01*
X511863Y663914D01*
X511847Y663957D01*
X511799Y664018D01*
X511758Y664084D01*
X511722Y664114D01*
X511694Y664150D01*
X511628Y664192D01*
X511568Y664241D01*
X511525Y664258D01*
X511487Y664283D01*
X511411Y664302D01*
X511339Y664329D01*
X511293Y664331D01*
X511248Y664343D01*
X511171Y664337D01*
X511093Y664340D01*
X511049Y664327D01*
X511003Y664323D01*
X510931Y664293D01*
X510857Y664271D01*
X510819Y664245D01*
X510777Y664227D01*
X510670Y664142D01*
X510655Y664131D01*
X510652Y664127D01*
X510646Y664122D01*
X494985Y648461D01*
X330515Y648461D01*
X279938Y699038D01*
X279864Y699091D01*
X279795Y699151D01*
X279765Y699163D01*
X279739Y699182D01*
X279652Y699209D01*
X279567Y699243D01*
X279526Y699247D01*
X279503Y699254D01*
X279471Y699253D01*
X279400Y699261D01*
X267462Y699261D01*
X267442Y699258D01*
X267423Y699260D01*
X267321Y699238D01*
X267219Y699222D01*
X267202Y699212D01*
X267182Y699208D01*
X267093Y699155D01*
X267002Y699106D01*
X266988Y699092D01*
X266971Y699082D01*
X266904Y699003D01*
X266833Y698928D01*
X266824Y698910D01*
X266811Y698895D01*
X266773Y698799D01*
X266729Y698705D01*
X266727Y698685D01*
X266719Y698667D01*
X266701Y698500D01*
X266701Y698499D01*
X266699Y698499D01*
X266699Y699262D01*
X266696Y699282D01*
X266698Y699301D01*
X266676Y699403D01*
X266659Y699505D01*
X266650Y699522D01*
X266646Y699542D01*
X266593Y699631D01*
X266544Y699722D01*
X266530Y699736D01*
X266520Y699753D01*
X266441Y699820D01*
X266366Y699891D01*
X266348Y699900D01*
X266333Y699913D01*
X266237Y699952D01*
X266143Y699995D01*
X266123Y699997D01*
X266105Y700005D01*
X265938Y700023D01*
X256539Y700023D01*
X256539Y702709D01*
X259515Y705685D01*
X259527Y705701D01*
X259542Y705713D01*
X259599Y705801D01*
X259659Y705884D01*
X259665Y705903D01*
X259675Y705920D01*
X259701Y706021D01*
X259731Y706120D01*
X259731Y706139D01*
X259736Y706159D01*
X259728Y706262D01*
X259725Y706365D01*
X259718Y706384D01*
X259716Y706404D01*
X259676Y706499D01*
X259640Y706596D01*
X259628Y706612D01*
X259620Y706630D01*
X259515Y706761D01*
X216438Y749838D01*
X216364Y749891D01*
X216295Y749951D01*
X216265Y749963D01*
X216239Y749982D01*
X216152Y750009D01*
X216067Y750043D01*
X216026Y750047D01*
X216003Y750054D01*
X215971Y750053D01*
X215900Y750061D01*
X177800Y750061D01*
X177710Y750047D01*
X177619Y750039D01*
X177589Y750027D01*
X177557Y750022D01*
X177477Y749979D01*
X177393Y749943D01*
X177361Y749917D01*
X177340Y749906D01*
X177318Y749883D01*
X177262Y749838D01*
X169317Y741893D01*
X169308Y741880D01*
X169295Y741871D01*
X169236Y741781D01*
X169173Y741694D01*
X169169Y741678D01*
X169160Y741665D01*
X169132Y741561D01*
X169101Y741459D01*
X169101Y741443D01*
X169097Y741427D01*
X169105Y741320D01*
X169107Y741213D01*
X169113Y741198D01*
X169114Y741182D01*
X169155Y741083D01*
X169192Y740982D01*
X169202Y740969D01*
X169208Y740954D01*
X169278Y740874D01*
X169345Y740790D01*
X169359Y740781D01*
X169369Y740769D01*
X169510Y740677D01*
X170425Y740210D01*
X171719Y739270D01*
X172850Y738139D01*
X173790Y736845D01*
X174516Y735420D01*
X175011Y733899D01*
X175261Y732320D01*
X175261Y725423D01*
X165862Y725423D01*
X165842Y725420D01*
X165823Y725422D01*
X165721Y725400D01*
X165619Y725383D01*
X165602Y725374D01*
X165582Y725370D01*
X165493Y725317D01*
X165402Y725268D01*
X165388Y725254D01*
X165371Y725244D01*
X165304Y725165D01*
X165233Y725090D01*
X165224Y725072D01*
X165211Y725057D01*
X165173Y724961D01*
X165129Y724867D01*
X165127Y724847D01*
X165119Y724829D01*
X165101Y724662D01*
X165101Y723138D01*
X165104Y723118D01*
X165102Y723099D01*
X165124Y722997D01*
X165141Y722895D01*
X165150Y722878D01*
X165154Y722858D01*
X165207Y722769D01*
X165256Y722678D01*
X165270Y722664D01*
X165280Y722647D01*
X165359Y722580D01*
X165434Y722509D01*
X165452Y722500D01*
X165467Y722487D01*
X165563Y722448D01*
X165657Y722405D01*
X165677Y722403D01*
X165695Y722395D01*
X165862Y722377D01*
X175261Y722377D01*
X175261Y715480D01*
X175011Y713901D01*
X174912Y713599D01*
X174899Y713513D01*
X174878Y713428D01*
X174881Y713392D01*
X174875Y713356D01*
X174890Y713270D01*
X174897Y713183D01*
X174911Y713149D01*
X174917Y713113D01*
X174959Y713037D01*
X174993Y712956D01*
X175022Y712920D01*
X175035Y712897D01*
X175058Y712876D01*
X175098Y712825D01*
X189962Y697962D01*
X190036Y697909D01*
X190105Y697849D01*
X190135Y697837D01*
X190161Y697818D01*
X190248Y697791D01*
X190333Y697757D01*
X190374Y697753D01*
X190397Y697746D01*
X190429Y697747D01*
X190500Y697739D01*
X215585Y697739D01*
X231246Y682078D01*
X231283Y682051D01*
X231314Y682017D01*
X231382Y681980D01*
X231445Y681934D01*
X231489Y681921D01*
X231530Y681899D01*
X231606Y681885D01*
X231681Y681862D01*
X231726Y681863D01*
X231772Y681855D01*
X231849Y681866D01*
X231926Y681868D01*
X231970Y681884D01*
X232015Y681891D01*
X232084Y681926D01*
X232157Y681953D01*
X232193Y681981D01*
X232234Y682002D01*
X232289Y682058D01*
X232349Y682106D01*
X232374Y682145D01*
X232406Y682178D01*
X232472Y682298D01*
X232482Y682313D01*
X232484Y682318D01*
X232487Y682325D01*
X233196Y684036D01*
X234197Y685534D01*
X235470Y686807D01*
X236968Y687808D01*
X238633Y688497D01*
X239777Y688725D01*
X239777Y673862D01*
X239780Y673842D01*
X239778Y673823D01*
X239800Y673721D01*
X239817Y673619D01*
X239826Y673602D01*
X239830Y673582D01*
X239883Y673493D01*
X239932Y673402D01*
X239946Y673388D01*
X239956Y673371D01*
X240035Y673304D01*
X240110Y673233D01*
X240128Y673224D01*
X240143Y673211D01*
X240239Y673173D01*
X240333Y673129D01*
X240353Y673127D01*
X240371Y673119D01*
X240538Y673101D01*
X241301Y673101D01*
X241301Y672338D01*
X241304Y672318D01*
X241302Y672299D01*
X241324Y672197D01*
X241341Y672095D01*
X241350Y672078D01*
X241354Y672058D01*
X241407Y671969D01*
X241456Y671878D01*
X241470Y671864D01*
X241480Y671847D01*
X241559Y671780D01*
X241634Y671709D01*
X241652Y671700D01*
X241667Y671687D01*
X241763Y671648D01*
X241857Y671605D01*
X241877Y671603D01*
X241895Y671595D01*
X242062Y671577D01*
X250445Y671577D01*
X250445Y665595D01*
X250079Y663755D01*
X250078Y663729D01*
X250057Y663648D01*
X250058Y663642D01*
X250056Y663636D01*
X250068Y663519D01*
X250077Y663403D01*
X250079Y663397D01*
X250080Y663391D01*
X250128Y663283D01*
X250173Y663177D01*
X250178Y663171D01*
X250180Y663166D01*
X250193Y663152D01*
X250278Y663046D01*
X261560Y651764D01*
X261634Y651711D01*
X261703Y651651D01*
X261733Y651639D01*
X261759Y651620D01*
X261846Y651593D01*
X261931Y651559D01*
X261972Y651555D01*
X261995Y651548D01*
X262027Y651549D01*
X262098Y651541D01*
X265177Y651541D01*
X265177Y648462D01*
X265192Y648372D01*
X265199Y648281D01*
X265211Y648251D01*
X265217Y648219D01*
X265259Y648139D01*
X265295Y648055D01*
X265321Y648022D01*
X265332Y648002D01*
X265355Y647980D01*
X265400Y647924D01*
X265939Y647385D01*
X265939Y644262D01*
X265942Y644242D01*
X265940Y644223D01*
X265962Y644121D01*
X265979Y644019D01*
X265988Y644002D01*
X265992Y643982D01*
X266045Y643893D01*
X266094Y643802D01*
X266108Y643788D01*
X266118Y643771D01*
X266197Y643704D01*
X266272Y643633D01*
X266290Y643624D01*
X266305Y643611D01*
X266401Y643572D01*
X266495Y643529D01*
X266515Y643527D01*
X266533Y643519D01*
X266700Y643501D01*
X266701Y643501D01*
X266701Y642738D01*
X266704Y642718D01*
X266702Y642699D01*
X266724Y642597D01*
X266741Y642495D01*
X266750Y642478D01*
X266754Y642458D01*
X266807Y642369D01*
X266856Y642278D01*
X266870Y642264D01*
X266880Y642247D01*
X266959Y642180D01*
X267034Y642109D01*
X267052Y642100D01*
X267067Y642087D01*
X267163Y642048D01*
X267257Y642005D01*
X267277Y642003D01*
X267295Y641995D01*
X267462Y641977D01*
X274241Y641977D01*
X274241Y637666D01*
X274068Y637019D01*
X273729Y636432D01*
X273719Y636425D01*
X273663Y636338D01*
X273603Y636254D01*
X273597Y636235D01*
X273586Y636218D01*
X273561Y636117D01*
X273531Y636019D01*
X273531Y635999D01*
X273526Y635979D01*
X273534Y635876D01*
X273537Y635773D01*
X273544Y635754D01*
X273545Y635734D01*
X273586Y635639D01*
X273621Y635542D01*
X273634Y635526D01*
X273642Y635508D01*
X273747Y635377D01*
X274662Y634462D01*
X274736Y634409D01*
X274805Y634349D01*
X274835Y634337D01*
X274861Y634318D01*
X274949Y634291D01*
X275033Y634257D01*
X275074Y634253D01*
X275097Y634246D01*
X275129Y634247D01*
X275200Y634239D01*
X279085Y634239D01*
X291562Y621762D01*
X291636Y621709D01*
X291705Y621649D01*
X291735Y621637D01*
X291761Y621618D01*
X291848Y621591D01*
X291933Y621557D01*
X291974Y621553D01*
X291997Y621546D01*
X292029Y621547D01*
X292100Y621539D01*
X520700Y621539D01*
X520790Y621554D01*
G37*
G36*
X241390Y24654D02*
X241390Y24654D01*
X241481Y24661D01*
X241511Y24673D01*
X241543Y24679D01*
X241623Y24721D01*
X241707Y24757D01*
X241739Y24783D01*
X241760Y24794D01*
X241782Y24817D01*
X241838Y24862D01*
X292415Y75439D01*
X310830Y75439D01*
X310920Y75454D01*
X311011Y75461D01*
X311041Y75473D01*
X311073Y75479D01*
X311153Y75521D01*
X311238Y75557D01*
X311270Y75583D01*
X311290Y75594D01*
X311313Y75617D01*
X311368Y75662D01*
X311464Y75757D01*
X311533Y75854D01*
X311604Y75950D01*
X311606Y75954D01*
X311608Y75957D01*
X311643Y76070D01*
X311679Y76184D01*
X311679Y76188D01*
X311680Y76192D01*
X311677Y76310D01*
X311675Y76430D01*
X311674Y76434D01*
X311674Y76438D01*
X311633Y76550D01*
X311594Y76662D01*
X311591Y76665D01*
X311590Y76669D01*
X311515Y76762D01*
X311442Y76856D01*
X311438Y76859D01*
X311436Y76861D01*
X311425Y76869D01*
X311307Y76955D01*
X310940Y77167D01*
X310467Y77640D01*
X310132Y78219D01*
X309959Y78866D01*
X309959Y83177D01*
X316738Y83177D01*
X316758Y83180D01*
X316777Y83178D01*
X316879Y83200D01*
X316981Y83217D01*
X316998Y83226D01*
X317018Y83230D01*
X317107Y83283D01*
X317198Y83332D01*
X317212Y83346D01*
X317229Y83356D01*
X317296Y83435D01*
X317367Y83510D01*
X317376Y83528D01*
X317389Y83543D01*
X317428Y83639D01*
X317471Y83733D01*
X317473Y83753D01*
X317481Y83771D01*
X317499Y83938D01*
X317499Y84701D01*
X317501Y84701D01*
X317501Y83938D01*
X317504Y83918D01*
X317502Y83899D01*
X317524Y83797D01*
X317541Y83695D01*
X317550Y83678D01*
X317554Y83658D01*
X317607Y83569D01*
X317656Y83478D01*
X317670Y83464D01*
X317680Y83447D01*
X317759Y83380D01*
X317834Y83309D01*
X317852Y83300D01*
X317867Y83287D01*
X317963Y83248D01*
X318057Y83205D01*
X318077Y83203D01*
X318095Y83195D01*
X318262Y83177D01*
X325041Y83177D01*
X325041Y78866D01*
X324868Y78219D01*
X324533Y77640D01*
X324060Y77167D01*
X323693Y76955D01*
X323600Y76879D01*
X323508Y76805D01*
X323506Y76802D01*
X323503Y76799D01*
X323439Y76697D01*
X323375Y76598D01*
X323374Y76595D01*
X323372Y76591D01*
X323344Y76473D01*
X323315Y76360D01*
X323316Y76356D01*
X323315Y76352D01*
X323325Y76232D01*
X323334Y76115D01*
X323336Y76111D01*
X323336Y76107D01*
X323384Y75997D01*
X323431Y75888D01*
X323434Y75885D01*
X323435Y75882D01*
X323444Y75871D01*
X323536Y75757D01*
X323632Y75662D01*
X323705Y75609D01*
X323775Y75549D01*
X323805Y75537D01*
X323831Y75518D01*
X323918Y75491D01*
X324003Y75457D01*
X324044Y75453D01*
X324066Y75446D01*
X324099Y75447D01*
X324170Y75439D01*
X348930Y75439D01*
X349020Y75454D01*
X349111Y75461D01*
X349141Y75473D01*
X349173Y75479D01*
X349253Y75521D01*
X349338Y75557D01*
X349370Y75583D01*
X349390Y75594D01*
X349413Y75617D01*
X349468Y75662D01*
X349564Y75757D01*
X349633Y75854D01*
X349704Y75950D01*
X349706Y75954D01*
X349708Y75957D01*
X349743Y76070D01*
X349779Y76184D01*
X349779Y76188D01*
X349780Y76192D01*
X349777Y76310D01*
X349775Y76430D01*
X349774Y76434D01*
X349774Y76438D01*
X349733Y76550D01*
X349694Y76662D01*
X349691Y76665D01*
X349690Y76669D01*
X349615Y76762D01*
X349542Y76856D01*
X349538Y76859D01*
X349536Y76861D01*
X349525Y76869D01*
X349407Y76955D01*
X349040Y77167D01*
X348567Y77640D01*
X348232Y78219D01*
X348059Y78866D01*
X348059Y83177D01*
X354838Y83177D01*
X354858Y83180D01*
X354877Y83178D01*
X354979Y83200D01*
X355081Y83217D01*
X355098Y83226D01*
X355118Y83230D01*
X355207Y83283D01*
X355298Y83332D01*
X355312Y83346D01*
X355329Y83356D01*
X355396Y83435D01*
X355467Y83510D01*
X355476Y83528D01*
X355489Y83543D01*
X355528Y83639D01*
X355571Y83733D01*
X355573Y83753D01*
X355581Y83771D01*
X355599Y83938D01*
X355599Y84701D01*
X355601Y84701D01*
X355601Y83938D01*
X355604Y83918D01*
X355602Y83899D01*
X355624Y83797D01*
X355641Y83695D01*
X355650Y83678D01*
X355654Y83658D01*
X355707Y83569D01*
X355756Y83478D01*
X355770Y83464D01*
X355780Y83447D01*
X355859Y83380D01*
X355934Y83309D01*
X355952Y83300D01*
X355967Y83287D01*
X356063Y83248D01*
X356157Y83205D01*
X356177Y83203D01*
X356195Y83195D01*
X356362Y83177D01*
X363141Y83177D01*
X363141Y78866D01*
X362968Y78219D01*
X362633Y77640D01*
X362160Y77167D01*
X361793Y76955D01*
X361700Y76879D01*
X361608Y76805D01*
X361606Y76802D01*
X361603Y76799D01*
X361539Y76697D01*
X361475Y76598D01*
X361474Y76595D01*
X361472Y76591D01*
X361444Y76473D01*
X361415Y76360D01*
X361416Y76356D01*
X361415Y76352D01*
X361425Y76232D01*
X361434Y76115D01*
X361436Y76111D01*
X361436Y76107D01*
X361484Y75997D01*
X361531Y75888D01*
X361534Y75885D01*
X361535Y75882D01*
X361544Y75871D01*
X361636Y75757D01*
X361732Y75662D01*
X361805Y75609D01*
X361875Y75549D01*
X361905Y75537D01*
X361931Y75518D01*
X362018Y75491D01*
X362103Y75457D01*
X362144Y75453D01*
X362166Y75446D01*
X362199Y75447D01*
X362270Y75439D01*
X374330Y75439D01*
X374420Y75454D01*
X374511Y75461D01*
X374541Y75473D01*
X374573Y75479D01*
X374653Y75521D01*
X374738Y75557D01*
X374770Y75583D01*
X374790Y75594D01*
X374813Y75617D01*
X374868Y75662D01*
X374964Y75757D01*
X375033Y75854D01*
X375104Y75950D01*
X375106Y75954D01*
X375108Y75957D01*
X375143Y76070D01*
X375179Y76184D01*
X375179Y76188D01*
X375180Y76192D01*
X375177Y76310D01*
X375175Y76430D01*
X375174Y76434D01*
X375174Y76438D01*
X375133Y76550D01*
X375094Y76662D01*
X375091Y76665D01*
X375090Y76669D01*
X375015Y76762D01*
X374942Y76856D01*
X374938Y76859D01*
X374936Y76861D01*
X374925Y76869D01*
X374807Y76955D01*
X374440Y77167D01*
X373967Y77640D01*
X373632Y78219D01*
X373459Y78866D01*
X373459Y83177D01*
X380238Y83177D01*
X380258Y83180D01*
X380277Y83178D01*
X380379Y83200D01*
X380481Y83217D01*
X380498Y83226D01*
X380518Y83230D01*
X380607Y83283D01*
X380698Y83332D01*
X380712Y83346D01*
X380729Y83356D01*
X380796Y83435D01*
X380867Y83510D01*
X380876Y83528D01*
X380889Y83543D01*
X380928Y83639D01*
X380971Y83733D01*
X380973Y83753D01*
X380981Y83771D01*
X380999Y83938D01*
X380999Y84701D01*
X381001Y84701D01*
X381001Y83938D01*
X381004Y83918D01*
X381002Y83899D01*
X381024Y83797D01*
X381041Y83695D01*
X381050Y83678D01*
X381054Y83658D01*
X381107Y83569D01*
X381156Y83478D01*
X381170Y83464D01*
X381180Y83447D01*
X381259Y83380D01*
X381334Y83309D01*
X381352Y83300D01*
X381367Y83287D01*
X381463Y83248D01*
X381557Y83205D01*
X381577Y83203D01*
X381595Y83195D01*
X381762Y83177D01*
X388541Y83177D01*
X388541Y78866D01*
X388368Y78219D01*
X388033Y77640D01*
X387560Y77167D01*
X387193Y76955D01*
X387100Y76879D01*
X387008Y76805D01*
X387006Y76802D01*
X387003Y76799D01*
X386939Y76697D01*
X386875Y76598D01*
X386874Y76595D01*
X386872Y76591D01*
X386844Y76473D01*
X386815Y76360D01*
X386816Y76356D01*
X386815Y76352D01*
X386825Y76232D01*
X386834Y76115D01*
X386836Y76111D01*
X386836Y76107D01*
X386884Y75997D01*
X386931Y75888D01*
X386934Y75885D01*
X386935Y75882D01*
X386944Y75871D01*
X387036Y75757D01*
X387132Y75662D01*
X387205Y75609D01*
X387275Y75549D01*
X387305Y75537D01*
X387331Y75518D01*
X387418Y75491D01*
X387503Y75457D01*
X387544Y75453D01*
X387566Y75446D01*
X387599Y75447D01*
X387670Y75439D01*
X412430Y75439D01*
X412520Y75454D01*
X412611Y75461D01*
X412641Y75473D01*
X412673Y75479D01*
X412753Y75521D01*
X412838Y75557D01*
X412870Y75583D01*
X412890Y75594D01*
X412913Y75617D01*
X412968Y75662D01*
X413064Y75757D01*
X413133Y75854D01*
X413204Y75950D01*
X413206Y75954D01*
X413208Y75957D01*
X413243Y76070D01*
X413279Y76184D01*
X413279Y76188D01*
X413280Y76192D01*
X413277Y76310D01*
X413275Y76430D01*
X413274Y76434D01*
X413274Y76438D01*
X413233Y76550D01*
X413194Y76662D01*
X413191Y76665D01*
X413190Y76669D01*
X413115Y76762D01*
X413042Y76856D01*
X413038Y76859D01*
X413036Y76861D01*
X413025Y76869D01*
X412907Y76955D01*
X412540Y77167D01*
X412067Y77640D01*
X411732Y78219D01*
X411559Y78866D01*
X411559Y83177D01*
X418338Y83177D01*
X418358Y83180D01*
X418377Y83178D01*
X418479Y83200D01*
X418581Y83217D01*
X418598Y83226D01*
X418618Y83230D01*
X418707Y83283D01*
X418798Y83332D01*
X418812Y83346D01*
X418829Y83356D01*
X418896Y83435D01*
X418967Y83510D01*
X418976Y83528D01*
X418989Y83543D01*
X419028Y83639D01*
X419071Y83733D01*
X419073Y83753D01*
X419081Y83771D01*
X419099Y83938D01*
X419099Y84701D01*
X419101Y84701D01*
X419101Y83938D01*
X419104Y83918D01*
X419102Y83899D01*
X419124Y83797D01*
X419141Y83695D01*
X419150Y83678D01*
X419154Y83658D01*
X419207Y83569D01*
X419256Y83478D01*
X419270Y83464D01*
X419280Y83447D01*
X419359Y83380D01*
X419434Y83309D01*
X419452Y83300D01*
X419467Y83287D01*
X419563Y83248D01*
X419657Y83205D01*
X419677Y83203D01*
X419695Y83195D01*
X419862Y83177D01*
X426641Y83177D01*
X426641Y78866D01*
X426468Y78219D01*
X426133Y77640D01*
X425660Y77167D01*
X425293Y76955D01*
X425200Y76879D01*
X425108Y76805D01*
X425106Y76802D01*
X425103Y76799D01*
X425039Y76697D01*
X424975Y76598D01*
X424974Y76595D01*
X424972Y76591D01*
X424944Y76473D01*
X424915Y76360D01*
X424916Y76356D01*
X424915Y76352D01*
X424925Y76232D01*
X424934Y76115D01*
X424936Y76111D01*
X424936Y76107D01*
X424984Y75997D01*
X425031Y75888D01*
X425034Y75885D01*
X425035Y75882D01*
X425044Y75871D01*
X425136Y75757D01*
X425232Y75662D01*
X425305Y75609D01*
X425375Y75549D01*
X425405Y75537D01*
X425431Y75518D01*
X425518Y75491D01*
X425603Y75457D01*
X425644Y75453D01*
X425666Y75446D01*
X425699Y75447D01*
X425770Y75439D01*
X482600Y75439D01*
X482690Y75454D01*
X482781Y75461D01*
X482811Y75473D01*
X482843Y75479D01*
X482923Y75521D01*
X483007Y75557D01*
X483039Y75583D01*
X483060Y75594D01*
X483082Y75617D01*
X483138Y75662D01*
X495615Y88139D01*
X584200Y88139D01*
X584220Y88142D01*
X584239Y88140D01*
X584341Y88162D01*
X584443Y88179D01*
X584460Y88188D01*
X584480Y88192D01*
X584569Y88245D01*
X584660Y88294D01*
X584674Y88308D01*
X584691Y88318D01*
X584758Y88397D01*
X584830Y88472D01*
X584838Y88490D01*
X584851Y88505D01*
X584890Y88601D01*
X584933Y88695D01*
X584935Y88715D01*
X584943Y88733D01*
X584961Y88900D01*
X584961Y139700D01*
X584947Y139790D01*
X584939Y139881D01*
X584927Y139911D01*
X584922Y139943D01*
X584879Y140023D01*
X584843Y140107D01*
X584817Y140140D01*
X584806Y140160D01*
X584783Y140182D01*
X584738Y140238D01*
X581244Y143733D01*
X581164Y143790D01*
X581090Y143852D01*
X581065Y143861D01*
X581044Y143877D01*
X580951Y143905D01*
X580860Y143940D01*
X580834Y143941D01*
X580809Y143949D01*
X580712Y143946D01*
X580614Y143950D01*
X580589Y143943D01*
X580563Y143942D01*
X580472Y143909D01*
X580378Y143882D01*
X580356Y143867D01*
X580332Y143858D01*
X580256Y143797D01*
X580176Y143742D01*
X580160Y143721D01*
X580140Y143704D01*
X580087Y143622D01*
X580029Y143544D01*
X580021Y143519D01*
X580007Y143497D01*
X579983Y143403D01*
X579953Y143310D01*
X579953Y143284D01*
X579947Y143259D01*
X579954Y143162D01*
X579955Y143064D01*
X579964Y143033D01*
X579966Y143014D01*
X579979Y142983D01*
X580002Y142903D01*
X580232Y142349D01*
X580456Y141223D01*
X573023Y141223D01*
X573023Y148656D01*
X574149Y148432D01*
X574703Y148202D01*
X574798Y148180D01*
X574891Y148151D01*
X574917Y148152D01*
X574943Y148146D01*
X575040Y148155D01*
X575137Y148158D01*
X575162Y148167D01*
X575188Y148169D01*
X575277Y148209D01*
X575368Y148242D01*
X575389Y148258D01*
X575412Y148269D01*
X575484Y148335D01*
X575560Y148396D01*
X575574Y148418D01*
X575594Y148435D01*
X575640Y148520D01*
X575693Y148603D01*
X575700Y148628D01*
X575712Y148651D01*
X575729Y148747D01*
X575753Y148841D01*
X575751Y148867D01*
X575756Y148893D01*
X575742Y148989D01*
X575734Y149086D01*
X575724Y149110D01*
X575720Y149136D01*
X575676Y149223D01*
X575638Y149313D01*
X575617Y149338D01*
X575609Y149355D01*
X575585Y149379D01*
X575533Y149444D01*
X572038Y152938D01*
X572022Y152950D01*
X572010Y152965D01*
X571922Y153022D01*
X571839Y153082D01*
X571820Y153088D01*
X571803Y153098D01*
X571702Y153124D01*
X571603Y153154D01*
X571584Y153154D01*
X571564Y153159D01*
X571461Y153151D01*
X571358Y153148D01*
X571339Y153141D01*
X571319Y153139D01*
X571224Y153099D01*
X571127Y153063D01*
X571111Y153051D01*
X571093Y153043D01*
X570962Y152938D01*
X567467Y149444D01*
X567410Y149365D01*
X567348Y149290D01*
X567339Y149265D01*
X567324Y149244D01*
X567295Y149151D01*
X567260Y149060D01*
X567259Y149034D01*
X567251Y149009D01*
X567254Y148912D01*
X567250Y148814D01*
X567257Y148789D01*
X567258Y148763D01*
X567291Y148671D01*
X567318Y148578D01*
X567333Y148556D01*
X567342Y148532D01*
X567403Y148456D01*
X567458Y148376D01*
X567479Y148360D01*
X567496Y148340D01*
X567578Y148287D01*
X567656Y148229D01*
X567681Y148221D01*
X567703Y148207D01*
X567797Y148183D01*
X567890Y148153D01*
X567916Y148153D01*
X567941Y148147D01*
X568038Y148154D01*
X568136Y148155D01*
X568167Y148164D01*
X568186Y148166D01*
X568217Y148179D01*
X568297Y148202D01*
X568851Y148432D01*
X569977Y148656D01*
X569977Y141223D01*
X562544Y141223D01*
X562768Y142349D01*
X562998Y142903D01*
X563020Y142998D01*
X563049Y143091D01*
X563048Y143117D01*
X563054Y143143D01*
X563045Y143240D01*
X563042Y143337D01*
X563033Y143362D01*
X563031Y143388D01*
X562992Y143477D01*
X562958Y143568D01*
X562942Y143589D01*
X562931Y143612D01*
X562865Y143684D01*
X562804Y143760D01*
X562782Y143774D01*
X562765Y143794D01*
X562680Y143840D01*
X562597Y143893D01*
X562572Y143900D01*
X562549Y143912D01*
X562453Y143929D01*
X562359Y143953D01*
X562333Y143951D01*
X562307Y143956D01*
X562211Y143942D01*
X562114Y143934D01*
X562090Y143924D01*
X562064Y143920D01*
X561977Y143876D01*
X561887Y143838D01*
X561862Y143817D01*
X561845Y143809D01*
X561821Y143785D01*
X561756Y143733D01*
X558262Y140238D01*
X558209Y140164D01*
X558149Y140095D01*
X558137Y140065D01*
X558118Y140039D01*
X558091Y139952D01*
X558057Y139867D01*
X558053Y139826D01*
X558046Y139803D01*
X558047Y139771D01*
X558039Y139700D01*
X558039Y127315D01*
X545785Y115061D01*
X482600Y115061D01*
X482510Y115047D01*
X482419Y115039D01*
X482389Y115027D01*
X482357Y115022D01*
X482277Y114979D01*
X482193Y114943D01*
X482161Y114917D01*
X482140Y114906D01*
X482118Y114883D01*
X482062Y114838D01*
X469585Y102361D01*
X292100Y102361D01*
X292010Y102347D01*
X291919Y102339D01*
X291889Y102327D01*
X291857Y102322D01*
X291777Y102279D01*
X291693Y102243D01*
X291661Y102217D01*
X291640Y102206D01*
X291618Y102183D01*
X291562Y102138D01*
X228285Y38861D01*
X114615Y38861D01*
X71402Y82074D01*
X71386Y82086D01*
X71373Y82102D01*
X71286Y82158D01*
X71202Y82218D01*
X71183Y82224D01*
X71167Y82235D01*
X71066Y82260D01*
X70967Y82290D01*
X70947Y82290D01*
X70928Y82295D01*
X70825Y82287D01*
X70721Y82284D01*
X70703Y82277D01*
X70683Y82276D01*
X70588Y82235D01*
X70490Y82200D01*
X70475Y82187D01*
X70456Y82179D01*
X70326Y82074D01*
X67498Y79247D01*
X65023Y79247D01*
X65023Y88138D01*
X65020Y88158D01*
X65022Y88177D01*
X65000Y88279D01*
X64983Y88381D01*
X64974Y88398D01*
X64970Y88418D01*
X64917Y88507D01*
X64868Y88598D01*
X64854Y88612D01*
X64844Y88629D01*
X64765Y88696D01*
X64690Y88767D01*
X64672Y88776D01*
X64657Y88789D01*
X64561Y88827D01*
X64467Y88871D01*
X64447Y88873D01*
X64429Y88881D01*
X64262Y88899D01*
X63499Y88899D01*
X63499Y88900D01*
X63496Y88920D01*
X63498Y88939D01*
X63476Y89041D01*
X63459Y89143D01*
X63450Y89160D01*
X63446Y89180D01*
X63393Y89269D01*
X63344Y89360D01*
X63330Y89374D01*
X63320Y89391D01*
X63241Y89458D01*
X63166Y89530D01*
X63148Y89538D01*
X63133Y89551D01*
X63037Y89590D01*
X62943Y89633D01*
X62923Y89635D01*
X62905Y89643D01*
X62738Y89661D01*
X50800Y89661D01*
X50780Y89658D01*
X50761Y89660D01*
X50659Y89638D01*
X50557Y89622D01*
X50540Y89612D01*
X50520Y89608D01*
X50431Y89555D01*
X50340Y89506D01*
X50326Y89492D01*
X50309Y89482D01*
X50242Y89403D01*
X50171Y89328D01*
X50162Y89310D01*
X50149Y89295D01*
X50110Y89199D01*
X50067Y89105D01*
X50065Y89085D01*
X50057Y89067D01*
X50039Y88900D01*
X50039Y63500D01*
X50054Y63410D01*
X50061Y63319D01*
X50073Y63289D01*
X50079Y63257D01*
X50121Y63177D01*
X50157Y63093D01*
X50183Y63061D01*
X50194Y63040D01*
X50217Y63018D01*
X50262Y62962D01*
X88362Y24862D01*
X88436Y24809D01*
X88505Y24749D01*
X88535Y24737D01*
X88561Y24718D01*
X88648Y24691D01*
X88733Y24657D01*
X88774Y24653D01*
X88797Y24646D01*
X88829Y24647D01*
X88900Y24639D01*
X241300Y24639D01*
X241390Y24654D01*
G37*
G36*
X533490Y481854D02*
X533490Y481854D01*
X533581Y481861D01*
X533611Y481873D01*
X533643Y481879D01*
X533723Y481921D01*
X533807Y481957D01*
X533839Y481983D01*
X533860Y481994D01*
X533882Y482017D01*
X533938Y482062D01*
X546638Y494762D01*
X546691Y494836D01*
X546751Y494905D01*
X546763Y494935D01*
X546782Y494961D01*
X546809Y495048D01*
X546843Y495133D01*
X546847Y495174D01*
X546854Y495197D01*
X546853Y495229D01*
X546861Y495300D01*
X546861Y520700D01*
X546847Y520790D01*
X546839Y520881D01*
X546827Y520911D01*
X546822Y520943D01*
X546779Y521023D01*
X546743Y521107D01*
X546717Y521140D01*
X546706Y521160D01*
X546683Y521182D01*
X546638Y521238D01*
X543530Y524346D01*
X543472Y524388D01*
X543420Y524438D01*
X543373Y524459D01*
X543331Y524490D01*
X543262Y524511D01*
X543197Y524541D01*
X543145Y524547D01*
X543095Y524562D01*
X543024Y524560D01*
X542953Y524568D01*
X542902Y524557D01*
X542850Y524556D01*
X542782Y524531D01*
X542712Y524516D01*
X542667Y524489D01*
X542619Y524471D01*
X542563Y524427D01*
X542501Y524390D01*
X542467Y524350D01*
X542427Y524318D01*
X542388Y524257D01*
X542341Y524203D01*
X542322Y524155D01*
X542294Y524111D01*
X542276Y524041D01*
X542249Y523975D01*
X542241Y523903D01*
X542233Y523872D01*
X542235Y523849D01*
X542231Y523808D01*
X542231Y518956D01*
X542058Y518309D01*
X541723Y517730D01*
X541250Y517257D01*
X540671Y516922D01*
X540024Y516749D01*
X537213Y516749D01*
X537213Y525528D01*
X537210Y525548D01*
X537212Y525567D01*
X537190Y525669D01*
X537173Y525771D01*
X537164Y525788D01*
X537160Y525808D01*
X537107Y525897D01*
X537058Y525988D01*
X537044Y526002D01*
X537034Y526019D01*
X536955Y526086D01*
X536880Y526157D01*
X536862Y526166D01*
X536847Y526179D01*
X536751Y526218D01*
X536657Y526261D01*
X536637Y526263D01*
X536619Y526271D01*
X536452Y526289D01*
X535690Y526289D01*
X535670Y526286D01*
X535651Y526288D01*
X535549Y526266D01*
X535447Y526249D01*
X535430Y526240D01*
X535410Y526236D01*
X535321Y526183D01*
X535230Y526134D01*
X535216Y526120D01*
X535199Y526110D01*
X535132Y526031D01*
X535061Y525956D01*
X535052Y525938D01*
X535039Y525923D01*
X535000Y525827D01*
X534957Y525733D01*
X534955Y525713D01*
X534947Y525695D01*
X534929Y525528D01*
X534929Y510605D01*
X533085Y508761D01*
X369062Y508761D01*
X369042Y508758D01*
X369023Y508760D01*
X368921Y508738D01*
X368819Y508722D01*
X368802Y508712D01*
X368782Y508708D01*
X368693Y508655D01*
X368602Y508606D01*
X368588Y508592D01*
X368571Y508582D01*
X368504Y508503D01*
X368433Y508428D01*
X368424Y508410D01*
X368411Y508395D01*
X368373Y508299D01*
X368329Y508205D01*
X368327Y508185D01*
X368319Y508167D01*
X368301Y508000D01*
X368301Y507999D01*
X368299Y507999D01*
X368299Y508000D01*
X368296Y508020D01*
X368298Y508039D01*
X368276Y508141D01*
X368259Y508243D01*
X368250Y508260D01*
X368246Y508280D01*
X368193Y508369D01*
X368144Y508460D01*
X368130Y508474D01*
X368120Y508491D01*
X368041Y508558D01*
X367966Y508630D01*
X367948Y508638D01*
X367933Y508651D01*
X367837Y508690D01*
X367743Y508733D01*
X367723Y508735D01*
X367705Y508743D01*
X367538Y508761D01*
X343215Y508761D01*
X312448Y539528D01*
X312374Y539581D01*
X312305Y539641D01*
X312275Y539653D01*
X312249Y539672D01*
X312162Y539699D01*
X312077Y539733D01*
X312036Y539737D01*
X312013Y539744D01*
X311981Y539743D01*
X311910Y539751D01*
X268990Y539751D01*
X268900Y539737D01*
X268809Y539729D01*
X268779Y539717D01*
X268747Y539712D01*
X268667Y539669D01*
X268583Y539633D01*
X268551Y539607D01*
X268530Y539596D01*
X268508Y539573D01*
X268452Y539528D01*
X263054Y534130D01*
X263010Y534070D01*
X262974Y534032D01*
X262968Y534018D01*
X262941Y533987D01*
X262929Y533957D01*
X262910Y533931D01*
X262883Y533844D01*
X262849Y533759D01*
X262845Y533718D01*
X262838Y533695D01*
X262839Y533663D01*
X262831Y533592D01*
X262831Y527813D01*
X257052Y527813D01*
X257032Y527810D01*
X257013Y527812D01*
X256911Y527790D01*
X256809Y527773D01*
X256792Y527764D01*
X256772Y527760D01*
X256683Y527707D01*
X256592Y527658D01*
X256578Y527644D01*
X256561Y527634D01*
X256494Y527555D01*
X256423Y527480D01*
X256414Y527462D01*
X256401Y527447D01*
X256362Y527351D01*
X256319Y527257D01*
X256317Y527237D01*
X256309Y527219D01*
X256291Y527052D01*
X256291Y526289D01*
X256290Y526289D01*
X256270Y526286D01*
X256251Y526288D01*
X256149Y526266D01*
X256047Y526249D01*
X256030Y526240D01*
X256010Y526236D01*
X255921Y526183D01*
X255830Y526134D01*
X255816Y526120D01*
X255799Y526110D01*
X255732Y526031D01*
X255661Y525956D01*
X255652Y525938D01*
X255639Y525923D01*
X255600Y525827D01*
X255557Y525733D01*
X255555Y525713D01*
X255547Y525695D01*
X255529Y525528D01*
X255529Y505710D01*
X255544Y505620D01*
X255551Y505529D01*
X255563Y505499D01*
X255569Y505467D01*
X255611Y505387D01*
X255647Y505303D01*
X255673Y505271D01*
X255684Y505250D01*
X255707Y505228D01*
X255752Y505172D01*
X266162Y494762D01*
X266236Y494709D01*
X266305Y494649D01*
X266335Y494637D01*
X266361Y494618D01*
X266448Y494591D01*
X266533Y494557D01*
X266574Y494553D01*
X266597Y494546D01*
X266629Y494547D01*
X266700Y494539D01*
X304485Y494539D01*
X316962Y482062D01*
X317036Y482009D01*
X317105Y481949D01*
X317135Y481937D01*
X317161Y481918D01*
X317248Y481891D01*
X317333Y481857D01*
X317374Y481853D01*
X317397Y481846D01*
X317429Y481847D01*
X317500Y481839D01*
X533400Y481839D01*
X533490Y481854D01*
G37*
G36*
X177890Y50054D02*
X177890Y50054D01*
X177981Y50061D01*
X178011Y50073D01*
X178043Y50079D01*
X178123Y50121D01*
X178207Y50157D01*
X178239Y50183D01*
X178260Y50194D01*
X178282Y50217D01*
X178338Y50262D01*
X254538Y126462D01*
X254550Y126478D01*
X254565Y126490D01*
X254622Y126578D01*
X254682Y126661D01*
X254688Y126680D01*
X254698Y126697D01*
X254724Y126798D01*
X254754Y126897D01*
X254754Y126916D01*
X254759Y126936D01*
X254751Y127039D01*
X254748Y127142D01*
X254741Y127161D01*
X254739Y127181D01*
X254699Y127276D01*
X254663Y127373D01*
X254651Y127389D01*
X254643Y127407D01*
X254538Y127538D01*
X250713Y131363D01*
X250697Y131375D01*
X250685Y131391D01*
X250597Y131447D01*
X250513Y131507D01*
X250494Y131513D01*
X250478Y131524D01*
X250377Y131549D01*
X250278Y131579D01*
X250258Y131579D01*
X250239Y131584D01*
X250136Y131576D01*
X250032Y131573D01*
X250014Y131566D01*
X249994Y131565D01*
X249899Y131524D01*
X249801Y131488D01*
X249786Y131476D01*
X249768Y131468D01*
X249637Y131363D01*
X249400Y131127D01*
X248821Y130792D01*
X248174Y130619D01*
X242823Y130619D01*
X242823Y138938D01*
X242820Y138958D01*
X242822Y138977D01*
X242800Y139079D01*
X242783Y139181D01*
X242774Y139198D01*
X242770Y139218D01*
X242717Y139307D01*
X242668Y139398D01*
X242654Y139412D01*
X242644Y139429D01*
X242565Y139496D01*
X242490Y139567D01*
X242472Y139576D01*
X242457Y139589D01*
X242361Y139627D01*
X242267Y139671D01*
X242247Y139673D01*
X242229Y139681D01*
X242062Y139699D01*
X240538Y139699D01*
X240518Y139696D01*
X240499Y139698D01*
X240397Y139676D01*
X240295Y139659D01*
X240278Y139650D01*
X240258Y139646D01*
X240169Y139593D01*
X240078Y139544D01*
X240064Y139530D01*
X240047Y139520D01*
X239980Y139441D01*
X239909Y139366D01*
X239900Y139348D01*
X239887Y139333D01*
X239848Y139237D01*
X239805Y139143D01*
X239803Y139123D01*
X239795Y139105D01*
X239777Y138938D01*
X239777Y130619D01*
X234426Y130619D01*
X233779Y130792D01*
X233766Y130800D01*
X233701Y130825D01*
X233639Y130859D01*
X233586Y130868D01*
X233536Y130887D01*
X233466Y130890D01*
X233397Y130902D01*
X233344Y130894D01*
X233290Y130896D01*
X233223Y130877D01*
X233154Y130867D01*
X233106Y130842D01*
X233054Y130827D01*
X232997Y130787D01*
X232935Y130755D01*
X232897Y130716D01*
X232853Y130685D01*
X232811Y130629D01*
X232762Y130579D01*
X232726Y130513D01*
X232707Y130487D01*
X232700Y130466D01*
X232682Y130432D01*
X232050Y128909D01*
X226691Y123550D01*
X222361Y121756D01*
X222306Y121721D01*
X222245Y121696D01*
X222181Y121644D01*
X222152Y121626D01*
X222140Y121611D01*
X222114Y121591D01*
X164785Y64261D01*
X140015Y64261D01*
X122202Y82074D01*
X122186Y82086D01*
X122173Y82102D01*
X122086Y82158D01*
X122002Y82218D01*
X121983Y82224D01*
X121967Y82235D01*
X121866Y82260D01*
X121767Y82290D01*
X121747Y82290D01*
X121728Y82295D01*
X121625Y82287D01*
X121521Y82284D01*
X121503Y82277D01*
X121483Y82276D01*
X121388Y82235D01*
X121290Y82200D01*
X121275Y82187D01*
X121256Y82179D01*
X121126Y82074D01*
X118298Y79247D01*
X115823Y79247D01*
X115823Y88138D01*
X115820Y88158D01*
X115822Y88177D01*
X115800Y88279D01*
X115783Y88381D01*
X115774Y88398D01*
X115770Y88418D01*
X115717Y88507D01*
X115668Y88598D01*
X115654Y88612D01*
X115644Y88629D01*
X115565Y88696D01*
X115490Y88767D01*
X115472Y88776D01*
X115457Y88789D01*
X115361Y88827D01*
X115267Y88871D01*
X115247Y88873D01*
X115229Y88881D01*
X115062Y88899D01*
X113538Y88899D01*
X113518Y88896D01*
X113499Y88898D01*
X113397Y88876D01*
X113295Y88859D01*
X113278Y88850D01*
X113258Y88846D01*
X113169Y88793D01*
X113078Y88744D01*
X113064Y88730D01*
X113047Y88720D01*
X112980Y88641D01*
X112909Y88566D01*
X112900Y88548D01*
X112887Y88533D01*
X112848Y88437D01*
X112805Y88343D01*
X112803Y88323D01*
X112795Y88305D01*
X112777Y88138D01*
X112777Y79247D01*
X110302Y79247D01*
X107474Y82074D01*
X107458Y82086D01*
X107446Y82102D01*
X107358Y82158D01*
X107275Y82218D01*
X107256Y82224D01*
X107239Y82235D01*
X107138Y82260D01*
X107040Y82290D01*
X107020Y82290D01*
X107000Y82295D01*
X106897Y82287D01*
X106794Y82284D01*
X106775Y82277D01*
X106755Y82276D01*
X106660Y82235D01*
X106563Y82200D01*
X106547Y82187D01*
X106529Y82179D01*
X106398Y82074D01*
X101062Y76738D01*
X101050Y76722D01*
X101035Y76710D01*
X100978Y76622D01*
X100918Y76539D01*
X100912Y76520D01*
X100902Y76503D01*
X100876Y76402D01*
X100846Y76303D01*
X100846Y76284D01*
X100841Y76264D01*
X100850Y76161D01*
X100852Y76058D01*
X100859Y76039D01*
X100861Y76019D01*
X100901Y75924D01*
X100937Y75827D01*
X100949Y75811D01*
X100957Y75793D01*
X101062Y75662D01*
X126462Y50262D01*
X126536Y50209D01*
X126605Y50149D01*
X126635Y50137D01*
X126661Y50118D01*
X126748Y50091D01*
X126833Y50057D01*
X126874Y50053D01*
X126897Y50046D01*
X126929Y50047D01*
X127000Y50039D01*
X177800Y50039D01*
X177890Y50054D01*
G37*
G36*
X242082Y555504D02*
X242082Y555504D01*
X242101Y555502D01*
X242203Y555524D01*
X242305Y555541D01*
X242322Y555550D01*
X242342Y555554D01*
X242431Y555607D01*
X242522Y555656D01*
X242536Y555670D01*
X242553Y555680D01*
X242620Y555759D01*
X242691Y555834D01*
X242700Y555852D01*
X242713Y555867D01*
X242752Y555963D01*
X242795Y556057D01*
X242797Y556077D01*
X242805Y556095D01*
X242823Y556262D01*
X242823Y576291D01*
X244640Y576291D01*
X246219Y576041D01*
X247740Y575546D01*
X249165Y574820D01*
X250459Y573880D01*
X251590Y572749D01*
X252530Y571455D01*
X253256Y570030D01*
X253276Y569970D01*
X253278Y569966D01*
X253279Y569962D01*
X253334Y569858D01*
X253389Y569751D01*
X253392Y569748D01*
X253394Y569745D01*
X253480Y569663D01*
X253565Y569580D01*
X253569Y569578D01*
X253572Y569575D01*
X253680Y569525D01*
X253787Y569474D01*
X253791Y569474D01*
X253795Y569472D01*
X253913Y569459D01*
X254032Y569444D01*
X254036Y569445D01*
X254039Y569445D01*
X254157Y569470D01*
X254272Y569494D01*
X254276Y569496D01*
X254280Y569497D01*
X254382Y569558D01*
X254485Y569618D01*
X254488Y569621D01*
X254491Y569623D01*
X254568Y569714D01*
X254647Y569803D01*
X254648Y569807D01*
X254651Y569810D01*
X254696Y569922D01*
X254741Y570031D01*
X254741Y570035D01*
X254743Y570038D01*
X254761Y570205D01*
X254761Y584200D01*
X254747Y584290D01*
X254739Y584381D01*
X254727Y584411D01*
X254722Y584443D01*
X254679Y584523D01*
X254643Y584607D01*
X254617Y584640D01*
X254606Y584660D01*
X254583Y584682D01*
X254538Y584738D01*
X251354Y587922D01*
X251317Y587949D01*
X251286Y587983D01*
X251218Y588020D01*
X251154Y588066D01*
X251111Y588079D01*
X251070Y588102D01*
X250994Y588115D01*
X250919Y588138D01*
X250874Y588137D01*
X250828Y588145D01*
X250751Y588134D01*
X250674Y588132D01*
X250630Y588116D01*
X250585Y588109D01*
X250516Y588074D01*
X250443Y588047D01*
X250407Y588019D01*
X250366Y587998D01*
X250311Y587942D01*
X250250Y587894D01*
X250226Y587855D01*
X250194Y587822D01*
X250128Y587703D01*
X250117Y587687D01*
X250116Y587682D01*
X250113Y587675D01*
X249404Y585964D01*
X248403Y584466D01*
X247130Y583193D01*
X245632Y582192D01*
X243967Y581503D01*
X242823Y581275D01*
X242823Y596138D01*
X242820Y596158D01*
X242822Y596177D01*
X242800Y596279D01*
X242783Y596381D01*
X242774Y596398D01*
X242770Y596418D01*
X242717Y596507D01*
X242668Y596598D01*
X242654Y596612D01*
X242644Y596629D01*
X242565Y596696D01*
X242490Y596767D01*
X242472Y596776D01*
X242457Y596789D01*
X242361Y596827D01*
X242267Y596871D01*
X242247Y596873D01*
X242229Y596881D01*
X242062Y596899D01*
X240538Y596899D01*
X240518Y596896D01*
X240499Y596898D01*
X240397Y596876D01*
X240295Y596859D01*
X240278Y596850D01*
X240258Y596846D01*
X240169Y596793D01*
X240078Y596744D01*
X240064Y596730D01*
X240047Y596720D01*
X239980Y596641D01*
X239909Y596566D01*
X239900Y596548D01*
X239887Y596533D01*
X239848Y596437D01*
X239805Y596343D01*
X239803Y596323D01*
X239795Y596305D01*
X239777Y596138D01*
X239777Y581275D01*
X238633Y581503D01*
X236968Y582192D01*
X235470Y583193D01*
X234197Y584466D01*
X233196Y585964D01*
X232487Y587675D01*
X232463Y587714D01*
X232447Y587757D01*
X232399Y587818D01*
X232358Y587884D01*
X232322Y587914D01*
X232294Y587950D01*
X232228Y587992D01*
X232168Y588041D01*
X232125Y588058D01*
X232087Y588083D01*
X232011Y588102D01*
X231939Y588129D01*
X231893Y588131D01*
X231848Y588143D01*
X231771Y588137D01*
X231693Y588140D01*
X231649Y588127D01*
X231603Y588123D01*
X231531Y588093D01*
X231457Y588071D01*
X231419Y588045D01*
X231377Y588027D01*
X231270Y587942D01*
X231255Y587931D01*
X231252Y587927D01*
X231246Y587922D01*
X228062Y584738D01*
X228009Y584664D01*
X227949Y584595D01*
X227937Y584565D01*
X227918Y584539D01*
X227891Y584452D01*
X227857Y584367D01*
X227853Y584326D01*
X227846Y584303D01*
X227847Y584271D01*
X227839Y584200D01*
X227839Y570205D01*
X227839Y570201D01*
X227839Y570197D01*
X227860Y570078D01*
X227879Y569962D01*
X227880Y569959D01*
X227881Y569955D01*
X227938Y569849D01*
X227994Y569745D01*
X227997Y569742D01*
X227998Y569738D01*
X228086Y569657D01*
X228172Y569575D01*
X228176Y569574D01*
X228179Y569571D01*
X228287Y569522D01*
X228395Y569472D01*
X228399Y569471D01*
X228403Y569470D01*
X228521Y569458D01*
X228639Y569445D01*
X228644Y569446D01*
X228648Y569445D01*
X228762Y569471D01*
X228880Y569497D01*
X228883Y569499D01*
X228887Y569500D01*
X228988Y569562D01*
X229091Y569623D01*
X229094Y569626D01*
X229097Y569628D01*
X229173Y569720D01*
X229251Y569810D01*
X229252Y569814D01*
X229255Y569817D01*
X229324Y569970D01*
X229344Y570031D01*
X230070Y571455D01*
X231010Y572749D01*
X232141Y573880D01*
X233435Y574820D01*
X234860Y575546D01*
X236381Y576041D01*
X237960Y576291D01*
X239777Y576291D01*
X239777Y556262D01*
X239780Y556242D01*
X239778Y556223D01*
X239800Y556121D01*
X239817Y556019D01*
X239826Y556002D01*
X239830Y555982D01*
X239883Y555893D01*
X239932Y555802D01*
X239946Y555788D01*
X239956Y555771D01*
X240035Y555704D01*
X240110Y555633D01*
X240128Y555624D01*
X240143Y555611D01*
X240239Y555572D01*
X240333Y555529D01*
X240353Y555527D01*
X240371Y555519D01*
X240538Y555501D01*
X242062Y555501D01*
X242082Y555504D01*
G37*
G36*
X521482Y555504D02*
X521482Y555504D01*
X521501Y555502D01*
X521603Y555524D01*
X521705Y555541D01*
X521722Y555550D01*
X521742Y555554D01*
X521831Y555607D01*
X521922Y555656D01*
X521936Y555670D01*
X521953Y555680D01*
X522020Y555759D01*
X522091Y555834D01*
X522100Y555852D01*
X522113Y555867D01*
X522152Y555963D01*
X522195Y556057D01*
X522197Y556077D01*
X522205Y556095D01*
X522223Y556262D01*
X522223Y576291D01*
X524040Y576291D01*
X525619Y576041D01*
X527140Y575546D01*
X528565Y574820D01*
X529859Y573880D01*
X530990Y572749D01*
X531930Y571455D01*
X532656Y570030D01*
X532676Y569970D01*
X532678Y569966D01*
X532679Y569962D01*
X532734Y569858D01*
X532789Y569751D01*
X532792Y569748D01*
X532794Y569745D01*
X532880Y569663D01*
X532965Y569580D01*
X532969Y569578D01*
X532972Y569575D01*
X533080Y569525D01*
X533187Y569474D01*
X533191Y569474D01*
X533195Y569472D01*
X533313Y569459D01*
X533432Y569444D01*
X533436Y569445D01*
X533439Y569445D01*
X533557Y569470D01*
X533672Y569494D01*
X533676Y569496D01*
X533680Y569497D01*
X533782Y569558D01*
X533885Y569618D01*
X533888Y569621D01*
X533891Y569623D01*
X533968Y569714D01*
X534047Y569803D01*
X534048Y569807D01*
X534051Y569810D01*
X534096Y569922D01*
X534141Y570031D01*
X534141Y570035D01*
X534143Y570038D01*
X534161Y570205D01*
X534161Y584200D01*
X534147Y584290D01*
X534139Y584381D01*
X534127Y584411D01*
X534122Y584443D01*
X534079Y584523D01*
X534043Y584607D01*
X534017Y584640D01*
X534006Y584660D01*
X533983Y584682D01*
X533938Y584738D01*
X530754Y587922D01*
X530717Y587949D01*
X530686Y587983D01*
X530618Y588020D01*
X530555Y588066D01*
X530511Y588079D01*
X530470Y588101D01*
X530394Y588115D01*
X530319Y588138D01*
X530274Y588137D01*
X530228Y588145D01*
X530151Y588134D01*
X530074Y588132D01*
X530030Y588116D01*
X529985Y588109D01*
X529916Y588074D01*
X529843Y588047D01*
X529807Y588019D01*
X529766Y587998D01*
X529711Y587942D01*
X529651Y587894D01*
X529626Y587855D01*
X529594Y587822D01*
X529528Y587702D01*
X529518Y587687D01*
X529516Y587682D01*
X529513Y587675D01*
X528804Y585964D01*
X527803Y584466D01*
X526530Y583193D01*
X525032Y582192D01*
X523367Y581503D01*
X522223Y581275D01*
X522223Y596138D01*
X522220Y596158D01*
X522222Y596177D01*
X522200Y596279D01*
X522183Y596381D01*
X522174Y596398D01*
X522170Y596418D01*
X522117Y596507D01*
X522068Y596598D01*
X522054Y596612D01*
X522044Y596629D01*
X521965Y596696D01*
X521890Y596767D01*
X521872Y596776D01*
X521857Y596789D01*
X521761Y596827D01*
X521667Y596871D01*
X521647Y596873D01*
X521629Y596881D01*
X521462Y596899D01*
X519938Y596899D01*
X519918Y596896D01*
X519899Y596898D01*
X519797Y596876D01*
X519695Y596859D01*
X519678Y596850D01*
X519658Y596846D01*
X519569Y596793D01*
X519478Y596744D01*
X519464Y596730D01*
X519447Y596720D01*
X519380Y596641D01*
X519309Y596566D01*
X519300Y596548D01*
X519287Y596533D01*
X519248Y596437D01*
X519205Y596343D01*
X519203Y596323D01*
X519195Y596305D01*
X519177Y596138D01*
X519177Y581275D01*
X518033Y581503D01*
X516368Y582192D01*
X514870Y583193D01*
X513597Y584466D01*
X512596Y585964D01*
X511887Y587675D01*
X511863Y587714D01*
X511847Y587757D01*
X511799Y587818D01*
X511758Y587884D01*
X511722Y587914D01*
X511694Y587949D01*
X511628Y587992D01*
X511568Y588041D01*
X511525Y588058D01*
X511487Y588082D01*
X511411Y588102D01*
X511339Y588129D01*
X511293Y588131D01*
X511248Y588143D01*
X511171Y588137D01*
X511093Y588140D01*
X511049Y588127D01*
X511003Y588123D01*
X510931Y588093D01*
X510857Y588071D01*
X510819Y588045D01*
X510777Y588027D01*
X510670Y587942D01*
X510655Y587931D01*
X510652Y587927D01*
X510646Y587922D01*
X507462Y584738D01*
X507409Y584664D01*
X507349Y584595D01*
X507337Y584565D01*
X507318Y584539D01*
X507291Y584452D01*
X507257Y584367D01*
X507253Y584326D01*
X507246Y584303D01*
X507247Y584271D01*
X507239Y584200D01*
X507239Y570205D01*
X507239Y570201D01*
X507239Y570197D01*
X507259Y570079D01*
X507279Y569962D01*
X507280Y569959D01*
X507281Y569955D01*
X507338Y569850D01*
X507394Y569745D01*
X507396Y569742D01*
X507398Y569739D01*
X507486Y569657D01*
X507572Y569576D01*
X507576Y569574D01*
X507579Y569571D01*
X507687Y569522D01*
X507795Y569472D01*
X507799Y569471D01*
X507803Y569470D01*
X507923Y569458D01*
X508039Y569445D01*
X508043Y569446D01*
X508047Y569445D01*
X508164Y569472D01*
X508280Y569497D01*
X508283Y569499D01*
X508287Y569500D01*
X508388Y569562D01*
X508491Y569623D01*
X508494Y569626D01*
X508497Y569628D01*
X508574Y569720D01*
X508651Y569810D01*
X508652Y569814D01*
X508655Y569817D01*
X508724Y569970D01*
X508744Y570030D01*
X509470Y571455D01*
X510410Y572749D01*
X511541Y573880D01*
X512835Y574820D01*
X514260Y575546D01*
X515781Y576041D01*
X517360Y576291D01*
X519177Y576291D01*
X519177Y556262D01*
X519180Y556242D01*
X519178Y556223D01*
X519200Y556121D01*
X519217Y556019D01*
X519226Y556002D01*
X519230Y555982D01*
X519283Y555893D01*
X519332Y555802D01*
X519346Y555788D01*
X519356Y555771D01*
X519435Y555704D01*
X519510Y555633D01*
X519528Y555624D01*
X519543Y555611D01*
X519639Y555572D01*
X519733Y555529D01*
X519753Y555527D01*
X519771Y555519D01*
X519938Y555501D01*
X521462Y555501D01*
X521482Y555504D01*
G37*
%LPC*%
G36*
X446023Y712723D02*
X446023Y712723D01*
X446023Y728866D01*
X446879Y728731D01*
X448400Y728236D01*
X449825Y727510D01*
X451119Y726570D01*
X452250Y725439D01*
X453190Y724145D01*
X453916Y722720D01*
X454411Y721199D01*
X454661Y719620D01*
X454661Y712723D01*
X446023Y712723D01*
G37*
%LPD*%
%LPC*%
G36*
X446023Y760477D02*
X446023Y760477D01*
X454661Y760477D01*
X454661Y753580D01*
X454411Y752001D01*
X453916Y750480D01*
X453190Y749055D01*
X452250Y747761D01*
X451119Y746630D01*
X449825Y745690D01*
X448400Y744964D01*
X446879Y744469D01*
X446023Y744334D01*
X446023Y760477D01*
G37*
%LPD*%
%LPC*%
G36*
X242823Y674623D02*
X242823Y674623D01*
X242823Y688725D01*
X243967Y688497D01*
X245632Y687808D01*
X247130Y686807D01*
X248403Y685534D01*
X249404Y684036D01*
X250093Y682371D01*
X250445Y680605D01*
X250445Y674623D01*
X242823Y674623D01*
G37*
%LPD*%
%LPC*%
G36*
X522223Y674623D02*
X522223Y674623D01*
X522223Y688725D01*
X523367Y688497D01*
X525032Y687808D01*
X526530Y686807D01*
X527803Y685534D01*
X528804Y684036D01*
X529493Y682371D01*
X529845Y680605D01*
X529845Y674623D01*
X522223Y674623D01*
G37*
%LPD*%
%LPC*%
G36*
X522223Y671577D02*
X522223Y671577D01*
X529845Y671577D01*
X529845Y665595D01*
X529493Y663829D01*
X528804Y662164D01*
X527803Y660666D01*
X526530Y659393D01*
X525032Y658392D01*
X523367Y657703D01*
X522223Y657475D01*
X522223Y671577D01*
G37*
%LPD*%
G36*
X241339Y532650D02*
X241339Y532650D01*
X241442Y532652D01*
X241461Y532659D01*
X241481Y532661D01*
X241576Y532701D01*
X241673Y532737D01*
X241689Y532749D01*
X241707Y532757D01*
X241838Y532862D01*
X242600Y533624D01*
X242642Y533682D01*
X242691Y533733D01*
X242699Y533751D01*
X242713Y533767D01*
X242725Y533797D01*
X242744Y533823D01*
X242765Y533894D01*
X242794Y533956D01*
X242796Y533975D01*
X242805Y533995D01*
X242809Y534036D01*
X242816Y534058D01*
X242815Y534091D01*
X242823Y534162D01*
X242823Y554738D01*
X242821Y554748D01*
X242822Y554754D01*
X242820Y554762D01*
X242822Y554777D01*
X242800Y554879D01*
X242783Y554981D01*
X242774Y554998D01*
X242770Y555018D01*
X242717Y555107D01*
X242668Y555198D01*
X242654Y555212D01*
X242644Y555229D01*
X242565Y555296D01*
X242490Y555367D01*
X242472Y555376D01*
X242457Y555389D01*
X242361Y555428D01*
X242267Y555471D01*
X242247Y555473D01*
X242229Y555481D01*
X242062Y555499D01*
X240538Y555499D01*
X240518Y555496D01*
X240499Y555498D01*
X240397Y555476D01*
X240295Y555459D01*
X240278Y555450D01*
X240258Y555446D01*
X240169Y555393D01*
X240078Y555344D01*
X240064Y555330D01*
X240047Y555320D01*
X239980Y555241D01*
X239909Y555166D01*
X239900Y555148D01*
X239887Y555133D01*
X239848Y555037D01*
X239805Y554943D01*
X239803Y554923D01*
X239795Y554905D01*
X239777Y554738D01*
X239777Y534162D01*
X239780Y534139D01*
X239779Y534122D01*
X239793Y534056D01*
X239799Y533981D01*
X239811Y533951D01*
X239817Y533919D01*
X239827Y533900D01*
X239831Y533881D01*
X239866Y533822D01*
X239895Y533755D01*
X239921Y533722D01*
X239932Y533702D01*
X239947Y533687D01*
X239957Y533670D01*
X239974Y533656D01*
X240000Y533624D01*
X240762Y532862D01*
X240778Y532850D01*
X240790Y532835D01*
X240877Y532779D01*
X240961Y532718D01*
X240981Y532712D01*
X240997Y532702D01*
X241098Y532676D01*
X241197Y532646D01*
X241216Y532646D01*
X241236Y532641D01*
X241339Y532650D01*
G37*
G36*
X520739Y532650D02*
X520739Y532650D01*
X520842Y532652D01*
X520861Y532659D01*
X520881Y532661D01*
X520976Y532701D01*
X521073Y532737D01*
X521089Y532749D01*
X521107Y532757D01*
X521238Y532862D01*
X522000Y533624D01*
X522042Y533682D01*
X522091Y533733D01*
X522099Y533751D01*
X522113Y533767D01*
X522125Y533797D01*
X522144Y533823D01*
X522165Y533894D01*
X522194Y533956D01*
X522196Y533975D01*
X522205Y533995D01*
X522209Y534036D01*
X522216Y534058D01*
X522215Y534091D01*
X522223Y534162D01*
X522223Y554738D01*
X522221Y554748D01*
X522222Y554754D01*
X522220Y554762D01*
X522222Y554777D01*
X522200Y554879D01*
X522183Y554981D01*
X522174Y554998D01*
X522170Y555018D01*
X522117Y555107D01*
X522068Y555198D01*
X522054Y555212D01*
X522044Y555229D01*
X521965Y555296D01*
X521890Y555367D01*
X521872Y555376D01*
X521857Y555389D01*
X521761Y555428D01*
X521667Y555471D01*
X521647Y555473D01*
X521629Y555481D01*
X521462Y555499D01*
X519938Y555499D01*
X519918Y555496D01*
X519899Y555498D01*
X519797Y555476D01*
X519695Y555459D01*
X519678Y555450D01*
X519658Y555446D01*
X519569Y555393D01*
X519478Y555344D01*
X519464Y555330D01*
X519447Y555320D01*
X519380Y555241D01*
X519309Y555166D01*
X519300Y555148D01*
X519287Y555133D01*
X519248Y555037D01*
X519205Y554943D01*
X519203Y554923D01*
X519195Y554905D01*
X519177Y554738D01*
X519177Y534162D01*
X519180Y534139D01*
X519179Y534122D01*
X519193Y534056D01*
X519199Y533981D01*
X519211Y533951D01*
X519217Y533919D01*
X519227Y533900D01*
X519231Y533881D01*
X519266Y533822D01*
X519295Y533755D01*
X519321Y533722D01*
X519332Y533702D01*
X519347Y533687D01*
X519357Y533670D01*
X519374Y533656D01*
X519400Y533624D01*
X520162Y532862D01*
X520178Y532850D01*
X520190Y532835D01*
X520277Y532779D01*
X520361Y532718D01*
X520381Y532712D01*
X520397Y532702D01*
X520498Y532676D01*
X520597Y532646D01*
X520616Y532646D01*
X520636Y532641D01*
X520739Y532650D01*
G37*
%LPC*%
G36*
X573023Y103123D02*
X573023Y103123D01*
X573023Y111761D01*
X575709Y111761D01*
X581661Y105809D01*
X581661Y103123D01*
X573023Y103123D01*
G37*
%LPD*%
%LPC*%
G36*
X561339Y103123D02*
X561339Y103123D01*
X561339Y105809D01*
X567291Y111761D01*
X569977Y111761D01*
X569977Y103123D01*
X561339Y103123D01*
G37*
%LPD*%
%LPC*%
G36*
X573023Y91439D02*
X573023Y91439D01*
X573023Y100077D01*
X581661Y100077D01*
X581661Y97391D01*
X575709Y91439D01*
X573023Y91439D01*
G37*
%LPD*%
%LPC*%
G36*
X369823Y497839D02*
X369823Y497839D01*
X369823Y506477D01*
X378461Y506477D01*
X378461Y503791D01*
X372509Y497839D01*
X369823Y497839D01*
G37*
%LPD*%
%LPC*%
G36*
X268223Y688339D02*
X268223Y688339D01*
X268223Y696977D01*
X276861Y696977D01*
X276861Y694291D01*
X270909Y688339D01*
X268223Y688339D01*
G37*
%LPD*%
%LPC*%
G36*
X364091Y497839D02*
X364091Y497839D01*
X358139Y503791D01*
X358139Y506477D01*
X366777Y506477D01*
X366777Y497839D01*
X364091Y497839D01*
G37*
%LPD*%
%LPC*%
G36*
X262491Y688339D02*
X262491Y688339D01*
X256539Y694291D01*
X256539Y696977D01*
X265177Y696977D01*
X265177Y688339D01*
X262491Y688339D01*
G37*
%LPD*%
%LPC*%
G36*
X567291Y91439D02*
X567291Y91439D01*
X561339Y97391D01*
X561339Y100077D01*
X569977Y100077D01*
X569977Y91439D01*
X567291Y91439D01*
G37*
%LPD*%
%LPC*%
G36*
X59502Y79247D02*
X59502Y79247D01*
X53847Y84902D01*
X53847Y87377D01*
X61977Y87377D01*
X61977Y79247D01*
X59502Y79247D01*
G37*
%LPD*%
%LPC*%
G36*
X573023Y138177D02*
X573023Y138177D01*
X580456Y138177D01*
X580232Y137051D01*
X579547Y135399D01*
X578553Y133911D01*
X577289Y132647D01*
X575801Y131653D01*
X574149Y130968D01*
X573023Y130744D01*
X573023Y138177D01*
G37*
%LPD*%
%LPC*%
G36*
X568851Y130968D02*
X568851Y130968D01*
X567199Y131653D01*
X565711Y132647D01*
X564447Y133911D01*
X563453Y135399D01*
X562768Y137051D01*
X562544Y138177D01*
X569977Y138177D01*
X569977Y130744D01*
X568851Y130968D01*
G37*
%LPD*%
%LPC*%
G36*
X257813Y516749D02*
X257813Y516749D01*
X257813Y524767D01*
X262831Y524767D01*
X262831Y518956D01*
X262658Y518309D01*
X262323Y517730D01*
X261850Y517257D01*
X261271Y516922D01*
X260624Y516749D01*
X257813Y516749D01*
G37*
%LPD*%
%LPC*%
G36*
X268223Y645023D02*
X268223Y645023D01*
X268223Y651541D01*
X272034Y651541D01*
X272681Y651368D01*
X273260Y651033D01*
X273733Y650560D01*
X274068Y649981D01*
X274241Y649334D01*
X274241Y645023D01*
X268223Y645023D01*
G37*
%LPD*%
%LPC*%
G36*
X420623Y86223D02*
X420623Y86223D01*
X420623Y92741D01*
X424435Y92741D01*
X425081Y92568D01*
X425660Y92233D01*
X426133Y91760D01*
X426468Y91181D01*
X426641Y90534D01*
X426641Y86223D01*
X420623Y86223D01*
G37*
%LPD*%
%LPC*%
G36*
X319023Y86223D02*
X319023Y86223D01*
X319023Y92741D01*
X322835Y92741D01*
X323481Y92568D01*
X324060Y92233D01*
X324533Y91760D01*
X324868Y91181D01*
X325041Y90534D01*
X325041Y86223D01*
X319023Y86223D01*
G37*
%LPD*%
%LPC*%
G36*
X357123Y86223D02*
X357123Y86223D01*
X357123Y92741D01*
X360935Y92741D01*
X361581Y92568D01*
X362160Y92233D01*
X362633Y91760D01*
X362968Y91181D01*
X363141Y90534D01*
X363141Y86223D01*
X357123Y86223D01*
G37*
%LPD*%
%LPC*%
G36*
X382523Y86223D02*
X382523Y86223D01*
X382523Y92741D01*
X386335Y92741D01*
X386981Y92568D01*
X387560Y92233D01*
X388033Y91760D01*
X388368Y91181D01*
X388541Y90534D01*
X388541Y86223D01*
X382523Y86223D01*
G37*
%LPD*%
%LPC*%
G36*
X309959Y86223D02*
X309959Y86223D01*
X309959Y90534D01*
X310132Y91181D01*
X310467Y91760D01*
X310940Y92233D01*
X311519Y92568D01*
X312166Y92741D01*
X315977Y92741D01*
X315977Y86223D01*
X309959Y86223D01*
G37*
%LPD*%
%LPC*%
G36*
X348059Y86223D02*
X348059Y86223D01*
X348059Y90534D01*
X348232Y91181D01*
X348567Y91760D01*
X349040Y92233D01*
X349619Y92568D01*
X350266Y92741D01*
X354077Y92741D01*
X354077Y86223D01*
X348059Y86223D01*
G37*
%LPD*%
%LPC*%
G36*
X373459Y86223D02*
X373459Y86223D01*
X373459Y90534D01*
X373632Y91181D01*
X373967Y91760D01*
X374440Y92233D01*
X375019Y92568D01*
X375666Y92741D01*
X379477Y92741D01*
X379477Y86223D01*
X373459Y86223D01*
G37*
%LPD*%
%LPC*%
G36*
X411559Y86223D02*
X411559Y86223D01*
X411559Y90534D01*
X411732Y91181D01*
X412067Y91760D01*
X412540Y92233D01*
X413119Y92568D01*
X413766Y92741D01*
X417577Y92741D01*
X417577Y86223D01*
X411559Y86223D01*
G37*
%LPD*%
%LPC*%
G36*
X571499Y101599D02*
X571499Y101599D01*
X571499Y101601D01*
X571501Y101601D01*
X571501Y101599D01*
X571499Y101599D01*
G37*
%LPD*%
%LPC*%
G36*
X571499Y139699D02*
X571499Y139699D01*
X571499Y139701D01*
X571501Y139701D01*
X571501Y139699D01*
X571499Y139699D01*
G37*
%LPD*%
D10*
X241300Y139700D03*
D11*
X266700Y139700D03*
X292100Y139700D03*
X317500Y139700D03*
X342900Y139700D03*
X368300Y139700D03*
X393700Y139700D03*
X419100Y139700D03*
X444500Y139700D03*
X469900Y139700D03*
X495300Y139700D03*
X520700Y139700D03*
X546100Y139700D03*
X571500Y139700D03*
X596900Y139700D03*
X596900Y292100D03*
X571500Y292100D03*
X546100Y292100D03*
X520700Y292100D03*
X495300Y292100D03*
X469900Y292100D03*
X444500Y292100D03*
X419100Y292100D03*
X393700Y292100D03*
X368300Y292100D03*
X342900Y292100D03*
X317500Y292100D03*
X292100Y292100D03*
X266700Y292100D03*
X241300Y292100D03*
D12*
X266700Y643500D03*
X266700Y626500D03*
X546100Y643500D03*
X546100Y626500D03*
D13*
X63500Y603504D02*
X63500Y590296D01*
X88900Y590296D02*
X88900Y603504D01*
X215900Y603504D02*
X215900Y590296D01*
X241300Y590296D02*
X241300Y603504D01*
X114300Y603504D02*
X114300Y590296D01*
X139700Y590296D02*
X139700Y603504D01*
X190500Y603504D02*
X190500Y590296D01*
X165100Y590296D02*
X165100Y603504D01*
X241300Y666496D02*
X241300Y679704D01*
X215900Y679704D02*
X215900Y666496D01*
X190500Y666496D02*
X190500Y679704D01*
X165100Y679704D02*
X165100Y666496D01*
X139700Y666496D02*
X139700Y679704D01*
X114300Y679704D02*
X114300Y666496D01*
X88900Y666496D02*
X88900Y679704D01*
X63500Y679704D02*
X63500Y666496D01*
X342900Y603504D02*
X342900Y590296D01*
X368300Y590296D02*
X368300Y603504D01*
X495300Y603504D02*
X495300Y590296D01*
X520700Y590296D02*
X520700Y603504D01*
X393700Y603504D02*
X393700Y590296D01*
X419100Y590296D02*
X419100Y603504D01*
X469900Y603504D02*
X469900Y590296D01*
X444500Y590296D02*
X444500Y603504D01*
X520700Y666496D02*
X520700Y679704D01*
X495300Y679704D02*
X495300Y666496D01*
X469900Y666496D02*
X469900Y679704D01*
X444500Y679704D02*
X444500Y666496D01*
X419100Y666496D02*
X419100Y679704D01*
X393700Y679704D02*
X393700Y666496D01*
X368300Y666496D02*
X368300Y679704D01*
X342900Y679704D02*
X342900Y666496D01*
D14*
X63500Y716280D02*
X63500Y731520D01*
X88900Y731520D02*
X88900Y716280D01*
X114300Y716280D02*
X114300Y731520D01*
X139700Y731520D02*
X139700Y716280D01*
X165100Y716280D02*
X165100Y731520D01*
X342900Y754380D02*
X342900Y769620D01*
X368300Y769620D02*
X368300Y754380D01*
X393700Y754380D02*
X393700Y769620D01*
X419100Y769620D02*
X419100Y754380D01*
X444500Y754380D02*
X444500Y769620D01*
X342900Y718820D02*
X342900Y703580D01*
X368300Y703580D02*
X368300Y718820D01*
X393700Y718820D02*
X393700Y703580D01*
X419100Y703580D02*
X419100Y718820D01*
X444500Y718820D02*
X444500Y703580D01*
D12*
X317500Y84700D03*
X317500Y67700D03*
D15*
X505710Y526290D03*
X535690Y526290D03*
D16*
X520700Y528830D03*
D14*
X523240Y544870D02*
X518160Y544870D01*
X518160Y566130D01*
X523240Y566130D01*
X523240Y544870D01*
X523240Y559348D02*
X518160Y559348D01*
D15*
X226310Y526290D03*
X256290Y526290D03*
D16*
X241300Y528830D03*
D14*
X243840Y544870D02*
X238760Y544870D01*
X238760Y566130D01*
X243840Y566130D01*
X243840Y544870D01*
X243840Y559348D02*
X238760Y559348D01*
D17*
X38100Y114300D03*
D18*
X38100Y88900D03*
X63500Y114300D03*
X63500Y88900D03*
X88900Y114300D03*
X88900Y88900D03*
X114300Y114300D03*
X114300Y88900D03*
X139700Y114300D03*
X139700Y88900D03*
D14*
X393700Y347980D02*
X393700Y363220D01*
X419100Y363220D02*
X419100Y347980D01*
X444500Y347980D02*
X444500Y363220D01*
X469900Y363220D02*
X469900Y347980D01*
X393700Y325120D02*
X393700Y309880D01*
X419100Y309880D02*
X419100Y325120D01*
X444500Y325120D02*
X444500Y309880D01*
X469900Y309880D02*
X469900Y325120D01*
X63500Y551180D02*
X63500Y566420D01*
X88900Y566420D02*
X88900Y551180D01*
X114300Y551180D02*
X114300Y566420D01*
X139700Y566420D02*
X139700Y551180D01*
X342900Y551180D02*
X342900Y566420D01*
X368300Y566420D02*
X368300Y551180D01*
X393700Y551180D02*
X393700Y566420D01*
X419100Y566420D02*
X419100Y551180D01*
D19*
X368300Y317500D03*
X342900Y317500D03*
X165100Y558800D03*
X368300Y508000D03*
X533400Y63500D03*
X571500Y101600D03*
X444500Y558800D03*
X266700Y698500D03*
D14*
X330200Y45720D02*
X330200Y30480D01*
X355600Y30480D02*
X355600Y45720D01*
X381000Y45720D02*
X381000Y30480D01*
X406400Y30480D02*
X406400Y45720D01*
D12*
X355600Y84700D03*
X355600Y67700D03*
X381000Y84700D03*
X381000Y67700D03*
X419100Y84700D03*
X419100Y67700D03*
D14*
X457200Y45720D02*
X457200Y30480D01*
X482600Y30480D02*
X482600Y45720D01*
X508000Y45720D02*
X508000Y30480D01*
X533400Y30480D02*
X533400Y45720D01*
D20*
X330200Y63500D03*
D21*
X321700Y63500D01*
X317500Y67700D01*
X342900Y673100D02*
X342900Y711200D01*
X342900Y762000D01*
X393700Y762000D02*
X393700Y673100D01*
X393700Y711200D01*
X419100Y711200D02*
X419100Y673100D01*
X63500Y673100D02*
X63500Y723900D01*
X88900Y723900D02*
X88900Y673100D01*
X114300Y673100D02*
X114300Y723900D01*
X139700Y723900D02*
X139700Y673100D01*
X241300Y292100D02*
X235712Y286512D01*
X235712Y283894D01*
X177800Y225982D02*
X177800Y127000D01*
X177800Y225982D02*
X235712Y283894D01*
X177800Y127000D02*
X139700Y88900D01*
X190500Y215900D02*
X266700Y292100D01*
D20*
X190500Y215900D03*
X139700Y190500D03*
D21*
X114300Y165100D01*
X114300Y114300D01*
X190500Y190500D02*
X292100Y292100D01*
X190500Y190500D02*
X190500Y165100D01*
D20*
X190500Y165100D03*
X190500Y152400D03*
D21*
X317500Y279400D01*
X317500Y292100D01*
X469900Y317500D02*
X469900Y355600D01*
X469900Y317500D02*
X469900Y292100D01*
X444500Y292100D02*
X444500Y317500D01*
X444500Y355600D01*
X419100Y355600D02*
X419100Y317500D01*
X419100Y292100D01*
X393700Y292100D02*
X393700Y317500D01*
X393700Y355600D01*
X63500Y558800D02*
X63500Y596900D01*
X88900Y596900D02*
X88900Y558800D01*
X114300Y558800D02*
X114300Y596900D01*
X139700Y596900D02*
X139700Y558800D01*
X342900Y558800D02*
X342900Y596900D01*
X368300Y596900D02*
X368300Y558800D01*
X393700Y558800D02*
X393700Y596900D01*
X419100Y596900D02*
X419100Y558800D01*
X368300Y317500D02*
X368300Y292100D01*
X342900Y292100D02*
X342900Y317500D01*
X224660Y524640D02*
X226310Y526290D01*
X177800Y558800D02*
X165100Y558800D01*
X211960Y524640D02*
X224660Y524640D01*
X211960Y524640D02*
X177800Y558800D01*
X464310Y526290D02*
X505710Y526290D01*
X444500Y546100D02*
X444500Y558800D01*
X444500Y546100D02*
X464310Y526290D01*
X353500Y65600D02*
X351400Y63500D01*
X353500Y40200D02*
X355600Y38100D01*
X353500Y40200D02*
X353500Y65600D01*
X355600Y67700D01*
X351400Y63500D02*
X342900Y63500D01*
D20*
X342900Y63500D03*
D21*
X381000Y67700D02*
X383100Y65600D01*
X381000Y63500D02*
X381000Y38100D01*
X381000Y63500D02*
X383100Y65600D01*
X381000Y67700D02*
X393700Y55000D01*
X393700Y63500D01*
D20*
X393700Y63500D03*
D21*
X406400Y63500D02*
X406400Y38100D01*
X406400Y63500D02*
X410600Y67700D01*
X419100Y67700D01*
D20*
X406400Y63500D03*
D21*
X546100Y643500D02*
X546100Y647700D01*
X546100Y626500D02*
X520700Y601100D01*
X520700Y596900D01*
X266700Y596900D02*
X241300Y596900D01*
X266700Y596900D02*
X266700Y626500D01*
X368300Y673100D02*
X368300Y711200D01*
M02*
