G04 EAGLE Gerber RS-274X export*
G75*
%MOMM*%
%FSLAX34Y34*%
%LPD*%
%INBottom Copper*%
%IPPOS*%
%AMOC8*
5,1,8,0,0,1.08239X$1,22.5*%
G01*
%ADD10R,1.308000X1.308000*%
%ADD11C,1.308000*%
%ADD12C,1.320800*%
%ADD13C,1.524000*%
%ADD14C,1.422400*%
%ADD15P,1.539592X8X22.500000*%
%ADD16P,1.649562X8X22.500000*%
%ADD17C,0.152400*%
%ADD18C,0.756400*%

G36*
X381020Y710442D02*
X381020Y710442D01*
X381039Y710440D01*
X381141Y710462D01*
X381243Y710479D01*
X381260Y710488D01*
X381280Y710492D01*
X381369Y710545D01*
X381460Y710594D01*
X381474Y710608D01*
X381491Y710618D01*
X381558Y710697D01*
X381630Y710772D01*
X381638Y710790D01*
X381651Y710805D01*
X381690Y710901D01*
X381733Y710995D01*
X381735Y711015D01*
X381743Y711033D01*
X381761Y711200D01*
X381761Y723900D01*
X381747Y723990D01*
X381739Y724081D01*
X381727Y724111D01*
X381722Y724143D01*
X381679Y724223D01*
X381643Y724307D01*
X381617Y724339D01*
X381606Y724360D01*
X381583Y724382D01*
X381538Y724438D01*
X368838Y737138D01*
X368764Y737191D01*
X368695Y737251D01*
X368665Y737263D01*
X368639Y737282D01*
X368552Y737309D01*
X368467Y737343D01*
X368426Y737347D01*
X368403Y737354D01*
X368371Y737353D01*
X368300Y737361D01*
X343215Y737361D01*
X330961Y749615D01*
X330961Y774385D01*
X343215Y786639D01*
X393385Y786639D01*
X408025Y771998D01*
X408087Y771954D01*
X408142Y771903D01*
X408186Y771883D01*
X408225Y771855D01*
X408297Y771832D01*
X408366Y771801D01*
X408414Y771796D01*
X408460Y771782D01*
X408536Y771784D01*
X408611Y771777D01*
X408658Y771787D01*
X408706Y771789D01*
X408777Y771815D01*
X408851Y771831D01*
X408892Y771856D01*
X408937Y771873D01*
X408996Y771920D01*
X409061Y771960D01*
X409091Y771997D01*
X409129Y772027D01*
X409170Y772090D01*
X409218Y772148D01*
X409245Y772207D01*
X409262Y772234D01*
X409268Y772259D01*
X409288Y772301D01*
X409684Y773520D01*
X410410Y774945D01*
X411350Y776239D01*
X412481Y777370D01*
X413775Y778310D01*
X415200Y779036D01*
X416721Y779531D01*
X417577Y779666D01*
X417577Y762762D01*
X417580Y762742D01*
X417578Y762723D01*
X417600Y762621D01*
X417617Y762519D01*
X417626Y762502D01*
X417630Y762482D01*
X417683Y762393D01*
X417732Y762302D01*
X417746Y762288D01*
X417756Y762271D01*
X417835Y762204D01*
X417910Y762133D01*
X417928Y762124D01*
X417943Y762111D01*
X418039Y762073D01*
X418133Y762029D01*
X418153Y762027D01*
X418171Y762019D01*
X418338Y762001D01*
X419862Y762001D01*
X419882Y762004D01*
X419901Y762002D01*
X420003Y762024D01*
X420105Y762041D01*
X420122Y762050D01*
X420142Y762054D01*
X420231Y762107D01*
X420322Y762156D01*
X420336Y762170D01*
X420353Y762180D01*
X420420Y762259D01*
X420491Y762334D01*
X420500Y762352D01*
X420513Y762367D01*
X420552Y762463D01*
X420595Y762557D01*
X420597Y762577D01*
X420605Y762595D01*
X420623Y762762D01*
X420623Y779666D01*
X421479Y779531D01*
X423000Y779036D01*
X424425Y778310D01*
X425719Y777370D01*
X426850Y776239D01*
X427790Y774945D01*
X428516Y773520D01*
X428912Y772301D01*
X428947Y772234D01*
X428973Y772163D01*
X429003Y772125D01*
X429025Y772083D01*
X429079Y772030D01*
X429127Y771971D01*
X429167Y771945D01*
X429202Y771911D01*
X429270Y771879D01*
X429334Y771838D01*
X429380Y771826D01*
X429424Y771805D01*
X429499Y771796D01*
X429572Y771778D01*
X429620Y771782D01*
X429668Y771776D01*
X429742Y771791D01*
X429817Y771797D01*
X429862Y771816D01*
X429909Y771826D01*
X429974Y771864D01*
X430044Y771893D01*
X430094Y771934D01*
X430121Y771950D01*
X430138Y771969D01*
X430175Y771998D01*
X432338Y774162D01*
X432350Y774178D01*
X432365Y774190D01*
X432422Y774278D01*
X432482Y774361D01*
X432488Y774380D01*
X432498Y774397D01*
X432524Y774498D01*
X432554Y774597D01*
X432554Y774616D01*
X432559Y774636D01*
X432551Y774739D01*
X432548Y774842D01*
X432541Y774861D01*
X432539Y774881D01*
X432499Y774976D01*
X432463Y775073D01*
X432451Y775089D01*
X432443Y775107D01*
X432338Y775238D01*
X406938Y800638D01*
X406864Y800691D01*
X406795Y800751D01*
X406765Y800763D01*
X406739Y800782D01*
X406652Y800809D01*
X406567Y800843D01*
X406526Y800847D01*
X406503Y800854D01*
X406471Y800853D01*
X406400Y800861D01*
X342900Y800861D01*
X342810Y800847D01*
X342719Y800839D01*
X342689Y800827D01*
X342657Y800822D01*
X342577Y800779D01*
X342493Y800743D01*
X342461Y800717D01*
X342440Y800706D01*
X342418Y800683D01*
X342362Y800638D01*
X316962Y775238D01*
X316909Y775164D01*
X316849Y775095D01*
X316837Y775065D01*
X316818Y775039D01*
X316791Y774952D01*
X316757Y774867D01*
X316753Y774826D01*
X316746Y774803D01*
X316747Y774771D01*
X316739Y774700D01*
X316739Y749300D01*
X316754Y749210D01*
X316761Y749119D01*
X316773Y749089D01*
X316779Y749057D01*
X316821Y748977D01*
X316857Y748893D01*
X316883Y748861D01*
X316894Y748840D01*
X316917Y748818D01*
X316962Y748762D01*
X338372Y727351D01*
X338466Y727284D01*
X338561Y727213D01*
X338567Y727211D01*
X338572Y727208D01*
X338683Y727174D01*
X338795Y727137D01*
X338801Y727137D01*
X338807Y727135D01*
X338924Y727138D01*
X339041Y727140D01*
X339048Y727142D01*
X339053Y727142D01*
X339070Y727148D01*
X339202Y727186D01*
X341081Y727965D01*
X344719Y727965D01*
X348080Y726573D01*
X350653Y724000D01*
X350815Y723609D01*
X350876Y723509D01*
X350936Y723409D01*
X350941Y723405D01*
X350944Y723400D01*
X351034Y723325D01*
X351123Y723249D01*
X351129Y723247D01*
X351134Y723243D01*
X351242Y723201D01*
X351351Y723157D01*
X351359Y723156D01*
X351363Y723155D01*
X351382Y723154D01*
X351518Y723139D01*
X355285Y723139D01*
X357225Y721198D01*
X357287Y721154D01*
X357342Y721103D01*
X357386Y721083D01*
X357425Y721055D01*
X357497Y721032D01*
X357566Y721001D01*
X357614Y720996D01*
X357660Y720982D01*
X357736Y720984D01*
X357811Y720977D01*
X357858Y720987D01*
X357906Y720989D01*
X357977Y721015D01*
X358051Y721031D01*
X358092Y721056D01*
X358137Y721073D01*
X358196Y721120D01*
X358261Y721160D01*
X358291Y721197D01*
X358329Y721227D01*
X358370Y721290D01*
X358418Y721348D01*
X358445Y721407D01*
X358462Y721434D01*
X358468Y721459D01*
X358488Y721501D01*
X358884Y722720D01*
X359610Y724145D01*
X360550Y725439D01*
X361681Y726570D01*
X362975Y727510D01*
X364400Y728236D01*
X365921Y728731D01*
X366777Y728866D01*
X366777Y711962D01*
X366780Y711942D01*
X366778Y711923D01*
X366800Y711821D01*
X366817Y711719D01*
X366826Y711702D01*
X366830Y711682D01*
X366883Y711593D01*
X366932Y711502D01*
X366946Y711488D01*
X366956Y711471D01*
X367035Y711404D01*
X367110Y711333D01*
X367128Y711324D01*
X367143Y711311D01*
X367239Y711273D01*
X367333Y711229D01*
X367353Y711227D01*
X367371Y711219D01*
X367538Y711201D01*
X368301Y711201D01*
X368301Y711200D01*
X368304Y711180D01*
X368302Y711161D01*
X368324Y711059D01*
X368341Y710957D01*
X368350Y710940D01*
X368354Y710920D01*
X368407Y710831D01*
X368456Y710740D01*
X368470Y710726D01*
X368480Y710709D01*
X368559Y710642D01*
X368634Y710571D01*
X368652Y710562D01*
X368667Y710549D01*
X368763Y710510D01*
X368857Y710467D01*
X368877Y710465D01*
X368895Y710457D01*
X369062Y710439D01*
X381000Y710439D01*
X381020Y710442D01*
G37*
G36*
X532658Y62742D02*
X532658Y62742D01*
X532677Y62740D01*
X532779Y62762D01*
X532881Y62779D01*
X532898Y62788D01*
X532918Y62792D01*
X533007Y62845D01*
X533098Y62894D01*
X533112Y62908D01*
X533129Y62918D01*
X533196Y62997D01*
X533267Y63072D01*
X533276Y63090D01*
X533289Y63105D01*
X533327Y63201D01*
X533371Y63295D01*
X533373Y63315D01*
X533381Y63333D01*
X533399Y63500D01*
X533399Y63501D01*
X534162Y63501D01*
X534182Y63504D01*
X534201Y63502D01*
X534303Y63524D01*
X534405Y63541D01*
X534422Y63550D01*
X534442Y63554D01*
X534531Y63607D01*
X534622Y63656D01*
X534636Y63670D01*
X534653Y63680D01*
X534720Y63759D01*
X534791Y63834D01*
X534800Y63852D01*
X534813Y63867D01*
X534852Y63963D01*
X534895Y64057D01*
X534897Y64077D01*
X534905Y64095D01*
X534923Y64262D01*
X534923Y73661D01*
X537609Y73661D01*
X540585Y70685D01*
X540601Y70673D01*
X540613Y70658D01*
X540701Y70601D01*
X540784Y70541D01*
X540803Y70535D01*
X540820Y70525D01*
X540921Y70499D01*
X541020Y70469D01*
X541039Y70469D01*
X541059Y70464D01*
X541162Y70472D01*
X541265Y70475D01*
X541284Y70482D01*
X541304Y70484D01*
X541399Y70524D01*
X541496Y70560D01*
X541512Y70572D01*
X541530Y70580D01*
X541661Y70685D01*
X546638Y75662D01*
X546691Y75736D01*
X546751Y75805D01*
X546763Y75835D01*
X546782Y75861D01*
X546809Y75948D01*
X546843Y76033D01*
X546847Y76074D01*
X546854Y76097D01*
X546853Y76129D01*
X546861Y76200D01*
X546861Y88900D01*
X546847Y88990D01*
X546839Y89081D01*
X546827Y89111D01*
X546822Y89143D01*
X546779Y89223D01*
X546743Y89307D01*
X546717Y89339D01*
X546706Y89360D01*
X546683Y89382D01*
X546638Y89438D01*
X534161Y101915D01*
X534161Y139700D01*
X534158Y139720D01*
X534160Y139739D01*
X534138Y139841D01*
X534122Y139943D01*
X534112Y139960D01*
X534108Y139980D01*
X534055Y140069D01*
X534006Y140160D01*
X533992Y140174D01*
X533982Y140191D01*
X533903Y140258D01*
X533828Y140330D01*
X533810Y140338D01*
X533795Y140351D01*
X533699Y140390D01*
X533605Y140433D01*
X533585Y140435D01*
X533567Y140443D01*
X533400Y140461D01*
X521462Y140461D01*
X521442Y140458D01*
X521423Y140460D01*
X521321Y140438D01*
X521219Y140422D01*
X521202Y140412D01*
X521182Y140408D01*
X521093Y140355D01*
X521002Y140306D01*
X520988Y140292D01*
X520971Y140282D01*
X520904Y140203D01*
X520833Y140128D01*
X520824Y140110D01*
X520811Y140095D01*
X520773Y139999D01*
X520729Y139905D01*
X520727Y139885D01*
X520719Y139867D01*
X520701Y139700D01*
X520701Y139699D01*
X519938Y139699D01*
X519918Y139696D01*
X519899Y139698D01*
X519797Y139676D01*
X519695Y139659D01*
X519678Y139650D01*
X519658Y139646D01*
X519569Y139593D01*
X519478Y139544D01*
X519464Y139530D01*
X519447Y139520D01*
X519380Y139441D01*
X519309Y139366D01*
X519300Y139348D01*
X519287Y139333D01*
X519248Y139237D01*
X519205Y139143D01*
X519203Y139123D01*
X519195Y139105D01*
X519177Y138938D01*
X519177Y130744D01*
X518051Y130968D01*
X516399Y131653D01*
X514911Y132647D01*
X514279Y133279D01*
X514263Y133291D01*
X514250Y133306D01*
X514163Y133362D01*
X514079Y133422D01*
X514060Y133428D01*
X514043Y133439D01*
X513943Y133464D01*
X513844Y133495D01*
X513824Y133494D01*
X513805Y133499D01*
X513702Y133491D01*
X513598Y133488D01*
X513579Y133482D01*
X513560Y133480D01*
X513465Y133440D01*
X513367Y133404D01*
X513352Y133392D01*
X513333Y133384D01*
X513202Y133279D01*
X507462Y127538D01*
X507409Y127464D01*
X507349Y127395D01*
X507337Y127365D01*
X507318Y127339D01*
X507291Y127252D01*
X507257Y127167D01*
X507253Y127126D01*
X507246Y127103D01*
X507247Y127071D01*
X507239Y127000D01*
X507239Y76200D01*
X507254Y76110D01*
X507261Y76019D01*
X507273Y75989D01*
X507279Y75957D01*
X507321Y75877D01*
X507357Y75793D01*
X507383Y75761D01*
X507394Y75740D01*
X507417Y75718D01*
X507462Y75662D01*
X520162Y62962D01*
X520236Y62909D01*
X520305Y62849D01*
X520335Y62837D01*
X520361Y62818D01*
X520448Y62791D01*
X520533Y62757D01*
X520574Y62753D01*
X520597Y62746D01*
X520629Y62747D01*
X520700Y62739D01*
X532638Y62739D01*
X532658Y62742D01*
G37*
%LPC*%
G36*
X369823Y712723D02*
X369823Y712723D01*
X369823Y728866D01*
X370679Y728731D01*
X372200Y728236D01*
X373625Y727510D01*
X374919Y726570D01*
X376050Y725439D01*
X376990Y724145D01*
X377716Y722720D01*
X378211Y721199D01*
X378461Y719620D01*
X378461Y712723D01*
X369823Y712723D01*
G37*
%LPD*%
%LPC*%
G36*
X523239Y65023D02*
X523239Y65023D01*
X523239Y67709D01*
X529191Y73661D01*
X531877Y73661D01*
X531877Y65023D01*
X523239Y65023D01*
G37*
%LPD*%
%LPC*%
G36*
X522223Y138177D02*
X522223Y138177D01*
X529656Y138177D01*
X529432Y137051D01*
X528747Y135399D01*
X527753Y133911D01*
X526489Y132647D01*
X525001Y131653D01*
X523349Y130968D01*
X522223Y130744D01*
X522223Y138177D01*
G37*
%LPD*%
D10*
X241300Y139700D03*
D11*
X266700Y139700D03*
X292100Y139700D03*
X317500Y139700D03*
X342900Y139700D03*
X368300Y139700D03*
X393700Y139700D03*
X419100Y139700D03*
X444500Y139700D03*
X469900Y139700D03*
X495300Y139700D03*
X520700Y139700D03*
X546100Y139700D03*
X571500Y139700D03*
X596900Y139700D03*
X596900Y292100D03*
X571500Y292100D03*
X546100Y292100D03*
X520700Y292100D03*
X495300Y292100D03*
X469900Y292100D03*
X444500Y292100D03*
X419100Y292100D03*
X393700Y292100D03*
X368300Y292100D03*
X342900Y292100D03*
X317500Y292100D03*
X292100Y292100D03*
X266700Y292100D03*
X241300Y292100D03*
D12*
X63500Y590296D02*
X63500Y603504D01*
X88900Y603504D02*
X88900Y590296D01*
X215900Y590296D02*
X215900Y603504D01*
X241300Y603504D02*
X241300Y590296D01*
X114300Y590296D02*
X114300Y603504D01*
X139700Y603504D02*
X139700Y590296D01*
X190500Y590296D02*
X190500Y603504D01*
X165100Y603504D02*
X165100Y590296D01*
X241300Y666496D02*
X241300Y679704D01*
X215900Y679704D02*
X215900Y666496D01*
X190500Y666496D02*
X190500Y679704D01*
X165100Y679704D02*
X165100Y666496D01*
X139700Y666496D02*
X139700Y679704D01*
X114300Y679704D02*
X114300Y666496D01*
X88900Y666496D02*
X88900Y679704D01*
X63500Y679704D02*
X63500Y666496D01*
X342900Y603504D02*
X342900Y590296D01*
X368300Y590296D02*
X368300Y603504D01*
X495300Y603504D02*
X495300Y590296D01*
X520700Y590296D02*
X520700Y603504D01*
X393700Y603504D02*
X393700Y590296D01*
X419100Y590296D02*
X419100Y603504D01*
X469900Y603504D02*
X469900Y590296D01*
X444500Y590296D02*
X444500Y603504D01*
X520700Y666496D02*
X520700Y679704D01*
X495300Y679704D02*
X495300Y666496D01*
X469900Y666496D02*
X469900Y679704D01*
X444500Y679704D02*
X444500Y666496D01*
X419100Y666496D02*
X419100Y679704D01*
X393700Y679704D02*
X393700Y666496D01*
X368300Y666496D02*
X368300Y679704D01*
X342900Y679704D02*
X342900Y666496D01*
D13*
X63500Y716280D02*
X63500Y731520D01*
X88900Y731520D02*
X88900Y716280D01*
X114300Y716280D02*
X114300Y731520D01*
X139700Y731520D02*
X139700Y716280D01*
X165100Y716280D02*
X165100Y731520D01*
X342900Y754380D02*
X342900Y769620D01*
X368300Y769620D02*
X368300Y754380D01*
X393700Y754380D02*
X393700Y769620D01*
X419100Y769620D02*
X419100Y754380D01*
X444500Y754380D02*
X444500Y769620D01*
X342900Y718820D02*
X342900Y703580D01*
X368300Y703580D02*
X368300Y718820D01*
X393700Y718820D02*
X393700Y703580D01*
X419100Y703580D02*
X419100Y718820D01*
X444500Y718820D02*
X444500Y703580D01*
D14*
X38100Y114300D03*
D15*
X38100Y88900D03*
X63500Y114300D03*
X63500Y88900D03*
X88900Y114300D03*
X88900Y88900D03*
X114300Y114300D03*
X114300Y88900D03*
X139700Y114300D03*
X139700Y88900D03*
D13*
X393700Y347980D02*
X393700Y363220D01*
X419100Y363220D02*
X419100Y347980D01*
X444500Y347980D02*
X444500Y363220D01*
X469900Y363220D02*
X469900Y347980D01*
X393700Y325120D02*
X393700Y309880D01*
X419100Y309880D02*
X419100Y325120D01*
X444500Y325120D02*
X444500Y309880D01*
X469900Y309880D02*
X469900Y325120D01*
X63500Y551180D02*
X63500Y566420D01*
X88900Y566420D02*
X88900Y551180D01*
X114300Y551180D02*
X114300Y566420D01*
X139700Y566420D02*
X139700Y551180D01*
X342900Y551180D02*
X342900Y566420D01*
X368300Y566420D02*
X368300Y551180D01*
X393700Y551180D02*
X393700Y566420D01*
X419100Y566420D02*
X419100Y551180D01*
D16*
X368300Y317500D03*
X342900Y317500D03*
X165100Y558800D03*
X368300Y508000D03*
X533400Y63500D03*
X571500Y101600D03*
X444500Y558800D03*
X266700Y698500D03*
D13*
X330200Y45720D02*
X330200Y30480D01*
X355600Y30480D02*
X355600Y45720D01*
X381000Y45720D02*
X381000Y30480D01*
X406400Y30480D02*
X406400Y45720D01*
X457200Y45720D02*
X457200Y30480D01*
X482600Y30480D02*
X482600Y45720D01*
X508000Y45720D02*
X508000Y30480D01*
X533400Y30480D02*
X533400Y45720D01*
D17*
X330200Y38100D02*
X330200Y63500D01*
D18*
X330200Y63500D03*
D17*
X330200Y127000D02*
X317500Y139700D01*
X330200Y127000D02*
X330200Y63500D01*
X419100Y711200D02*
X368300Y762000D01*
D18*
X190500Y215900D03*
D17*
X165100Y190500D01*
X139700Y190500D01*
D18*
X139700Y190500D03*
X190500Y165100D03*
D17*
X165100Y139700D01*
X114300Y139700D02*
X88900Y114300D01*
X114300Y139700D02*
X165100Y139700D01*
X88900Y88900D02*
X114300Y63500D01*
X152400Y63500D01*
X190500Y101600D01*
X190500Y152400D01*
D18*
X190500Y152400D03*
D17*
X63500Y152400D02*
X63500Y114300D01*
X63500Y152400D02*
X88900Y177800D01*
X228600Y177800D02*
X266700Y139700D01*
X228600Y177800D02*
X88900Y177800D01*
D18*
X342900Y63500D03*
D17*
X342900Y139700D01*
D18*
X393700Y63500D03*
D17*
X393700Y114300D01*
X368300Y139700D01*
D18*
X406400Y63500D03*
D17*
X406400Y127000D01*
X393700Y139700D01*
X533400Y63500D02*
X533400Y38100D01*
X508000Y38100D01*
X482600Y38100D01*
X457200Y38100D01*
M02*
