G04 EAGLE Gerber RS-274X export*
G75*
%MOMM*%
%FSLAX34Y34*%
%LPD*%
%INSoldermask Bottom*%
%IPPOS*%
%AMOC8*
5,1,8,0,0,1.08239X$1,22.5*%
G01*
%ADD10C,1.981200*%
%ADD11R,1.511200X1.511200*%
%ADD12C,1.511200*%
%ADD13C,1.524000*%
%ADD14C,1.727200*%
%ADD15C,1.625600*%
%ADD16P,1.759533X8X22.500000*%
%ADD17P,1.869504X8X22.500000*%
%ADD18C,0.959600*%


D10*
X215900Y139700D03*
D11*
X241300Y139700D03*
D12*
X266700Y139700D03*
X292100Y139700D03*
X317500Y139700D03*
X342900Y139700D03*
X368300Y139700D03*
X393700Y139700D03*
X419100Y139700D03*
X444500Y139700D03*
X469900Y139700D03*
X495300Y139700D03*
X520700Y139700D03*
X546100Y139700D03*
X571500Y139700D03*
X596900Y139700D03*
X596900Y292100D03*
X571500Y292100D03*
X546100Y292100D03*
X520700Y292100D03*
X495300Y292100D03*
X469900Y292100D03*
X444500Y292100D03*
X419100Y292100D03*
X393700Y292100D03*
X368300Y292100D03*
X342900Y292100D03*
X317500Y292100D03*
X292100Y292100D03*
X266700Y292100D03*
X241300Y292100D03*
D10*
X215900Y292100D03*
X622300Y292100D03*
X622300Y139700D03*
D13*
X63500Y590296D02*
X63500Y603504D01*
X88900Y603504D02*
X88900Y590296D01*
X215900Y590296D02*
X215900Y603504D01*
X241300Y603504D02*
X241300Y590296D01*
X114300Y590296D02*
X114300Y603504D01*
X139700Y603504D02*
X139700Y590296D01*
X190500Y590296D02*
X190500Y603504D01*
X165100Y603504D02*
X165100Y590296D01*
X241300Y666496D02*
X241300Y679704D01*
X215900Y679704D02*
X215900Y666496D01*
X190500Y666496D02*
X190500Y679704D01*
X165100Y679704D02*
X165100Y666496D01*
X139700Y666496D02*
X139700Y679704D01*
X114300Y679704D02*
X114300Y666496D01*
X88900Y666496D02*
X88900Y679704D01*
X63500Y679704D02*
X63500Y666496D01*
X342900Y603504D02*
X342900Y590296D01*
X368300Y590296D02*
X368300Y603504D01*
X495300Y603504D02*
X495300Y590296D01*
X520700Y590296D02*
X520700Y603504D01*
X393700Y603504D02*
X393700Y590296D01*
X419100Y590296D02*
X419100Y603504D01*
X469900Y603504D02*
X469900Y590296D01*
X444500Y590296D02*
X444500Y603504D01*
X520700Y666496D02*
X520700Y679704D01*
X495300Y679704D02*
X495300Y666496D01*
X469900Y666496D02*
X469900Y679704D01*
X444500Y679704D02*
X444500Y666496D01*
X419100Y666496D02*
X419100Y679704D01*
X393700Y679704D02*
X393700Y666496D01*
X368300Y666496D02*
X368300Y679704D01*
X342900Y679704D02*
X342900Y666496D01*
D14*
X63500Y716280D02*
X63500Y731520D01*
X88900Y731520D02*
X88900Y716280D01*
X114300Y716280D02*
X114300Y731520D01*
X139700Y731520D02*
X139700Y716280D01*
X165100Y716280D02*
X165100Y731520D01*
X342900Y754380D02*
X342900Y769620D01*
X368300Y769620D02*
X368300Y754380D01*
X393700Y754380D02*
X393700Y769620D01*
X419100Y769620D02*
X419100Y754380D01*
X444500Y754380D02*
X444500Y769620D01*
X342900Y718820D02*
X342900Y703580D01*
X368300Y703580D02*
X368300Y718820D01*
X393700Y718820D02*
X393700Y703580D01*
X419100Y703580D02*
X419100Y718820D01*
X444500Y718820D02*
X444500Y703580D01*
D15*
X38100Y114300D03*
D16*
X38100Y88900D03*
X63500Y114300D03*
X63500Y88900D03*
X88900Y114300D03*
X88900Y88900D03*
X114300Y114300D03*
X114300Y88900D03*
X139700Y114300D03*
X139700Y88900D03*
D14*
X393700Y347980D02*
X393700Y363220D01*
X419100Y363220D02*
X419100Y347980D01*
X444500Y347980D02*
X444500Y363220D01*
X469900Y363220D02*
X469900Y347980D01*
X393700Y325120D02*
X393700Y309880D01*
X419100Y309880D02*
X419100Y325120D01*
X444500Y325120D02*
X444500Y309880D01*
X469900Y309880D02*
X469900Y325120D01*
X63500Y551180D02*
X63500Y566420D01*
X88900Y566420D02*
X88900Y551180D01*
X114300Y551180D02*
X114300Y566420D01*
X139700Y566420D02*
X139700Y551180D01*
X342900Y551180D02*
X342900Y566420D01*
X368300Y566420D02*
X368300Y551180D01*
X393700Y551180D02*
X393700Y566420D01*
X419100Y566420D02*
X419100Y551180D01*
D17*
X368300Y317500D03*
X342900Y317500D03*
X165100Y558800D03*
X368300Y508000D03*
X533400Y63500D03*
X571500Y101600D03*
X444500Y558800D03*
X266700Y698500D03*
D14*
X330200Y45720D02*
X330200Y30480D01*
X355600Y30480D02*
X355600Y45720D01*
X381000Y45720D02*
X381000Y30480D01*
X406400Y30480D02*
X406400Y45720D01*
X457200Y45720D02*
X457200Y30480D01*
X482600Y30480D02*
X482600Y45720D01*
X508000Y45720D02*
X508000Y30480D01*
X533400Y30480D02*
X533400Y45720D01*
D18*
X330200Y63500D03*
X190500Y215900D03*
X139700Y190500D03*
X190500Y165100D03*
X190500Y152400D03*
X342900Y63500D03*
X393700Y63500D03*
X406400Y63500D03*
M02*
