M48
;GenerationSoftware,Autodesk,EAGLE,9.5.0*%
;CreationDate,2019-10-15T05:00:12Z*%
FMAT,2
ICI,OFF
METRIC,TZ,000.000
T7C0.381
T6C0.800
T5C0.813
T4C0.914
T3C1.016
T2C1.778
%
G90
M71
T2
X21590Y13970
X21590Y29210
X62230Y29210
X62230Y13970
T3
X113030Y31750
X46990Y31750
X44450Y31750
X41910Y31750
X39370Y31750
X46990Y35560
X44450Y35560
X41910Y35560
X39370Y35560
X113030Y26670
X110490Y26670
X107950Y26670
X105410Y26670
X102870Y26670
X53340Y3810
X110490Y31750
X107950Y31750
X105410Y31750
X102870Y31750
X85090Y27940
X82550Y27940
X80010Y27940
X77470Y27940
X74930Y27940
X77470Y11430
X50800Y3810
X48260Y3810
X45720Y3810
X40640Y3810
X38100Y3810
X35560Y3810
X33020Y3810
X95250Y25400
X113030Y11430
X57150Y10160
X53340Y6350
X105410Y6350
X85090Y11430
X34290Y31750
X74930Y11430
X80010Y11430
X82550Y11430
X102870Y11430
X105410Y11430
X107950Y11430
X110490Y11430
X36830Y31750
T4
X6350Y11430
X13970Y8890
X13970Y11430
X11430Y8890
X11430Y11430
X8890Y8890
X8890Y11430
X3810Y11430
X3810Y8890
X6350Y8890
T5
X113030Y15240
X102870Y22860
X105410Y22860
X107950Y22860
X110490Y22860
X113030Y22860
X115570Y22860
X120650Y22860
X118110Y22860
X74930Y15240
X77470Y15240
X90170Y15240
X92710Y15240
X80010Y15240
X82550Y15240
X87630Y15240
X85090Y15240
X92710Y22860
X90170Y22860
X87630Y22860
X85090Y22860
X80010Y22860
X82550Y22860
X115570Y15240
X110490Y15240
X107950Y15240
X120650Y15240
X118110Y15240
X105410Y15240
X102870Y15240
X74930Y22860
X77470Y22860
T6
X59690Y13970
X57150Y13970
X54610Y13970
X52070Y13970
X49530Y13970
X46990Y13970
X44450Y13970
X41910Y13970
X39370Y13970
X36830Y29210
X36830Y13970
X34290Y13970
X31750Y13970
X29210Y13970
X26670Y13970
X24130Y13970
X57150Y29210
X24130Y29210
X26670Y29210
X29210Y29210
X31750Y29210
X34290Y29210
X39370Y29210
X41910Y29210
X44450Y29210
X46990Y29210
X49530Y29210
X52070Y29210
X54610Y29210
X59690Y29210
T7
X33020Y6350
X40640Y6350
X39370Y6350
X34290Y6350
X19050Y13970
X19050Y16510
X13970Y19050
X19050Y21590
M30