G04 EAGLE Gerber RS-274X export*
G75*
%MOMM*%
%FSLAX34Y34*%
%LPD*%
%INTop Copper*%
%IPPOS*%
%AMOC8*
5,1,8,0,0,1.08239X$1,22.5*%
G01*
%ADD10R,1.206400X1.206400*%
%ADD11C,1.206400*%
%ADD12R,1.000000X1.100000*%
%ADD13C,1.219200*%
%ADD14C,1.524000*%
%ADD15R,0.800000X1.400000*%
%ADD16R,0.800000X1.900000*%
%ADD17C,1.371600*%
%ADD18P,1.484606X8X22.500000*%
%ADD19P,1.649562X8X22.500000*%
%ADD20C,0.787400*%
%ADD21C,0.635000*%

G36*
X1206590Y177054D02*
X1206590Y177054D01*
X1206681Y177061D01*
X1206711Y177073D01*
X1206743Y177079D01*
X1206823Y177121D01*
X1206907Y177157D01*
X1206939Y177183D01*
X1206960Y177194D01*
X1206982Y177217D01*
X1207038Y177262D01*
X1224136Y194360D01*
X1224189Y194434D01*
X1224249Y194503D01*
X1224261Y194533D01*
X1224280Y194559D01*
X1224307Y194646D01*
X1224341Y194731D01*
X1224345Y194772D01*
X1224352Y194795D01*
X1224351Y194827D01*
X1224359Y194898D01*
X1224359Y197477D01*
X1226938Y197477D01*
X1227028Y197492D01*
X1227119Y197499D01*
X1227149Y197511D01*
X1227181Y197517D01*
X1227261Y197559D01*
X1227345Y197595D01*
X1227377Y197621D01*
X1227398Y197632D01*
X1227420Y197655D01*
X1227476Y197700D01*
X1229000Y199224D01*
X1229042Y199282D01*
X1229091Y199334D01*
X1229113Y199381D01*
X1229144Y199423D01*
X1229165Y199492D01*
X1229195Y199557D01*
X1229201Y199609D01*
X1229216Y199658D01*
X1229214Y199730D01*
X1229222Y199801D01*
X1229211Y199852D01*
X1229210Y199904D01*
X1229185Y199972D01*
X1229170Y200042D01*
X1229143Y200086D01*
X1229125Y200135D01*
X1229080Y200191D01*
X1229044Y200253D01*
X1229004Y200287D01*
X1228972Y200327D01*
X1228911Y200366D01*
X1228857Y200413D01*
X1228808Y200432D01*
X1228765Y200460D01*
X1228695Y200478D01*
X1228629Y200505D01*
X1228557Y200513D01*
X1228526Y200520D01*
X1228503Y200519D01*
X1228462Y200523D01*
X1224359Y200523D01*
X1224359Y204834D01*
X1224532Y205481D01*
X1224867Y206060D01*
X1225340Y206533D01*
X1225919Y206868D01*
X1226566Y207041D01*
X1230377Y207041D01*
X1230377Y202438D01*
X1230388Y202367D01*
X1230390Y202296D01*
X1230408Y202247D01*
X1230417Y202195D01*
X1230450Y202132D01*
X1230475Y202065D01*
X1230507Y202024D01*
X1230532Y201978D01*
X1230584Y201929D01*
X1230628Y201873D01*
X1230672Y201844D01*
X1230710Y201809D01*
X1230775Y201778D01*
X1230835Y201740D01*
X1230886Y201727D01*
X1230933Y201705D01*
X1231004Y201697D01*
X1231074Y201680D01*
X1231126Y201684D01*
X1231178Y201678D01*
X1231248Y201693D01*
X1231319Y201699D01*
X1231367Y201719D01*
X1231418Y201730D01*
X1231480Y201767D01*
X1231545Y201795D01*
X1231601Y201840D01*
X1231629Y201856D01*
X1231644Y201874D01*
X1231676Y201900D01*
X1232438Y202662D01*
X1232491Y202736D01*
X1232551Y202805D01*
X1232563Y202835D01*
X1232582Y202861D01*
X1232609Y202948D01*
X1232643Y203033D01*
X1232647Y203074D01*
X1232654Y203097D01*
X1232653Y203129D01*
X1232661Y203200D01*
X1232661Y241300D01*
X1232647Y241390D01*
X1232639Y241481D01*
X1232627Y241511D01*
X1232622Y241543D01*
X1232579Y241623D01*
X1232543Y241707D01*
X1232517Y241739D01*
X1232506Y241760D01*
X1232483Y241782D01*
X1232438Y241838D01*
X1156238Y318038D01*
X1156164Y318091D01*
X1156095Y318151D01*
X1156065Y318163D01*
X1156039Y318182D01*
X1155952Y318209D01*
X1155867Y318243D01*
X1155826Y318247D01*
X1155803Y318254D01*
X1155771Y318253D01*
X1155700Y318261D01*
X1131062Y318261D01*
X1131042Y318258D01*
X1131023Y318260D01*
X1130921Y318238D01*
X1130819Y318222D01*
X1130802Y318212D01*
X1130782Y318208D01*
X1130693Y318155D01*
X1130602Y318106D01*
X1130588Y318092D01*
X1130571Y318082D01*
X1130504Y318003D01*
X1130433Y317928D01*
X1130424Y317910D01*
X1130411Y317895D01*
X1130373Y317799D01*
X1130329Y317705D01*
X1130327Y317685D01*
X1130319Y317667D01*
X1130301Y317500D01*
X1130301Y317499D01*
X1130300Y317499D01*
X1130280Y317496D01*
X1130261Y317498D01*
X1130159Y317476D01*
X1130057Y317459D01*
X1130040Y317450D01*
X1130020Y317446D01*
X1129931Y317393D01*
X1129840Y317344D01*
X1129826Y317330D01*
X1129809Y317320D01*
X1129742Y317241D01*
X1129671Y317166D01*
X1129662Y317148D01*
X1129649Y317133D01*
X1129610Y317037D01*
X1129567Y316943D01*
X1129565Y316923D01*
X1129557Y316905D01*
X1129539Y316738D01*
X1129539Y267462D01*
X1129542Y267442D01*
X1129540Y267423D01*
X1129562Y267321D01*
X1129579Y267219D01*
X1129588Y267202D01*
X1129592Y267182D01*
X1129645Y267093D01*
X1129694Y267002D01*
X1129708Y266988D01*
X1129718Y266971D01*
X1129797Y266904D01*
X1129872Y266833D01*
X1129890Y266824D01*
X1129905Y266811D01*
X1130001Y266773D01*
X1130095Y266729D01*
X1130115Y266727D01*
X1130133Y266719D01*
X1130300Y266701D01*
X1130301Y266701D01*
X1130301Y265938D01*
X1130304Y265918D01*
X1130302Y265899D01*
X1130324Y265797D01*
X1130341Y265695D01*
X1130350Y265678D01*
X1130354Y265658D01*
X1130407Y265569D01*
X1130456Y265478D01*
X1130470Y265464D01*
X1130480Y265447D01*
X1130559Y265380D01*
X1130634Y265309D01*
X1130652Y265300D01*
X1130667Y265287D01*
X1130763Y265248D01*
X1130857Y265205D01*
X1130877Y265203D01*
X1130895Y265195D01*
X1131062Y265177D01*
X1140461Y265177D01*
X1140461Y258280D01*
X1140211Y256701D01*
X1139716Y255179D01*
X1139291Y254346D01*
X1139268Y254274D01*
X1139236Y254205D01*
X1139231Y254157D01*
X1139217Y254111D01*
X1139218Y254036D01*
X1139209Y253961D01*
X1139220Y253914D01*
X1139220Y253865D01*
X1139246Y253794D01*
X1139262Y253720D01*
X1139286Y253679D01*
X1139302Y253634D01*
X1139349Y253574D01*
X1139388Y253509D01*
X1139424Y253478D01*
X1139454Y253440D01*
X1139517Y253398D01*
X1139575Y253349D01*
X1139619Y253331D01*
X1139660Y253305D01*
X1139733Y253286D01*
X1139803Y253257D01*
X1139868Y253250D01*
X1139897Y253242D01*
X1139923Y253244D01*
X1139970Y253239D01*
X1180785Y253239D01*
X1196983Y237040D01*
X1197021Y237013D01*
X1197052Y236979D01*
X1197120Y236942D01*
X1197183Y236897D01*
X1197227Y236883D01*
X1197267Y236861D01*
X1197344Y236847D01*
X1197418Y236824D01*
X1197464Y236825D01*
X1197509Y236817D01*
X1197586Y236829D01*
X1197664Y236831D01*
X1197707Y236846D01*
X1197753Y236853D01*
X1197822Y236888D01*
X1197895Y236915D01*
X1197931Y236944D01*
X1197972Y236964D01*
X1198026Y237020D01*
X1198087Y237069D01*
X1198112Y237107D01*
X1198144Y237140D01*
X1198210Y237260D01*
X1198220Y237276D01*
X1198221Y237280D01*
X1198225Y237287D01*
X1198846Y238787D01*
X1199791Y240202D01*
X1200994Y241405D01*
X1202409Y242350D01*
X1203981Y243001D01*
X1204977Y243199D01*
X1204977Y229362D01*
X1204980Y229342D01*
X1204978Y229323D01*
X1205000Y229221D01*
X1205017Y229119D01*
X1205026Y229102D01*
X1205030Y229082D01*
X1205083Y228993D01*
X1205132Y228902D01*
X1205146Y228888D01*
X1205156Y228871D01*
X1205235Y228804D01*
X1205310Y228733D01*
X1205328Y228724D01*
X1205343Y228711D01*
X1205439Y228673D01*
X1205533Y228629D01*
X1205553Y228627D01*
X1205571Y228619D01*
X1205738Y228601D01*
X1206501Y228601D01*
X1206501Y228599D01*
X1205738Y228599D01*
X1205718Y228596D01*
X1205699Y228598D01*
X1205597Y228576D01*
X1205495Y228559D01*
X1205478Y228550D01*
X1205458Y228546D01*
X1205369Y228493D01*
X1205278Y228444D01*
X1205264Y228430D01*
X1205247Y228420D01*
X1205180Y228341D01*
X1205109Y228266D01*
X1205100Y228248D01*
X1205087Y228233D01*
X1205048Y228137D01*
X1205005Y228043D01*
X1205003Y228023D01*
X1204995Y228005D01*
X1204977Y227838D01*
X1204977Y214001D01*
X1203981Y214199D01*
X1202409Y214850D01*
X1200994Y215795D01*
X1199791Y216998D01*
X1198846Y218413D01*
X1198225Y219913D01*
X1198201Y219952D01*
X1198185Y219995D01*
X1198136Y220056D01*
X1198095Y220122D01*
X1198060Y220151D01*
X1198031Y220187D01*
X1197966Y220229D01*
X1197906Y220279D01*
X1197863Y220295D01*
X1197824Y220320D01*
X1197749Y220339D01*
X1197676Y220367D01*
X1197630Y220369D01*
X1197586Y220380D01*
X1197508Y220374D01*
X1197431Y220377D01*
X1197386Y220365D01*
X1197341Y220361D01*
X1197269Y220331D01*
X1197194Y220309D01*
X1197157Y220283D01*
X1197114Y220265D01*
X1197008Y220179D01*
X1196992Y220169D01*
X1196989Y220165D01*
X1196983Y220160D01*
X1180785Y203961D01*
X1016315Y203961D01*
X965738Y254538D01*
X965664Y254591D01*
X965595Y254651D01*
X965565Y254663D01*
X965539Y254682D01*
X965452Y254709D01*
X965367Y254743D01*
X965326Y254747D01*
X965303Y254754D01*
X965271Y254753D01*
X965200Y254761D01*
X953262Y254761D01*
X953242Y254758D01*
X953223Y254760D01*
X953121Y254738D01*
X953019Y254722D01*
X953002Y254712D01*
X952982Y254708D01*
X952893Y254655D01*
X952802Y254606D01*
X952788Y254592D01*
X952771Y254582D01*
X952704Y254503D01*
X952633Y254428D01*
X952624Y254410D01*
X952611Y254395D01*
X952573Y254299D01*
X952529Y254205D01*
X952527Y254185D01*
X952519Y254167D01*
X952501Y254000D01*
X952501Y253999D01*
X952499Y253999D01*
X952499Y254762D01*
X952496Y254782D01*
X952498Y254801D01*
X952476Y254903D01*
X952459Y255005D01*
X952450Y255022D01*
X952446Y255042D01*
X952393Y255131D01*
X952344Y255222D01*
X952330Y255236D01*
X952320Y255253D01*
X952241Y255320D01*
X952166Y255391D01*
X952148Y255400D01*
X952133Y255413D01*
X952037Y255452D01*
X951943Y255495D01*
X951923Y255497D01*
X951905Y255505D01*
X951738Y255523D01*
X942339Y255523D01*
X942339Y258209D01*
X945315Y261185D01*
X945327Y261201D01*
X945342Y261213D01*
X945399Y261301D01*
X945459Y261384D01*
X945465Y261403D01*
X945475Y261420D01*
X945501Y261521D01*
X945531Y261620D01*
X945531Y261639D01*
X945536Y261659D01*
X945528Y261762D01*
X945525Y261865D01*
X945518Y261884D01*
X945516Y261904D01*
X945476Y261999D01*
X945440Y262096D01*
X945428Y262112D01*
X945420Y262130D01*
X945315Y262261D01*
X902238Y305338D01*
X902164Y305391D01*
X902095Y305451D01*
X902065Y305463D01*
X902039Y305482D01*
X901952Y305509D01*
X901867Y305543D01*
X901826Y305547D01*
X901803Y305554D01*
X901771Y305553D01*
X901700Y305561D01*
X863600Y305561D01*
X863510Y305547D01*
X863419Y305539D01*
X863389Y305527D01*
X863357Y305522D01*
X863277Y305479D01*
X863193Y305443D01*
X863161Y305417D01*
X863140Y305406D01*
X863118Y305383D01*
X863062Y305338D01*
X855117Y297393D01*
X855108Y297380D01*
X855095Y297371D01*
X855036Y297281D01*
X854973Y297194D01*
X854969Y297178D01*
X854960Y297165D01*
X854932Y297061D01*
X854901Y296959D01*
X854901Y296943D01*
X854897Y296927D01*
X854905Y296820D01*
X854907Y296713D01*
X854913Y296698D01*
X854914Y296682D01*
X854955Y296583D01*
X854992Y296482D01*
X855002Y296469D01*
X855008Y296454D01*
X855078Y296374D01*
X855145Y296290D01*
X855159Y296281D01*
X855169Y296269D01*
X855310Y296177D01*
X856225Y295710D01*
X857519Y294770D01*
X858650Y293639D01*
X859590Y292345D01*
X860316Y290920D01*
X860811Y289399D01*
X861061Y287820D01*
X861061Y280923D01*
X851662Y280923D01*
X851642Y280920D01*
X851623Y280922D01*
X851521Y280900D01*
X851419Y280883D01*
X851402Y280874D01*
X851382Y280870D01*
X851293Y280817D01*
X851202Y280768D01*
X851188Y280754D01*
X851171Y280744D01*
X851104Y280665D01*
X851033Y280590D01*
X851024Y280572D01*
X851011Y280557D01*
X850973Y280461D01*
X850929Y280367D01*
X850927Y280347D01*
X850919Y280329D01*
X850901Y280162D01*
X850901Y278638D01*
X850904Y278618D01*
X850902Y278599D01*
X850924Y278497D01*
X850941Y278395D01*
X850950Y278378D01*
X850954Y278358D01*
X851007Y278269D01*
X851056Y278178D01*
X851070Y278164D01*
X851080Y278147D01*
X851159Y278080D01*
X851234Y278009D01*
X851252Y278000D01*
X851267Y277987D01*
X851363Y277948D01*
X851457Y277905D01*
X851477Y277903D01*
X851495Y277895D01*
X851662Y277877D01*
X861061Y277877D01*
X861061Y270980D01*
X860811Y269401D01*
X860316Y267880D01*
X859590Y266455D01*
X858650Y265161D01*
X857519Y264030D01*
X856225Y263090D01*
X855310Y262623D01*
X855297Y262614D01*
X855282Y262608D01*
X855198Y262541D01*
X855111Y262478D01*
X855102Y262465D01*
X855090Y262455D01*
X855031Y262364D01*
X854970Y262276D01*
X854965Y262261D01*
X854957Y262248D01*
X854930Y262143D01*
X854900Y262041D01*
X854901Y262025D01*
X854897Y262009D01*
X854905Y261902D01*
X854909Y261795D01*
X854914Y261780D01*
X854916Y261764D01*
X854958Y261665D01*
X854996Y261565D01*
X855006Y261552D01*
X855012Y261538D01*
X855117Y261407D01*
X863062Y253462D01*
X863136Y253409D01*
X863205Y253349D01*
X863235Y253337D01*
X863261Y253318D01*
X863348Y253291D01*
X863433Y253257D01*
X863474Y253253D01*
X863497Y253246D01*
X863529Y253247D01*
X863600Y253239D01*
X901385Y253239D01*
X917583Y237040D01*
X917621Y237013D01*
X917652Y236980D01*
X917720Y236942D01*
X917783Y236897D01*
X917827Y236883D01*
X917867Y236861D01*
X917944Y236847D01*
X918018Y236824D01*
X918064Y236825D01*
X918109Y236817D01*
X918186Y236829D01*
X918264Y236831D01*
X918307Y236846D01*
X918353Y236853D01*
X918422Y236888D01*
X918495Y236915D01*
X918531Y236944D01*
X918572Y236965D01*
X918626Y237020D01*
X918687Y237069D01*
X918712Y237107D01*
X918744Y237140D01*
X918810Y237260D01*
X918820Y237276D01*
X918821Y237280D01*
X918825Y237287D01*
X919446Y238787D01*
X920391Y240202D01*
X921594Y241405D01*
X923009Y242350D01*
X924581Y243001D01*
X925577Y243199D01*
X925577Y229362D01*
X925580Y229342D01*
X925578Y229323D01*
X925600Y229221D01*
X925617Y229119D01*
X925626Y229102D01*
X925630Y229082D01*
X925683Y228993D01*
X925732Y228902D01*
X925746Y228888D01*
X925756Y228871D01*
X925835Y228804D01*
X925910Y228733D01*
X925928Y228724D01*
X925943Y228711D01*
X926039Y228673D01*
X926133Y228629D01*
X926153Y228627D01*
X926171Y228619D01*
X926338Y228601D01*
X927101Y228601D01*
X927101Y227838D01*
X927104Y227818D01*
X927102Y227799D01*
X927124Y227697D01*
X927141Y227595D01*
X927150Y227578D01*
X927154Y227558D01*
X927207Y227469D01*
X927256Y227378D01*
X927270Y227364D01*
X927280Y227347D01*
X927359Y227280D01*
X927434Y227209D01*
X927452Y227200D01*
X927467Y227187D01*
X927563Y227148D01*
X927657Y227105D01*
X927677Y227103D01*
X927695Y227095D01*
X927862Y227077D01*
X935737Y227077D01*
X935737Y221653D01*
X935405Y219985D01*
X935375Y219913D01*
X935367Y219879D01*
X935365Y219874D01*
X935364Y219865D01*
X935349Y219800D01*
X935320Y219686D01*
X935320Y219680D01*
X935319Y219673D01*
X935330Y219557D01*
X935339Y219441D01*
X935341Y219435D01*
X935342Y219429D01*
X935390Y219320D01*
X935435Y219214D01*
X935440Y219208D01*
X935442Y219204D01*
X935455Y219190D01*
X935540Y219083D01*
X947360Y207264D01*
X947434Y207211D01*
X947503Y207151D01*
X947533Y207139D01*
X947559Y207120D01*
X947646Y207093D01*
X947731Y207059D01*
X947772Y207055D01*
X947795Y207048D01*
X947827Y207049D01*
X947898Y207041D01*
X950977Y207041D01*
X950977Y203962D01*
X950992Y203872D01*
X950999Y203781D01*
X951011Y203751D01*
X951017Y203719D01*
X951059Y203639D01*
X951095Y203555D01*
X951121Y203522D01*
X951132Y203502D01*
X951155Y203480D01*
X951200Y203424D01*
X951739Y202885D01*
X951739Y199762D01*
X951742Y199742D01*
X951740Y199723D01*
X951762Y199621D01*
X951779Y199519D01*
X951788Y199502D01*
X951792Y199482D01*
X951845Y199393D01*
X951894Y199302D01*
X951908Y199288D01*
X951918Y199271D01*
X951997Y199204D01*
X952072Y199133D01*
X952090Y199124D01*
X952105Y199111D01*
X952201Y199072D01*
X952295Y199029D01*
X952315Y199027D01*
X952333Y199019D01*
X952500Y199001D01*
X952501Y199001D01*
X952501Y198238D01*
X952504Y198218D01*
X952502Y198199D01*
X952524Y198097D01*
X952541Y197995D01*
X952550Y197978D01*
X952554Y197958D01*
X952607Y197869D01*
X952656Y197778D01*
X952670Y197764D01*
X952680Y197747D01*
X952759Y197680D01*
X952834Y197609D01*
X952852Y197600D01*
X952867Y197587D01*
X952963Y197548D01*
X953057Y197505D01*
X953077Y197503D01*
X953095Y197495D01*
X953262Y197477D01*
X960041Y197477D01*
X960041Y193166D01*
X959868Y192519D01*
X959529Y191932D01*
X959519Y191925D01*
X959463Y191838D01*
X959403Y191754D01*
X959397Y191735D01*
X959386Y191718D01*
X959361Y191617D01*
X959331Y191519D01*
X959331Y191499D01*
X959326Y191479D01*
X959334Y191376D01*
X959337Y191273D01*
X959344Y191254D01*
X959345Y191234D01*
X959386Y191139D01*
X959421Y191042D01*
X959434Y191026D01*
X959442Y191008D01*
X959547Y190877D01*
X960462Y189962D01*
X960536Y189909D01*
X960605Y189849D01*
X960635Y189837D01*
X960661Y189818D01*
X960749Y189791D01*
X960833Y189757D01*
X960874Y189753D01*
X960897Y189746D01*
X960929Y189747D01*
X961000Y189739D01*
X964885Y189739D01*
X977362Y177262D01*
X977436Y177209D01*
X977505Y177149D01*
X977535Y177137D01*
X977561Y177118D01*
X977648Y177091D01*
X977733Y177057D01*
X977774Y177053D01*
X977797Y177046D01*
X977829Y177047D01*
X977900Y177039D01*
X1206500Y177039D01*
X1206590Y177054D01*
G37*
G36*
X228690Y11954D02*
X228690Y11954D01*
X228781Y11961D01*
X228811Y11973D01*
X228843Y11979D01*
X228923Y12021D01*
X229007Y12057D01*
X229039Y12083D01*
X229060Y12094D01*
X229082Y12117D01*
X229138Y12162D01*
X292415Y75439D01*
X310830Y75439D01*
X310920Y75454D01*
X311011Y75461D01*
X311041Y75473D01*
X311073Y75479D01*
X311153Y75521D01*
X311238Y75557D01*
X311270Y75583D01*
X311290Y75594D01*
X311313Y75617D01*
X311368Y75662D01*
X311464Y75757D01*
X311533Y75854D01*
X311604Y75950D01*
X311606Y75954D01*
X311608Y75957D01*
X311643Y76070D01*
X311679Y76184D01*
X311679Y76188D01*
X311680Y76192D01*
X311677Y76310D01*
X311675Y76430D01*
X311674Y76434D01*
X311674Y76438D01*
X311633Y76550D01*
X311594Y76662D01*
X311591Y76665D01*
X311590Y76669D01*
X311515Y76762D01*
X311442Y76856D01*
X311438Y76859D01*
X311436Y76861D01*
X311425Y76869D01*
X311307Y76955D01*
X310940Y77167D01*
X310467Y77640D01*
X310132Y78219D01*
X309959Y78866D01*
X309959Y83177D01*
X316738Y83177D01*
X316758Y83180D01*
X316777Y83178D01*
X316879Y83200D01*
X316981Y83217D01*
X316998Y83226D01*
X317018Y83230D01*
X317107Y83283D01*
X317198Y83332D01*
X317212Y83346D01*
X317229Y83356D01*
X317296Y83435D01*
X317367Y83510D01*
X317376Y83528D01*
X317389Y83543D01*
X317428Y83639D01*
X317471Y83733D01*
X317473Y83753D01*
X317481Y83771D01*
X317499Y83938D01*
X317499Y84701D01*
X317501Y84701D01*
X317501Y83938D01*
X317504Y83918D01*
X317502Y83899D01*
X317524Y83797D01*
X317541Y83695D01*
X317550Y83678D01*
X317554Y83658D01*
X317607Y83569D01*
X317656Y83478D01*
X317670Y83464D01*
X317680Y83447D01*
X317759Y83380D01*
X317834Y83309D01*
X317852Y83300D01*
X317867Y83287D01*
X317963Y83248D01*
X318057Y83205D01*
X318077Y83203D01*
X318095Y83195D01*
X318262Y83177D01*
X325041Y83177D01*
X325041Y78866D01*
X324868Y78219D01*
X324533Y77640D01*
X324060Y77167D01*
X323693Y76955D01*
X323600Y76879D01*
X323508Y76805D01*
X323506Y76802D01*
X323503Y76799D01*
X323439Y76697D01*
X323375Y76598D01*
X323374Y76595D01*
X323372Y76591D01*
X323344Y76473D01*
X323315Y76360D01*
X323316Y76356D01*
X323315Y76352D01*
X323325Y76232D01*
X323334Y76115D01*
X323336Y76111D01*
X323336Y76107D01*
X323384Y75997D01*
X323431Y75888D01*
X323434Y75885D01*
X323435Y75882D01*
X323444Y75871D01*
X323536Y75757D01*
X323632Y75662D01*
X323705Y75609D01*
X323775Y75549D01*
X323805Y75537D01*
X323831Y75518D01*
X323918Y75491D01*
X324003Y75457D01*
X324044Y75453D01*
X324066Y75446D01*
X324099Y75447D01*
X324170Y75439D01*
X348930Y75439D01*
X349020Y75454D01*
X349111Y75461D01*
X349141Y75473D01*
X349173Y75479D01*
X349253Y75521D01*
X349338Y75557D01*
X349370Y75583D01*
X349390Y75594D01*
X349413Y75617D01*
X349468Y75662D01*
X349564Y75757D01*
X349633Y75854D01*
X349704Y75950D01*
X349706Y75954D01*
X349708Y75957D01*
X349743Y76070D01*
X349779Y76184D01*
X349779Y76188D01*
X349780Y76192D01*
X349777Y76310D01*
X349775Y76430D01*
X349774Y76434D01*
X349774Y76438D01*
X349733Y76550D01*
X349694Y76662D01*
X349691Y76665D01*
X349690Y76669D01*
X349615Y76762D01*
X349542Y76856D01*
X349538Y76859D01*
X349536Y76861D01*
X349525Y76869D01*
X349407Y76955D01*
X349040Y77167D01*
X348567Y77640D01*
X348232Y78219D01*
X348059Y78866D01*
X348059Y83177D01*
X354838Y83177D01*
X354858Y83180D01*
X354877Y83178D01*
X354979Y83200D01*
X355081Y83217D01*
X355098Y83226D01*
X355118Y83230D01*
X355207Y83283D01*
X355298Y83332D01*
X355312Y83346D01*
X355329Y83356D01*
X355396Y83435D01*
X355467Y83510D01*
X355476Y83528D01*
X355489Y83543D01*
X355528Y83639D01*
X355571Y83733D01*
X355573Y83753D01*
X355581Y83771D01*
X355599Y83938D01*
X355599Y84701D01*
X355601Y84701D01*
X355601Y83938D01*
X355604Y83918D01*
X355602Y83899D01*
X355624Y83797D01*
X355641Y83695D01*
X355650Y83678D01*
X355654Y83658D01*
X355707Y83569D01*
X355756Y83478D01*
X355770Y83464D01*
X355780Y83447D01*
X355859Y83380D01*
X355934Y83309D01*
X355952Y83300D01*
X355967Y83287D01*
X356063Y83248D01*
X356157Y83205D01*
X356177Y83203D01*
X356195Y83195D01*
X356362Y83177D01*
X363141Y83177D01*
X363141Y78866D01*
X362968Y78219D01*
X362633Y77640D01*
X362160Y77167D01*
X361793Y76955D01*
X361700Y76879D01*
X361608Y76805D01*
X361606Y76802D01*
X361603Y76799D01*
X361539Y76697D01*
X361475Y76598D01*
X361474Y76595D01*
X361472Y76591D01*
X361444Y76473D01*
X361415Y76360D01*
X361416Y76356D01*
X361415Y76352D01*
X361425Y76232D01*
X361434Y76115D01*
X361436Y76111D01*
X361436Y76107D01*
X361484Y75997D01*
X361531Y75888D01*
X361534Y75885D01*
X361535Y75882D01*
X361544Y75871D01*
X361636Y75757D01*
X361732Y75662D01*
X361805Y75609D01*
X361875Y75549D01*
X361905Y75537D01*
X361931Y75518D01*
X362018Y75491D01*
X362103Y75457D01*
X362144Y75453D01*
X362166Y75446D01*
X362199Y75447D01*
X362270Y75439D01*
X374330Y75439D01*
X374420Y75454D01*
X374511Y75461D01*
X374541Y75473D01*
X374573Y75479D01*
X374653Y75521D01*
X374738Y75557D01*
X374770Y75583D01*
X374790Y75594D01*
X374813Y75617D01*
X374868Y75662D01*
X374964Y75757D01*
X375033Y75854D01*
X375104Y75950D01*
X375106Y75954D01*
X375108Y75957D01*
X375143Y76070D01*
X375179Y76184D01*
X375179Y76188D01*
X375180Y76192D01*
X375177Y76310D01*
X375175Y76430D01*
X375174Y76434D01*
X375174Y76438D01*
X375133Y76550D01*
X375094Y76662D01*
X375091Y76665D01*
X375090Y76669D01*
X375015Y76762D01*
X374942Y76856D01*
X374938Y76859D01*
X374936Y76861D01*
X374925Y76869D01*
X374807Y76955D01*
X374440Y77167D01*
X373967Y77640D01*
X373632Y78219D01*
X373459Y78866D01*
X373459Y83177D01*
X380238Y83177D01*
X380258Y83180D01*
X380277Y83178D01*
X380379Y83200D01*
X380481Y83217D01*
X380498Y83226D01*
X380518Y83230D01*
X380607Y83283D01*
X380698Y83332D01*
X380712Y83346D01*
X380729Y83356D01*
X380796Y83435D01*
X380867Y83510D01*
X380876Y83528D01*
X380889Y83543D01*
X380928Y83639D01*
X380971Y83733D01*
X380973Y83753D01*
X380981Y83771D01*
X380999Y83938D01*
X380999Y84701D01*
X381001Y84701D01*
X381001Y83938D01*
X381004Y83918D01*
X381002Y83899D01*
X381024Y83797D01*
X381041Y83695D01*
X381050Y83678D01*
X381054Y83658D01*
X381107Y83569D01*
X381156Y83478D01*
X381170Y83464D01*
X381180Y83447D01*
X381259Y83380D01*
X381334Y83309D01*
X381352Y83300D01*
X381367Y83287D01*
X381463Y83248D01*
X381557Y83205D01*
X381577Y83203D01*
X381595Y83195D01*
X381762Y83177D01*
X388541Y83177D01*
X388541Y78866D01*
X388368Y78219D01*
X388033Y77640D01*
X387560Y77167D01*
X387193Y76955D01*
X387100Y76879D01*
X387008Y76805D01*
X387006Y76802D01*
X387003Y76799D01*
X386939Y76697D01*
X386875Y76598D01*
X386874Y76595D01*
X386872Y76591D01*
X386844Y76473D01*
X386815Y76360D01*
X386816Y76356D01*
X386815Y76352D01*
X386825Y76232D01*
X386834Y76115D01*
X386836Y76111D01*
X386836Y76107D01*
X386884Y75997D01*
X386931Y75888D01*
X386934Y75885D01*
X386935Y75882D01*
X386944Y75871D01*
X387036Y75757D01*
X387132Y75662D01*
X387205Y75609D01*
X387275Y75549D01*
X387305Y75537D01*
X387331Y75518D01*
X387418Y75491D01*
X387503Y75457D01*
X387544Y75453D01*
X387566Y75446D01*
X387599Y75447D01*
X387670Y75439D01*
X412430Y75439D01*
X412520Y75454D01*
X412611Y75461D01*
X412641Y75473D01*
X412673Y75479D01*
X412753Y75521D01*
X412838Y75557D01*
X412870Y75583D01*
X412890Y75594D01*
X412913Y75617D01*
X412968Y75662D01*
X413064Y75757D01*
X413133Y75854D01*
X413204Y75950D01*
X413206Y75954D01*
X413208Y75957D01*
X413243Y76070D01*
X413279Y76184D01*
X413279Y76188D01*
X413280Y76192D01*
X413277Y76310D01*
X413275Y76430D01*
X413274Y76434D01*
X413274Y76438D01*
X413233Y76550D01*
X413194Y76662D01*
X413191Y76665D01*
X413190Y76669D01*
X413115Y76762D01*
X413042Y76856D01*
X413038Y76859D01*
X413036Y76861D01*
X413025Y76869D01*
X412907Y76955D01*
X412540Y77167D01*
X412067Y77640D01*
X411732Y78219D01*
X411559Y78866D01*
X411559Y83177D01*
X418338Y83177D01*
X418358Y83180D01*
X418377Y83178D01*
X418479Y83200D01*
X418581Y83217D01*
X418598Y83226D01*
X418618Y83230D01*
X418707Y83283D01*
X418798Y83332D01*
X418812Y83346D01*
X418829Y83356D01*
X418896Y83435D01*
X418967Y83510D01*
X418976Y83528D01*
X418989Y83543D01*
X419028Y83639D01*
X419071Y83733D01*
X419073Y83753D01*
X419081Y83771D01*
X419099Y83938D01*
X419099Y84701D01*
X419101Y84701D01*
X419101Y83938D01*
X419104Y83918D01*
X419102Y83899D01*
X419124Y83797D01*
X419141Y83695D01*
X419150Y83678D01*
X419154Y83658D01*
X419207Y83569D01*
X419256Y83478D01*
X419270Y83464D01*
X419280Y83447D01*
X419359Y83380D01*
X419434Y83309D01*
X419452Y83300D01*
X419467Y83287D01*
X419563Y83248D01*
X419657Y83205D01*
X419677Y83203D01*
X419695Y83195D01*
X419862Y83177D01*
X426641Y83177D01*
X426641Y78866D01*
X426468Y78219D01*
X426133Y77640D01*
X425660Y77167D01*
X425293Y76955D01*
X425200Y76879D01*
X425108Y76805D01*
X425106Y76802D01*
X425103Y76799D01*
X425039Y76697D01*
X424975Y76598D01*
X424974Y76595D01*
X424972Y76591D01*
X424944Y76473D01*
X424915Y76360D01*
X424916Y76356D01*
X424915Y76352D01*
X424925Y76232D01*
X424934Y76115D01*
X424936Y76111D01*
X424936Y76107D01*
X424984Y75997D01*
X425031Y75888D01*
X425034Y75885D01*
X425035Y75882D01*
X425044Y75871D01*
X425136Y75757D01*
X425232Y75662D01*
X425305Y75609D01*
X425375Y75549D01*
X425405Y75537D01*
X425431Y75518D01*
X425518Y75491D01*
X425603Y75457D01*
X425644Y75453D01*
X425666Y75446D01*
X425699Y75447D01*
X425770Y75439D01*
X482600Y75439D01*
X482690Y75454D01*
X482781Y75461D01*
X482811Y75473D01*
X482843Y75479D01*
X482923Y75521D01*
X483007Y75557D01*
X483039Y75583D01*
X483060Y75594D01*
X483082Y75617D01*
X483138Y75662D01*
X495615Y88139D01*
X584200Y88139D01*
X584220Y88142D01*
X584239Y88140D01*
X584341Y88162D01*
X584443Y88179D01*
X584460Y88188D01*
X584480Y88192D01*
X584569Y88245D01*
X584660Y88294D01*
X584674Y88308D01*
X584691Y88318D01*
X584758Y88397D01*
X584830Y88472D01*
X584838Y88490D01*
X584851Y88505D01*
X584890Y88601D01*
X584933Y88695D01*
X584935Y88715D01*
X584943Y88733D01*
X584961Y88900D01*
X584961Y139700D01*
X584947Y139790D01*
X584939Y139881D01*
X584927Y139911D01*
X584922Y139943D01*
X584879Y140023D01*
X584843Y140107D01*
X584817Y140139D01*
X584806Y140160D01*
X584783Y140182D01*
X584738Y140238D01*
X580296Y144681D01*
X580256Y144710D01*
X580222Y144746D01*
X580157Y144781D01*
X580096Y144824D01*
X580049Y144839D01*
X580006Y144862D01*
X579932Y144875D01*
X579861Y144897D01*
X579812Y144895D01*
X579763Y144904D01*
X579690Y144892D01*
X579615Y144890D01*
X579569Y144873D01*
X579520Y144866D01*
X579454Y144831D01*
X579384Y144806D01*
X579346Y144775D01*
X579302Y144752D01*
X579250Y144699D01*
X579192Y144652D01*
X579165Y144611D01*
X579131Y144575D01*
X579099Y144508D01*
X579059Y144445D01*
X579047Y144397D01*
X579026Y144353D01*
X579017Y144279D01*
X578999Y144207D01*
X579003Y144158D01*
X578997Y144109D01*
X579012Y144036D01*
X579018Y143962D01*
X579037Y143916D01*
X579047Y143868D01*
X579073Y143819D01*
X579743Y142201D01*
X579938Y141223D01*
X573023Y141223D01*
X573023Y148138D01*
X574001Y147943D01*
X575593Y147284D01*
X575604Y147276D01*
X575675Y147254D01*
X575743Y147223D01*
X575792Y147218D01*
X575839Y147203D01*
X575914Y147205D01*
X575988Y147198D01*
X576036Y147208D01*
X576085Y147210D01*
X576155Y147235D01*
X576228Y147252D01*
X576270Y147277D01*
X576316Y147294D01*
X576374Y147341D01*
X576438Y147379D01*
X576470Y147417D01*
X576508Y147448D01*
X576548Y147510D01*
X576596Y147567D01*
X576614Y147613D01*
X576641Y147655D01*
X576659Y147727D01*
X576687Y147796D01*
X576689Y147845D01*
X576701Y147893D01*
X576695Y147968D01*
X576699Y148042D01*
X576686Y148089D01*
X576682Y148138D01*
X576653Y148207D01*
X576633Y148279D01*
X576605Y148320D01*
X576586Y148365D01*
X576508Y148462D01*
X576494Y148482D01*
X576487Y148488D01*
X576481Y148496D01*
X572038Y152938D01*
X572022Y152950D01*
X572010Y152965D01*
X571922Y153022D01*
X571839Y153082D01*
X571820Y153088D01*
X571803Y153098D01*
X571702Y153124D01*
X571603Y153154D01*
X571584Y153154D01*
X571564Y153159D01*
X571461Y153151D01*
X571358Y153148D01*
X571339Y153141D01*
X571319Y153139D01*
X571224Y153099D01*
X571127Y153063D01*
X571111Y153051D01*
X571093Y153043D01*
X570962Y152938D01*
X566519Y148496D01*
X566490Y148456D01*
X566454Y148422D01*
X566419Y148356D01*
X566376Y148296D01*
X566361Y148249D01*
X566338Y148206D01*
X566325Y148132D01*
X566303Y148061D01*
X566305Y148012D01*
X566296Y147963D01*
X566308Y147890D01*
X566310Y147815D01*
X566327Y147769D01*
X566334Y147720D01*
X566368Y147654D01*
X566394Y147584D01*
X566425Y147545D01*
X566448Y147502D01*
X566501Y147450D01*
X566548Y147392D01*
X566589Y147365D01*
X566625Y147331D01*
X566692Y147299D01*
X566755Y147259D01*
X566803Y147247D01*
X566847Y147226D01*
X566921Y147217D01*
X566993Y147199D01*
X567042Y147203D01*
X567091Y147197D01*
X567164Y147212D01*
X567238Y147218D01*
X567284Y147237D01*
X567332Y147247D01*
X567381Y147273D01*
X568999Y147943D01*
X569977Y148138D01*
X569977Y141223D01*
X563062Y141223D01*
X563257Y142201D01*
X563916Y143793D01*
X563924Y143804D01*
X563946Y143875D01*
X563977Y143943D01*
X563982Y143992D01*
X563997Y144039D01*
X563995Y144114D01*
X564002Y144188D01*
X563992Y144236D01*
X563990Y144285D01*
X563965Y144355D01*
X563948Y144428D01*
X563923Y144470D01*
X563906Y144516D01*
X563859Y144574D01*
X563821Y144638D01*
X563783Y144670D01*
X563752Y144708D01*
X563690Y144748D01*
X563633Y144796D01*
X563587Y144814D01*
X563545Y144841D01*
X563473Y144859D01*
X563404Y144887D01*
X563355Y144889D01*
X563307Y144901D01*
X563232Y144895D01*
X563158Y144899D01*
X563111Y144886D01*
X563062Y144882D01*
X562993Y144853D01*
X562921Y144833D01*
X562880Y144805D01*
X562835Y144786D01*
X562738Y144708D01*
X562718Y144694D01*
X562712Y144687D01*
X562704Y144681D01*
X558262Y140238D01*
X558209Y140164D01*
X558149Y140095D01*
X558137Y140065D01*
X558118Y140039D01*
X558091Y139952D01*
X558057Y139867D01*
X558053Y139826D01*
X558046Y139803D01*
X558047Y139771D01*
X558039Y139700D01*
X558039Y127315D01*
X545785Y115061D01*
X482600Y115061D01*
X482510Y115047D01*
X482419Y115039D01*
X482389Y115027D01*
X482357Y115022D01*
X482277Y114979D01*
X482193Y114943D01*
X482161Y114917D01*
X482140Y114906D01*
X482118Y114883D01*
X482062Y114838D01*
X469585Y102361D01*
X266700Y102361D01*
X266610Y102347D01*
X266519Y102339D01*
X266489Y102327D01*
X266457Y102322D01*
X266377Y102279D01*
X266293Y102243D01*
X266261Y102217D01*
X266240Y102206D01*
X266218Y102183D01*
X266162Y102138D01*
X202885Y38861D01*
X114615Y38861D01*
X71222Y82254D01*
X71206Y82266D01*
X71194Y82281D01*
X71106Y82337D01*
X71023Y82398D01*
X71004Y82403D01*
X70987Y82414D01*
X70886Y82440D01*
X70788Y82470D01*
X70768Y82469D01*
X70748Y82474D01*
X70645Y82466D01*
X70542Y82464D01*
X70523Y82457D01*
X70503Y82455D01*
X70408Y82415D01*
X70311Y82379D01*
X70295Y82367D01*
X70277Y82359D01*
X70146Y82254D01*
X67393Y79501D01*
X65023Y79501D01*
X65023Y88138D01*
X65020Y88158D01*
X65022Y88177D01*
X65000Y88279D01*
X64983Y88381D01*
X64974Y88398D01*
X64970Y88418D01*
X64917Y88507D01*
X64868Y88598D01*
X64854Y88612D01*
X64844Y88629D01*
X64765Y88696D01*
X64690Y88767D01*
X64672Y88776D01*
X64657Y88789D01*
X64561Y88827D01*
X64467Y88871D01*
X64447Y88873D01*
X64429Y88881D01*
X64262Y88899D01*
X63499Y88899D01*
X63499Y88900D01*
X63496Y88920D01*
X63498Y88939D01*
X63476Y89041D01*
X63459Y89143D01*
X63450Y89160D01*
X63446Y89180D01*
X63393Y89269D01*
X63344Y89360D01*
X63330Y89374D01*
X63320Y89391D01*
X63241Y89458D01*
X63166Y89530D01*
X63148Y89538D01*
X63133Y89551D01*
X63037Y89590D01*
X62943Y89633D01*
X62923Y89635D01*
X62905Y89643D01*
X62738Y89661D01*
X50800Y89661D01*
X50780Y89658D01*
X50761Y89660D01*
X50659Y89638D01*
X50557Y89622D01*
X50540Y89612D01*
X50520Y89608D01*
X50431Y89555D01*
X50340Y89506D01*
X50326Y89492D01*
X50309Y89482D01*
X50242Y89403D01*
X50171Y89328D01*
X50162Y89310D01*
X50149Y89295D01*
X50110Y89199D01*
X50067Y89105D01*
X50065Y89085D01*
X50057Y89067D01*
X50039Y88900D01*
X50039Y63500D01*
X50054Y63410D01*
X50061Y63319D01*
X50073Y63289D01*
X50079Y63257D01*
X50121Y63177D01*
X50157Y63093D01*
X50183Y63061D01*
X50194Y63040D01*
X50217Y63018D01*
X50262Y62962D01*
X101062Y12162D01*
X101136Y12109D01*
X101205Y12049D01*
X101235Y12037D01*
X101261Y12018D01*
X101348Y11991D01*
X101433Y11957D01*
X101474Y11953D01*
X101497Y11946D01*
X101529Y11947D01*
X101600Y11939D01*
X228600Y11939D01*
X228690Y11954D01*
G37*
G36*
X1206590Y24654D02*
X1206590Y24654D01*
X1206681Y24661D01*
X1206711Y24673D01*
X1206743Y24679D01*
X1206823Y24721D01*
X1206907Y24757D01*
X1206939Y24783D01*
X1206960Y24794D01*
X1206982Y24817D01*
X1207038Y24862D01*
X1232438Y50262D01*
X1232491Y50336D01*
X1232551Y50405D01*
X1232563Y50435D01*
X1232582Y50461D01*
X1232609Y50548D01*
X1232643Y50633D01*
X1232647Y50674D01*
X1232654Y50697D01*
X1232653Y50729D01*
X1232661Y50800D01*
X1232661Y76200D01*
X1232647Y76290D01*
X1232639Y76381D01*
X1232627Y76411D01*
X1232622Y76443D01*
X1232579Y76523D01*
X1232543Y76607D01*
X1232517Y76640D01*
X1232506Y76660D01*
X1232483Y76682D01*
X1232438Y76738D01*
X1229330Y79846D01*
X1229272Y79888D01*
X1229220Y79938D01*
X1229173Y79959D01*
X1229131Y79990D01*
X1229062Y80011D01*
X1228997Y80041D01*
X1228945Y80047D01*
X1228895Y80062D01*
X1228824Y80060D01*
X1228753Y80068D01*
X1228702Y80057D01*
X1228650Y80056D01*
X1228582Y80031D01*
X1228512Y80016D01*
X1228467Y79989D01*
X1228419Y79971D01*
X1228363Y79927D01*
X1228301Y79890D01*
X1228267Y79850D01*
X1228227Y79818D01*
X1228188Y79757D01*
X1228141Y79703D01*
X1228122Y79655D01*
X1228094Y79611D01*
X1228076Y79541D01*
X1228049Y79475D01*
X1228041Y79403D01*
X1228033Y79372D01*
X1228035Y79349D01*
X1228031Y79308D01*
X1228031Y74456D01*
X1227858Y73809D01*
X1227523Y73230D01*
X1227050Y72757D01*
X1226471Y72422D01*
X1225824Y72249D01*
X1223013Y72249D01*
X1223013Y81028D01*
X1223010Y81048D01*
X1223012Y81067D01*
X1222990Y81169D01*
X1222973Y81271D01*
X1222964Y81288D01*
X1222960Y81308D01*
X1222907Y81397D01*
X1222858Y81488D01*
X1222844Y81502D01*
X1222834Y81519D01*
X1222755Y81586D01*
X1222680Y81657D01*
X1222662Y81666D01*
X1222647Y81679D01*
X1222551Y81718D01*
X1222457Y81761D01*
X1222437Y81763D01*
X1222419Y81771D01*
X1222252Y81789D01*
X1221490Y81789D01*
X1221470Y81786D01*
X1221451Y81788D01*
X1221349Y81766D01*
X1221247Y81749D01*
X1221230Y81740D01*
X1221210Y81736D01*
X1221121Y81683D01*
X1221030Y81634D01*
X1221016Y81620D01*
X1220999Y81610D01*
X1220932Y81531D01*
X1220861Y81456D01*
X1220852Y81438D01*
X1220839Y81423D01*
X1220800Y81327D01*
X1220757Y81233D01*
X1220755Y81213D01*
X1220747Y81195D01*
X1220729Y81028D01*
X1220729Y66105D01*
X1218885Y64261D01*
X1054862Y64261D01*
X1054842Y64258D01*
X1054823Y64260D01*
X1054721Y64238D01*
X1054619Y64222D01*
X1054602Y64212D01*
X1054582Y64208D01*
X1054493Y64155D01*
X1054402Y64106D01*
X1054388Y64092D01*
X1054371Y64082D01*
X1054304Y64003D01*
X1054233Y63928D01*
X1054224Y63910D01*
X1054211Y63895D01*
X1054173Y63799D01*
X1054129Y63705D01*
X1054127Y63685D01*
X1054119Y63667D01*
X1054101Y63500D01*
X1054101Y63499D01*
X1054099Y63499D01*
X1054099Y63500D01*
X1054096Y63520D01*
X1054098Y63539D01*
X1054076Y63641D01*
X1054059Y63743D01*
X1054050Y63760D01*
X1054046Y63780D01*
X1053993Y63869D01*
X1053944Y63960D01*
X1053930Y63974D01*
X1053920Y63991D01*
X1053841Y64058D01*
X1053766Y64130D01*
X1053748Y64138D01*
X1053733Y64151D01*
X1053637Y64190D01*
X1053543Y64233D01*
X1053523Y64235D01*
X1053505Y64243D01*
X1053338Y64261D01*
X1029015Y64261D01*
X998248Y95028D01*
X998174Y95081D01*
X998105Y95141D01*
X998075Y95153D01*
X998049Y95172D01*
X997962Y95199D01*
X997877Y95233D01*
X997836Y95237D01*
X997813Y95244D01*
X997781Y95243D01*
X997710Y95251D01*
X954790Y95251D01*
X954700Y95237D01*
X954609Y95229D01*
X954579Y95217D01*
X954547Y95212D01*
X954467Y95169D01*
X954383Y95133D01*
X954351Y95107D01*
X954330Y95096D01*
X954308Y95073D01*
X954252Y95028D01*
X948854Y89630D01*
X948801Y89556D01*
X948741Y89487D01*
X948729Y89457D01*
X948710Y89431D01*
X948683Y89344D01*
X948649Y89259D01*
X948645Y89218D01*
X948638Y89195D01*
X948639Y89163D01*
X948631Y89092D01*
X948631Y83313D01*
X942852Y83313D01*
X942832Y83310D01*
X942813Y83312D01*
X942711Y83290D01*
X942609Y83273D01*
X942592Y83264D01*
X942572Y83260D01*
X942483Y83207D01*
X942392Y83158D01*
X942378Y83144D01*
X942361Y83134D01*
X942294Y83055D01*
X942223Y82980D01*
X942214Y82962D01*
X942201Y82947D01*
X942162Y82851D01*
X942119Y82757D01*
X942117Y82737D01*
X942109Y82719D01*
X942091Y82552D01*
X942091Y81789D01*
X942090Y81789D01*
X942070Y81786D01*
X942051Y81788D01*
X941949Y81766D01*
X941847Y81749D01*
X941830Y81740D01*
X941810Y81736D01*
X941721Y81683D01*
X941630Y81634D01*
X941616Y81620D01*
X941599Y81610D01*
X941532Y81531D01*
X941461Y81456D01*
X941452Y81438D01*
X941439Y81423D01*
X941400Y81327D01*
X941357Y81233D01*
X941355Y81213D01*
X941347Y81195D01*
X941329Y81028D01*
X941329Y61210D01*
X941344Y61120D01*
X941351Y61029D01*
X941363Y60999D01*
X941369Y60967D01*
X941411Y60887D01*
X941447Y60803D01*
X941473Y60771D01*
X941484Y60750D01*
X941507Y60728D01*
X941552Y60672D01*
X951962Y50262D01*
X952036Y50209D01*
X952105Y50149D01*
X952135Y50137D01*
X952161Y50118D01*
X952248Y50091D01*
X952333Y50057D01*
X952374Y50053D01*
X952397Y50046D01*
X952429Y50047D01*
X952500Y50039D01*
X990285Y50039D01*
X1015462Y24862D01*
X1015536Y24809D01*
X1015605Y24749D01*
X1015635Y24737D01*
X1015661Y24718D01*
X1015748Y24691D01*
X1015833Y24657D01*
X1015874Y24653D01*
X1015897Y24646D01*
X1015929Y24647D01*
X1016000Y24639D01*
X1206500Y24639D01*
X1206590Y24654D01*
G37*
G36*
X177890Y50054D02*
X177890Y50054D01*
X177981Y50061D01*
X178011Y50073D01*
X178043Y50079D01*
X178123Y50121D01*
X178207Y50157D01*
X178239Y50183D01*
X178260Y50194D01*
X178282Y50217D01*
X178338Y50262D01*
X254538Y126462D01*
X254550Y126478D01*
X254565Y126490D01*
X254622Y126578D01*
X254682Y126661D01*
X254688Y126680D01*
X254698Y126697D01*
X254724Y126798D01*
X254754Y126897D01*
X254754Y126916D01*
X254759Y126936D01*
X254751Y127039D01*
X254748Y127142D01*
X254741Y127161D01*
X254739Y127181D01*
X254699Y127276D01*
X254663Y127373D01*
X254651Y127389D01*
X254643Y127407D01*
X254538Y127538D01*
X250205Y131871D01*
X250189Y131883D01*
X250177Y131899D01*
X250089Y131955D01*
X250005Y132015D01*
X249986Y132021D01*
X249970Y132032D01*
X249869Y132057D01*
X249770Y132087D01*
X249750Y132087D01*
X249731Y132092D01*
X249628Y132084D01*
X249524Y132081D01*
X249506Y132074D01*
X249486Y132073D01*
X249391Y132032D01*
X249293Y131996D01*
X249278Y131984D01*
X249260Y131976D01*
X249129Y131871D01*
X248892Y131635D01*
X248313Y131300D01*
X247666Y131127D01*
X242823Y131127D01*
X242823Y138938D01*
X242820Y138958D01*
X242822Y138977D01*
X242800Y139079D01*
X242783Y139181D01*
X242774Y139198D01*
X242770Y139218D01*
X242717Y139307D01*
X242668Y139398D01*
X242654Y139412D01*
X242644Y139429D01*
X242565Y139496D01*
X242490Y139567D01*
X242472Y139576D01*
X242457Y139589D01*
X242361Y139627D01*
X242267Y139671D01*
X242247Y139673D01*
X242229Y139681D01*
X242062Y139699D01*
X240538Y139699D01*
X240518Y139696D01*
X240499Y139698D01*
X240397Y139676D01*
X240295Y139659D01*
X240278Y139650D01*
X240258Y139646D01*
X240169Y139593D01*
X240078Y139544D01*
X240064Y139530D01*
X240047Y139520D01*
X239980Y139441D01*
X239909Y139366D01*
X239900Y139348D01*
X239887Y139333D01*
X239848Y139237D01*
X239805Y139143D01*
X239803Y139123D01*
X239795Y139105D01*
X239777Y138938D01*
X239777Y131127D01*
X234934Y131127D01*
X234287Y131300D01*
X233708Y131635D01*
X233471Y131871D01*
X233455Y131883D01*
X233443Y131899D01*
X233355Y131955D01*
X233272Y132015D01*
X233253Y132021D01*
X233236Y132032D01*
X233135Y132057D01*
X233037Y132087D01*
X233017Y132087D01*
X232997Y132092D01*
X232894Y132084D01*
X232791Y132081D01*
X232772Y132074D01*
X232752Y132073D01*
X232657Y132032D01*
X232560Y131997D01*
X232544Y131984D01*
X232526Y131976D01*
X232395Y131871D01*
X164785Y64261D01*
X140015Y64261D01*
X122022Y82254D01*
X122006Y82266D01*
X121994Y82281D01*
X121906Y82337D01*
X121823Y82398D01*
X121804Y82403D01*
X121787Y82414D01*
X121686Y82440D01*
X121588Y82470D01*
X121568Y82469D01*
X121548Y82474D01*
X121445Y82466D01*
X121342Y82464D01*
X121323Y82457D01*
X121303Y82455D01*
X121208Y82415D01*
X121111Y82379D01*
X121095Y82367D01*
X121077Y82359D01*
X120946Y82254D01*
X118193Y79501D01*
X115823Y79501D01*
X115823Y88138D01*
X115820Y88158D01*
X115822Y88177D01*
X115800Y88279D01*
X115783Y88381D01*
X115774Y88398D01*
X115770Y88418D01*
X115717Y88507D01*
X115668Y88598D01*
X115654Y88612D01*
X115644Y88629D01*
X115565Y88696D01*
X115490Y88767D01*
X115472Y88776D01*
X115457Y88789D01*
X115361Y88827D01*
X115267Y88871D01*
X115247Y88873D01*
X115229Y88881D01*
X115062Y88899D01*
X113538Y88899D01*
X113518Y88896D01*
X113499Y88898D01*
X113397Y88876D01*
X113295Y88859D01*
X113278Y88850D01*
X113258Y88846D01*
X113169Y88793D01*
X113078Y88744D01*
X113064Y88730D01*
X113047Y88720D01*
X112980Y88641D01*
X112909Y88566D01*
X112900Y88548D01*
X112887Y88533D01*
X112848Y88437D01*
X112805Y88343D01*
X112803Y88323D01*
X112795Y88305D01*
X112777Y88138D01*
X112777Y79501D01*
X110407Y79501D01*
X107654Y82254D01*
X107638Y82266D01*
X107625Y82281D01*
X107538Y82337D01*
X107454Y82398D01*
X107435Y82403D01*
X107419Y82414D01*
X107318Y82440D01*
X107219Y82470D01*
X107199Y82469D01*
X107180Y82474D01*
X107077Y82466D01*
X106973Y82464D01*
X106955Y82457D01*
X106935Y82455D01*
X106840Y82415D01*
X106742Y82379D01*
X106727Y82367D01*
X106709Y82359D01*
X106578Y82254D01*
X101062Y76738D01*
X101050Y76722D01*
X101035Y76710D01*
X100978Y76622D01*
X100918Y76539D01*
X100912Y76520D01*
X100902Y76503D01*
X100876Y76402D01*
X100846Y76303D01*
X100846Y76284D01*
X100841Y76264D01*
X100850Y76161D01*
X100852Y76058D01*
X100859Y76039D01*
X100861Y76019D01*
X100901Y75924D01*
X100937Y75827D01*
X100949Y75811D01*
X100957Y75793D01*
X101062Y75662D01*
X126462Y50262D01*
X126536Y50209D01*
X126605Y50149D01*
X126635Y50137D01*
X126661Y50118D01*
X126748Y50091D01*
X126833Y50057D01*
X126874Y50053D01*
X126897Y50046D01*
X126929Y50047D01*
X127000Y50039D01*
X177800Y50039D01*
X177890Y50054D01*
G37*
G36*
X927882Y111004D02*
X927882Y111004D01*
X927901Y111002D01*
X928003Y111024D01*
X928105Y111041D01*
X928122Y111050D01*
X928142Y111054D01*
X928231Y111107D01*
X928322Y111156D01*
X928336Y111170D01*
X928353Y111180D01*
X928420Y111259D01*
X928491Y111334D01*
X928500Y111352D01*
X928513Y111367D01*
X928552Y111463D01*
X928595Y111557D01*
X928597Y111577D01*
X928605Y111595D01*
X928623Y111762D01*
X928623Y131791D01*
X930440Y131791D01*
X932019Y131541D01*
X933540Y131046D01*
X934965Y130320D01*
X936259Y129380D01*
X937390Y128249D01*
X938330Y126955D01*
X939056Y125530D01*
X939076Y125470D01*
X939078Y125466D01*
X939079Y125462D01*
X939134Y125358D01*
X939189Y125251D01*
X939192Y125248D01*
X939194Y125245D01*
X939280Y125163D01*
X939365Y125080D01*
X939369Y125078D01*
X939372Y125075D01*
X939480Y125025D01*
X939587Y124974D01*
X939591Y124974D01*
X939595Y124972D01*
X939713Y124959D01*
X939832Y124944D01*
X939836Y124945D01*
X939839Y124945D01*
X939957Y124970D01*
X940072Y124994D01*
X940076Y124996D01*
X940080Y124997D01*
X940182Y125058D01*
X940285Y125118D01*
X940288Y125121D01*
X940291Y125123D01*
X940368Y125214D01*
X940447Y125303D01*
X940448Y125307D01*
X940451Y125310D01*
X940496Y125422D01*
X940541Y125531D01*
X940541Y125535D01*
X940543Y125538D01*
X940561Y125705D01*
X940561Y139700D01*
X940547Y139790D01*
X940539Y139881D01*
X940527Y139911D01*
X940522Y139943D01*
X940479Y140023D01*
X940443Y140107D01*
X940417Y140140D01*
X940406Y140160D01*
X940383Y140182D01*
X940338Y140238D01*
X936617Y143960D01*
X936579Y143987D01*
X936548Y144021D01*
X936480Y144058D01*
X936417Y144103D01*
X936373Y144117D01*
X936333Y144139D01*
X936256Y144153D01*
X936182Y144176D01*
X936136Y144175D01*
X936091Y144183D01*
X936014Y144171D01*
X935936Y144169D01*
X935893Y144154D01*
X935847Y144147D01*
X935778Y144112D01*
X935705Y144085D01*
X935669Y144056D01*
X935628Y144036D01*
X935574Y143980D01*
X935513Y143931D01*
X935488Y143893D01*
X935456Y143860D01*
X935390Y143740D01*
X935380Y143724D01*
X935379Y143720D01*
X935375Y143713D01*
X934754Y142213D01*
X933809Y140798D01*
X932606Y139595D01*
X931191Y138650D01*
X929619Y137999D01*
X928623Y137801D01*
X928623Y151638D01*
X928620Y151658D01*
X928622Y151677D01*
X928600Y151779D01*
X928583Y151881D01*
X928574Y151898D01*
X928570Y151918D01*
X928517Y152007D01*
X928468Y152098D01*
X928454Y152112D01*
X928444Y152129D01*
X928365Y152196D01*
X928290Y152267D01*
X928272Y152276D01*
X928257Y152289D01*
X928161Y152327D01*
X928067Y152371D01*
X928047Y152373D01*
X928029Y152381D01*
X927862Y152399D01*
X926338Y152399D01*
X926318Y152396D01*
X926299Y152398D01*
X926197Y152376D01*
X926095Y152359D01*
X926078Y152350D01*
X926058Y152346D01*
X925969Y152293D01*
X925878Y152244D01*
X925864Y152230D01*
X925847Y152220D01*
X925780Y152141D01*
X925709Y152066D01*
X925700Y152048D01*
X925687Y152033D01*
X925648Y151937D01*
X925605Y151843D01*
X925603Y151823D01*
X925595Y151805D01*
X925577Y151638D01*
X925577Y137801D01*
X924581Y137999D01*
X923009Y138650D01*
X921594Y139595D01*
X920391Y140798D01*
X919446Y142213D01*
X918825Y143713D01*
X918801Y143752D01*
X918785Y143795D01*
X918736Y143856D01*
X918695Y143922D01*
X918660Y143951D01*
X918631Y143987D01*
X918566Y144029D01*
X918506Y144079D01*
X918463Y144095D01*
X918424Y144120D01*
X918349Y144139D01*
X918276Y144167D01*
X918230Y144169D01*
X918186Y144180D01*
X918108Y144174D01*
X918031Y144177D01*
X917986Y144165D01*
X917941Y144161D01*
X917869Y144131D01*
X917794Y144109D01*
X917757Y144083D01*
X917714Y144065D01*
X917608Y143979D01*
X917592Y143969D01*
X917589Y143965D01*
X917583Y143960D01*
X913862Y140238D01*
X913809Y140164D01*
X913749Y140095D01*
X913737Y140065D01*
X913718Y140039D01*
X913691Y139952D01*
X913657Y139867D01*
X913653Y139826D01*
X913646Y139803D01*
X913647Y139771D01*
X913639Y139700D01*
X913639Y125705D01*
X913639Y125701D01*
X913639Y125697D01*
X913660Y125578D01*
X913679Y125462D01*
X913680Y125459D01*
X913681Y125455D01*
X913738Y125349D01*
X913794Y125245D01*
X913797Y125242D01*
X913798Y125238D01*
X913886Y125157D01*
X913972Y125075D01*
X913976Y125074D01*
X913979Y125071D01*
X914087Y125022D01*
X914195Y124972D01*
X914199Y124971D01*
X914203Y124970D01*
X914321Y124958D01*
X914439Y124945D01*
X914444Y124946D01*
X914448Y124945D01*
X914562Y124971D01*
X914680Y124997D01*
X914683Y124999D01*
X914687Y125000D01*
X914788Y125062D01*
X914891Y125123D01*
X914894Y125126D01*
X914897Y125128D01*
X914973Y125220D01*
X915051Y125310D01*
X915052Y125314D01*
X915055Y125317D01*
X915124Y125470D01*
X915144Y125531D01*
X915870Y126955D01*
X916810Y128249D01*
X917941Y129380D01*
X919235Y130320D01*
X920660Y131046D01*
X922181Y131541D01*
X923760Y131791D01*
X925577Y131791D01*
X925577Y111762D01*
X925580Y111742D01*
X925578Y111723D01*
X925600Y111621D01*
X925617Y111519D01*
X925626Y111502D01*
X925630Y111482D01*
X925683Y111393D01*
X925732Y111302D01*
X925746Y111288D01*
X925756Y111271D01*
X925835Y111204D01*
X925910Y111133D01*
X925928Y111124D01*
X925943Y111111D01*
X926039Y111072D01*
X926133Y111029D01*
X926153Y111027D01*
X926171Y111019D01*
X926338Y111001D01*
X927862Y111001D01*
X927882Y111004D01*
G37*
G36*
X1207282Y111004D02*
X1207282Y111004D01*
X1207301Y111002D01*
X1207403Y111024D01*
X1207505Y111041D01*
X1207522Y111050D01*
X1207542Y111054D01*
X1207631Y111107D01*
X1207722Y111156D01*
X1207736Y111170D01*
X1207753Y111180D01*
X1207820Y111259D01*
X1207891Y111334D01*
X1207900Y111352D01*
X1207913Y111367D01*
X1207952Y111463D01*
X1207995Y111557D01*
X1207997Y111577D01*
X1208005Y111595D01*
X1208023Y111762D01*
X1208023Y131791D01*
X1209840Y131791D01*
X1211419Y131541D01*
X1212940Y131046D01*
X1214365Y130320D01*
X1215659Y129380D01*
X1216790Y128249D01*
X1217730Y126955D01*
X1218456Y125530D01*
X1218476Y125470D01*
X1218478Y125466D01*
X1218479Y125462D01*
X1218534Y125358D01*
X1218589Y125251D01*
X1218592Y125248D01*
X1218594Y125245D01*
X1218680Y125163D01*
X1218765Y125080D01*
X1218769Y125078D01*
X1218772Y125075D01*
X1218880Y125025D01*
X1218987Y124974D01*
X1218991Y124974D01*
X1218995Y124972D01*
X1219113Y124959D01*
X1219232Y124944D01*
X1219236Y124945D01*
X1219239Y124945D01*
X1219357Y124970D01*
X1219472Y124994D01*
X1219476Y124996D01*
X1219480Y124997D01*
X1219582Y125058D01*
X1219685Y125118D01*
X1219688Y125121D01*
X1219691Y125123D01*
X1219768Y125214D01*
X1219847Y125303D01*
X1219848Y125307D01*
X1219851Y125310D01*
X1219896Y125422D01*
X1219941Y125531D01*
X1219941Y125535D01*
X1219943Y125538D01*
X1219961Y125705D01*
X1219961Y139700D01*
X1219947Y139790D01*
X1219939Y139881D01*
X1219927Y139911D01*
X1219922Y139943D01*
X1219879Y140023D01*
X1219843Y140107D01*
X1219817Y140140D01*
X1219806Y140160D01*
X1219783Y140182D01*
X1219738Y140238D01*
X1216017Y143960D01*
X1215979Y143987D01*
X1215948Y144020D01*
X1215880Y144058D01*
X1215817Y144103D01*
X1215773Y144117D01*
X1215733Y144139D01*
X1215656Y144153D01*
X1215582Y144176D01*
X1215536Y144175D01*
X1215491Y144183D01*
X1215414Y144171D01*
X1215336Y144169D01*
X1215293Y144154D01*
X1215247Y144147D01*
X1215178Y144112D01*
X1215105Y144085D01*
X1215069Y144056D01*
X1215028Y144035D01*
X1214974Y143980D01*
X1214913Y143931D01*
X1214888Y143893D01*
X1214856Y143860D01*
X1214790Y143740D01*
X1214780Y143724D01*
X1214779Y143720D01*
X1214775Y143713D01*
X1214154Y142213D01*
X1213209Y140798D01*
X1212006Y139595D01*
X1210591Y138650D01*
X1209019Y137999D01*
X1208023Y137801D01*
X1208023Y151638D01*
X1208020Y151658D01*
X1208022Y151677D01*
X1208000Y151779D01*
X1207983Y151881D01*
X1207974Y151898D01*
X1207970Y151918D01*
X1207917Y152007D01*
X1207868Y152098D01*
X1207854Y152112D01*
X1207844Y152129D01*
X1207765Y152196D01*
X1207690Y152267D01*
X1207672Y152276D01*
X1207657Y152289D01*
X1207561Y152327D01*
X1207467Y152371D01*
X1207447Y152373D01*
X1207429Y152381D01*
X1207262Y152399D01*
X1205738Y152399D01*
X1205718Y152396D01*
X1205699Y152398D01*
X1205597Y152376D01*
X1205495Y152359D01*
X1205478Y152350D01*
X1205458Y152346D01*
X1205369Y152293D01*
X1205278Y152244D01*
X1205264Y152230D01*
X1205247Y152220D01*
X1205180Y152141D01*
X1205109Y152066D01*
X1205100Y152048D01*
X1205087Y152033D01*
X1205048Y151937D01*
X1205005Y151843D01*
X1205003Y151823D01*
X1204995Y151805D01*
X1204977Y151638D01*
X1204977Y137801D01*
X1203981Y137999D01*
X1202409Y138650D01*
X1200994Y139595D01*
X1199791Y140798D01*
X1198846Y142213D01*
X1198225Y143713D01*
X1198201Y143752D01*
X1198185Y143795D01*
X1198136Y143856D01*
X1198095Y143922D01*
X1198060Y143951D01*
X1198031Y143987D01*
X1197966Y144029D01*
X1197906Y144079D01*
X1197863Y144095D01*
X1197824Y144120D01*
X1197749Y144139D01*
X1197676Y144167D01*
X1197630Y144169D01*
X1197586Y144180D01*
X1197508Y144174D01*
X1197430Y144177D01*
X1197386Y144165D01*
X1197341Y144161D01*
X1197269Y144131D01*
X1197194Y144109D01*
X1197156Y144083D01*
X1197114Y144065D01*
X1197008Y143979D01*
X1196992Y143969D01*
X1196989Y143965D01*
X1196983Y143960D01*
X1193262Y140238D01*
X1193209Y140164D01*
X1193149Y140095D01*
X1193137Y140065D01*
X1193118Y140039D01*
X1193091Y139952D01*
X1193057Y139867D01*
X1193053Y139826D01*
X1193046Y139803D01*
X1193047Y139771D01*
X1193039Y139700D01*
X1193039Y125705D01*
X1193039Y125701D01*
X1193039Y125697D01*
X1193059Y125579D01*
X1193079Y125462D01*
X1193080Y125459D01*
X1193081Y125455D01*
X1193138Y125350D01*
X1193194Y125245D01*
X1193196Y125242D01*
X1193198Y125239D01*
X1193286Y125157D01*
X1193372Y125076D01*
X1193376Y125074D01*
X1193379Y125071D01*
X1193487Y125022D01*
X1193595Y124972D01*
X1193599Y124971D01*
X1193603Y124970D01*
X1193723Y124958D01*
X1193839Y124945D01*
X1193843Y124946D01*
X1193847Y124945D01*
X1193964Y124972D01*
X1194080Y124997D01*
X1194083Y124999D01*
X1194087Y125000D01*
X1194188Y125062D01*
X1194291Y125123D01*
X1194294Y125126D01*
X1194297Y125128D01*
X1194374Y125220D01*
X1194451Y125310D01*
X1194452Y125314D01*
X1194455Y125317D01*
X1194524Y125470D01*
X1194544Y125530D01*
X1195270Y126955D01*
X1196210Y128249D01*
X1197341Y129380D01*
X1198635Y130320D01*
X1200060Y131046D01*
X1201581Y131541D01*
X1203160Y131791D01*
X1204977Y131791D01*
X1204977Y111762D01*
X1204980Y111742D01*
X1204978Y111723D01*
X1205000Y111621D01*
X1205017Y111519D01*
X1205026Y111502D01*
X1205030Y111482D01*
X1205083Y111393D01*
X1205132Y111302D01*
X1205146Y111288D01*
X1205156Y111271D01*
X1205235Y111204D01*
X1205310Y111133D01*
X1205328Y111124D01*
X1205343Y111111D01*
X1205439Y111072D01*
X1205533Y111029D01*
X1205553Y111027D01*
X1205571Y111019D01*
X1205738Y111001D01*
X1207262Y111001D01*
X1207282Y111004D01*
G37*
%LPC*%
G36*
X1131823Y268223D02*
X1131823Y268223D01*
X1131823Y284366D01*
X1132679Y284231D01*
X1134200Y283736D01*
X1135625Y283010D01*
X1136919Y282070D01*
X1138050Y280939D01*
X1138990Y279645D01*
X1139716Y278220D01*
X1140211Y276699D01*
X1140461Y275120D01*
X1140461Y268223D01*
X1131823Y268223D01*
G37*
%LPD*%
%LPC*%
G36*
X1131823Y315977D02*
X1131823Y315977D01*
X1140461Y315977D01*
X1140461Y309080D01*
X1140211Y307501D01*
X1139716Y305980D01*
X1138990Y304555D01*
X1138050Y303261D01*
X1136919Y302130D01*
X1135625Y301190D01*
X1134200Y300464D01*
X1132679Y299969D01*
X1131823Y299834D01*
X1131823Y315977D01*
G37*
%LPD*%
%LPC*%
G36*
X928623Y230123D02*
X928623Y230123D01*
X928623Y243199D01*
X929619Y243001D01*
X931191Y242350D01*
X932606Y241405D01*
X933809Y240202D01*
X934754Y238787D01*
X935405Y237215D01*
X935737Y235547D01*
X935737Y230123D01*
X928623Y230123D01*
G37*
%LPD*%
%LPC*%
G36*
X1208023Y230123D02*
X1208023Y230123D01*
X1208023Y243199D01*
X1209019Y243001D01*
X1210591Y242350D01*
X1212006Y241405D01*
X1213209Y240202D01*
X1214154Y238787D01*
X1214805Y237215D01*
X1215137Y235547D01*
X1215137Y230123D01*
X1208023Y230123D01*
G37*
%LPD*%
%LPC*%
G36*
X1208023Y227077D02*
X1208023Y227077D01*
X1215137Y227077D01*
X1215137Y221653D01*
X1214805Y219985D01*
X1214154Y218413D01*
X1213209Y216998D01*
X1212006Y215795D01*
X1210591Y214850D01*
X1209019Y214199D01*
X1208023Y214001D01*
X1208023Y227077D01*
G37*
%LPD*%
G36*
X1206539Y88150D02*
X1206539Y88150D01*
X1206642Y88152D01*
X1206661Y88159D01*
X1206681Y88161D01*
X1206776Y88201D01*
X1206873Y88237D01*
X1206889Y88249D01*
X1206907Y88257D01*
X1207038Y88362D01*
X1207800Y89124D01*
X1207842Y89182D01*
X1207891Y89233D01*
X1207899Y89251D01*
X1207913Y89267D01*
X1207925Y89297D01*
X1207944Y89323D01*
X1207965Y89394D01*
X1207994Y89456D01*
X1207996Y89475D01*
X1208005Y89495D01*
X1208009Y89536D01*
X1208016Y89558D01*
X1208015Y89591D01*
X1208023Y89662D01*
X1208023Y110238D01*
X1208021Y110248D01*
X1208022Y110254D01*
X1208020Y110262D01*
X1208022Y110277D01*
X1208000Y110379D01*
X1207983Y110481D01*
X1207974Y110498D01*
X1207970Y110518D01*
X1207917Y110607D01*
X1207868Y110698D01*
X1207854Y110712D01*
X1207844Y110729D01*
X1207765Y110796D01*
X1207690Y110867D01*
X1207672Y110876D01*
X1207657Y110889D01*
X1207561Y110928D01*
X1207467Y110971D01*
X1207447Y110973D01*
X1207429Y110981D01*
X1207262Y110999D01*
X1205738Y110999D01*
X1205718Y110996D01*
X1205699Y110998D01*
X1205597Y110976D01*
X1205495Y110959D01*
X1205478Y110950D01*
X1205458Y110946D01*
X1205369Y110893D01*
X1205278Y110844D01*
X1205264Y110830D01*
X1205247Y110820D01*
X1205180Y110741D01*
X1205109Y110666D01*
X1205100Y110648D01*
X1205087Y110633D01*
X1205048Y110537D01*
X1205005Y110443D01*
X1205003Y110423D01*
X1204995Y110405D01*
X1204977Y110238D01*
X1204977Y89662D01*
X1204980Y89639D01*
X1204979Y89622D01*
X1204993Y89556D01*
X1204999Y89481D01*
X1205011Y89451D01*
X1205017Y89419D01*
X1205027Y89400D01*
X1205031Y89381D01*
X1205066Y89322D01*
X1205095Y89255D01*
X1205121Y89222D01*
X1205132Y89202D01*
X1205147Y89187D01*
X1205157Y89170D01*
X1205174Y89156D01*
X1205200Y89124D01*
X1205962Y88362D01*
X1205978Y88350D01*
X1205990Y88335D01*
X1206077Y88279D01*
X1206161Y88218D01*
X1206181Y88212D01*
X1206197Y88202D01*
X1206298Y88176D01*
X1206397Y88146D01*
X1206416Y88146D01*
X1206436Y88141D01*
X1206539Y88150D01*
G37*
G36*
X927139Y88150D02*
X927139Y88150D01*
X927242Y88152D01*
X927261Y88159D01*
X927281Y88161D01*
X927376Y88201D01*
X927473Y88237D01*
X927489Y88249D01*
X927507Y88257D01*
X927638Y88362D01*
X928400Y89124D01*
X928442Y89182D01*
X928491Y89233D01*
X928499Y89251D01*
X928513Y89267D01*
X928525Y89297D01*
X928544Y89323D01*
X928565Y89394D01*
X928594Y89456D01*
X928596Y89475D01*
X928605Y89495D01*
X928609Y89536D01*
X928616Y89558D01*
X928615Y89591D01*
X928623Y89662D01*
X928623Y110238D01*
X928621Y110248D01*
X928622Y110254D01*
X928620Y110262D01*
X928622Y110277D01*
X928600Y110379D01*
X928583Y110481D01*
X928574Y110498D01*
X928570Y110518D01*
X928517Y110607D01*
X928468Y110698D01*
X928454Y110712D01*
X928444Y110729D01*
X928365Y110796D01*
X928290Y110867D01*
X928272Y110876D01*
X928257Y110889D01*
X928161Y110928D01*
X928067Y110971D01*
X928047Y110973D01*
X928029Y110981D01*
X927862Y110999D01*
X926338Y110999D01*
X926318Y110996D01*
X926299Y110998D01*
X926197Y110976D01*
X926095Y110959D01*
X926078Y110950D01*
X926058Y110946D01*
X925969Y110893D01*
X925878Y110844D01*
X925864Y110830D01*
X925847Y110820D01*
X925780Y110741D01*
X925709Y110666D01*
X925700Y110648D01*
X925687Y110633D01*
X925648Y110537D01*
X925605Y110443D01*
X925603Y110423D01*
X925595Y110405D01*
X925577Y110238D01*
X925577Y89662D01*
X925580Y89639D01*
X925579Y89622D01*
X925593Y89556D01*
X925599Y89481D01*
X925611Y89451D01*
X925617Y89419D01*
X925627Y89400D01*
X925631Y89381D01*
X925666Y89322D01*
X925695Y89255D01*
X925721Y89222D01*
X925732Y89202D01*
X925747Y89187D01*
X925757Y89170D01*
X925774Y89156D01*
X925800Y89124D01*
X926562Y88362D01*
X926578Y88350D01*
X926590Y88335D01*
X926677Y88279D01*
X926761Y88218D01*
X926781Y88212D01*
X926797Y88202D01*
X926898Y88176D01*
X926997Y88146D01*
X927016Y88146D01*
X927036Y88141D01*
X927139Y88150D01*
G37*
%LPC*%
G36*
X573023Y103123D02*
X573023Y103123D01*
X573023Y111761D01*
X575709Y111761D01*
X581661Y105809D01*
X581661Y103123D01*
X573023Y103123D01*
G37*
%LPD*%
%LPC*%
G36*
X561339Y103123D02*
X561339Y103123D01*
X561339Y105809D01*
X567291Y111761D01*
X569977Y111761D01*
X569977Y103123D01*
X561339Y103123D01*
G37*
%LPD*%
%LPC*%
G36*
X1055623Y53339D02*
X1055623Y53339D01*
X1055623Y61977D01*
X1064261Y61977D01*
X1064261Y59291D01*
X1058309Y53339D01*
X1055623Y53339D01*
G37*
%LPD*%
%LPC*%
G36*
X573023Y91439D02*
X573023Y91439D01*
X573023Y100077D01*
X581661Y100077D01*
X581661Y97391D01*
X575709Y91439D01*
X573023Y91439D01*
G37*
%LPD*%
%LPC*%
G36*
X954023Y243839D02*
X954023Y243839D01*
X954023Y252477D01*
X962661Y252477D01*
X962661Y249791D01*
X956709Y243839D01*
X954023Y243839D01*
G37*
%LPD*%
%LPC*%
G36*
X1049891Y53339D02*
X1049891Y53339D01*
X1043939Y59291D01*
X1043939Y61977D01*
X1052577Y61977D01*
X1052577Y53339D01*
X1049891Y53339D01*
G37*
%LPD*%
%LPC*%
G36*
X948291Y243839D02*
X948291Y243839D01*
X942339Y249791D01*
X942339Y252477D01*
X950977Y252477D01*
X950977Y243839D01*
X948291Y243839D01*
G37*
%LPD*%
%LPC*%
G36*
X567291Y91439D02*
X567291Y91439D01*
X561339Y97391D01*
X561339Y100077D01*
X569977Y100077D01*
X569977Y91439D01*
X567291Y91439D01*
G37*
%LPD*%
%LPC*%
G36*
X59607Y79501D02*
X59607Y79501D01*
X54101Y85007D01*
X54101Y87377D01*
X61977Y87377D01*
X61977Y79501D01*
X59607Y79501D01*
G37*
%LPD*%
%LPC*%
G36*
X943613Y72249D02*
X943613Y72249D01*
X943613Y80267D01*
X948631Y80267D01*
X948631Y74456D01*
X948458Y73809D01*
X948123Y73230D01*
X947650Y72757D01*
X947071Y72422D01*
X946424Y72249D01*
X943613Y72249D01*
G37*
%LPD*%
%LPC*%
G36*
X382523Y86223D02*
X382523Y86223D01*
X382523Y92741D01*
X386335Y92741D01*
X386981Y92568D01*
X387560Y92233D01*
X388033Y91760D01*
X388368Y91181D01*
X388541Y90534D01*
X388541Y86223D01*
X382523Y86223D01*
G37*
%LPD*%
%LPC*%
G36*
X357123Y86223D02*
X357123Y86223D01*
X357123Y92741D01*
X360935Y92741D01*
X361581Y92568D01*
X362160Y92233D01*
X362633Y91760D01*
X362968Y91181D01*
X363141Y90534D01*
X363141Y86223D01*
X357123Y86223D01*
G37*
%LPD*%
%LPC*%
G36*
X319023Y86223D02*
X319023Y86223D01*
X319023Y92741D01*
X322835Y92741D01*
X323481Y92568D01*
X324060Y92233D01*
X324533Y91760D01*
X324868Y91181D01*
X325041Y90534D01*
X325041Y86223D01*
X319023Y86223D01*
G37*
%LPD*%
%LPC*%
G36*
X420623Y86223D02*
X420623Y86223D01*
X420623Y92741D01*
X424435Y92741D01*
X425081Y92568D01*
X425660Y92233D01*
X426133Y91760D01*
X426468Y91181D01*
X426641Y90534D01*
X426641Y86223D01*
X420623Y86223D01*
G37*
%LPD*%
%LPC*%
G36*
X954023Y200523D02*
X954023Y200523D01*
X954023Y207041D01*
X957835Y207041D01*
X958481Y206868D01*
X959060Y206533D01*
X959533Y206060D01*
X959868Y205481D01*
X960041Y204834D01*
X960041Y200523D01*
X954023Y200523D01*
G37*
%LPD*%
%LPC*%
G36*
X309959Y86223D02*
X309959Y86223D01*
X309959Y90534D01*
X310132Y91181D01*
X310467Y91760D01*
X310940Y92233D01*
X311519Y92568D01*
X312166Y92741D01*
X315977Y92741D01*
X315977Y86223D01*
X309959Y86223D01*
G37*
%LPD*%
%LPC*%
G36*
X348059Y86223D02*
X348059Y86223D01*
X348059Y90534D01*
X348232Y91181D01*
X348567Y91760D01*
X349040Y92233D01*
X349619Y92568D01*
X350266Y92741D01*
X354077Y92741D01*
X354077Y86223D01*
X348059Y86223D01*
G37*
%LPD*%
%LPC*%
G36*
X373459Y86223D02*
X373459Y86223D01*
X373459Y90534D01*
X373632Y91181D01*
X373967Y91760D01*
X374440Y92233D01*
X375019Y92568D01*
X375666Y92741D01*
X379477Y92741D01*
X379477Y86223D01*
X373459Y86223D01*
G37*
%LPD*%
%LPC*%
G36*
X411559Y86223D02*
X411559Y86223D01*
X411559Y90534D01*
X411732Y91181D01*
X412067Y91760D01*
X412540Y92233D01*
X413119Y92568D01*
X413766Y92741D01*
X417577Y92741D01*
X417577Y86223D01*
X411559Y86223D01*
G37*
%LPD*%
%LPC*%
G36*
X573023Y138177D02*
X573023Y138177D01*
X579938Y138177D01*
X579743Y137199D01*
X579097Y135639D01*
X578159Y134235D01*
X576965Y133041D01*
X575561Y132103D01*
X574001Y131457D01*
X573023Y131262D01*
X573023Y138177D01*
G37*
%LPD*%
%LPC*%
G36*
X568999Y131457D02*
X568999Y131457D01*
X567439Y132103D01*
X566035Y133041D01*
X564841Y134235D01*
X563903Y135639D01*
X563257Y137199D01*
X563062Y138177D01*
X569977Y138177D01*
X569977Y131262D01*
X568999Y131457D01*
G37*
%LPD*%
%LPC*%
G36*
X571499Y139699D02*
X571499Y139699D01*
X571499Y139701D01*
X571501Y139701D01*
X571501Y139699D01*
X571499Y139699D01*
G37*
%LPD*%
%LPC*%
G36*
X571499Y101599D02*
X571499Y101599D01*
X571499Y101601D01*
X571501Y101601D01*
X571501Y101599D01*
X571499Y101599D01*
G37*
%LPD*%
D10*
X241300Y139700D03*
D11*
X266700Y139700D03*
X292100Y139700D03*
X317500Y139700D03*
X342900Y139700D03*
X368300Y139700D03*
X393700Y139700D03*
X419100Y139700D03*
X444500Y139700D03*
X469900Y139700D03*
X495300Y139700D03*
X520700Y139700D03*
X546100Y139700D03*
X571500Y139700D03*
X596900Y139700D03*
X596900Y292100D03*
X571500Y292100D03*
X546100Y292100D03*
X520700Y292100D03*
X495300Y292100D03*
X469900Y292100D03*
X444500Y292100D03*
X419100Y292100D03*
X393700Y292100D03*
X368300Y292100D03*
X342900Y292100D03*
X317500Y292100D03*
X292100Y292100D03*
X266700Y292100D03*
X241300Y292100D03*
D12*
X952500Y199000D03*
X952500Y182000D03*
X1231900Y199000D03*
X1231900Y182000D03*
D13*
X749300Y158496D02*
X749300Y146304D01*
X774700Y146304D02*
X774700Y158496D01*
X901700Y158496D02*
X901700Y146304D01*
X927100Y146304D02*
X927100Y158496D01*
X800100Y158496D02*
X800100Y146304D01*
X825500Y146304D02*
X825500Y158496D01*
X876300Y158496D02*
X876300Y146304D01*
X850900Y146304D02*
X850900Y158496D01*
X927100Y222504D02*
X927100Y234696D01*
X901700Y234696D02*
X901700Y222504D01*
X876300Y222504D02*
X876300Y234696D01*
X850900Y234696D02*
X850900Y222504D01*
X825500Y222504D02*
X825500Y234696D01*
X800100Y234696D02*
X800100Y222504D01*
X774700Y222504D02*
X774700Y234696D01*
X749300Y234696D02*
X749300Y222504D01*
X1028700Y158496D02*
X1028700Y146304D01*
X1054100Y146304D02*
X1054100Y158496D01*
X1181100Y158496D02*
X1181100Y146304D01*
X1206500Y146304D02*
X1206500Y158496D01*
X1079500Y158496D02*
X1079500Y146304D01*
X1104900Y146304D02*
X1104900Y158496D01*
X1155700Y158496D02*
X1155700Y146304D01*
X1130300Y146304D02*
X1130300Y158496D01*
X1206500Y222504D02*
X1206500Y234696D01*
X1181100Y234696D02*
X1181100Y222504D01*
X1155700Y222504D02*
X1155700Y234696D01*
X1130300Y234696D02*
X1130300Y222504D01*
X1104900Y222504D02*
X1104900Y234696D01*
X1079500Y234696D02*
X1079500Y222504D01*
X1054100Y222504D02*
X1054100Y234696D01*
X1028700Y234696D02*
X1028700Y222504D01*
D14*
X749300Y271780D02*
X749300Y287020D01*
X774700Y287020D02*
X774700Y271780D01*
X800100Y271780D02*
X800100Y287020D01*
X825500Y287020D02*
X825500Y271780D01*
X850900Y271780D02*
X850900Y287020D01*
X1028700Y309880D02*
X1028700Y325120D01*
X1054100Y325120D02*
X1054100Y309880D01*
X1079500Y309880D02*
X1079500Y325120D01*
X1104900Y325120D02*
X1104900Y309880D01*
X1130300Y309880D02*
X1130300Y325120D01*
X1028700Y274320D02*
X1028700Y259080D01*
X1054100Y259080D02*
X1054100Y274320D01*
X1079500Y274320D02*
X1079500Y259080D01*
X1104900Y259080D02*
X1104900Y274320D01*
X1130300Y274320D02*
X1130300Y259080D01*
D12*
X317500Y84700D03*
X317500Y67700D03*
D15*
X1191510Y81790D03*
X1221490Y81790D03*
D16*
X1206500Y84330D03*
D14*
X1209040Y100370D02*
X1203960Y100370D01*
X1203960Y121630D01*
X1209040Y121630D01*
X1209040Y100370D01*
X1209040Y114848D02*
X1203960Y114848D01*
D15*
X912110Y81790D03*
X942090Y81790D03*
D16*
X927100Y84330D03*
D14*
X929640Y100370D02*
X924560Y100370D01*
X924560Y121630D01*
X929640Y121630D01*
X929640Y100370D01*
X929640Y114848D02*
X924560Y114848D01*
D17*
X38100Y114300D03*
D18*
X38100Y88900D03*
X63500Y114300D03*
X63500Y88900D03*
X88900Y114300D03*
X88900Y88900D03*
X114300Y114300D03*
X114300Y88900D03*
X139700Y114300D03*
X139700Y88900D03*
D14*
X393700Y347980D02*
X393700Y363220D01*
X419100Y363220D02*
X419100Y347980D01*
X444500Y347980D02*
X444500Y363220D01*
X469900Y363220D02*
X469900Y347980D01*
X393700Y325120D02*
X393700Y309880D01*
X419100Y309880D02*
X419100Y325120D01*
X444500Y325120D02*
X444500Y309880D01*
X469900Y309880D02*
X469900Y325120D01*
X749300Y121920D02*
X749300Y106680D01*
X774700Y106680D02*
X774700Y121920D01*
X800100Y121920D02*
X800100Y106680D01*
X825500Y106680D02*
X825500Y121920D01*
X1028700Y121920D02*
X1028700Y106680D01*
X1054100Y106680D02*
X1054100Y121920D01*
X1079500Y121920D02*
X1079500Y106680D01*
X1104900Y106680D02*
X1104900Y121920D01*
D19*
X368300Y317500D03*
X342900Y317500D03*
X850900Y114300D03*
X1054100Y63500D03*
X533400Y63500D03*
X571500Y101600D03*
X1130300Y114300D03*
X952500Y254000D03*
D14*
X330200Y45720D02*
X330200Y30480D01*
X355600Y30480D02*
X355600Y45720D01*
X381000Y45720D02*
X381000Y30480D01*
X406400Y30480D02*
X406400Y45720D01*
D12*
X355600Y84700D03*
X355600Y67700D03*
X381000Y84700D03*
X381000Y67700D03*
X419100Y84700D03*
X419100Y67700D03*
D14*
X457200Y45720D02*
X457200Y30480D01*
X482600Y30480D02*
X482600Y45720D01*
X508000Y45720D02*
X508000Y30480D01*
X533400Y30480D02*
X533400Y45720D01*
D20*
X330200Y63500D03*
D21*
X321700Y63500D01*
X317500Y67700D01*
X1028700Y228600D02*
X1028700Y266700D01*
X1028700Y317500D01*
X1079500Y266700D02*
X1079500Y228600D01*
X1104900Y228600D02*
X1104900Y266700D01*
X1104900Y292100D01*
X1066800Y292100D01*
X1054100Y304800D01*
X1054100Y317500D01*
X749300Y279400D02*
X749300Y228600D01*
X774700Y228600D02*
X774700Y279400D01*
X800100Y279400D02*
X800100Y228600D01*
X825500Y228600D02*
X825500Y279400D01*
X165100Y215900D02*
X165100Y114300D01*
X165100Y215900D02*
X241300Y292100D01*
X165100Y114300D02*
X139700Y88900D01*
X190500Y215900D02*
X266700Y292100D01*
D20*
X190500Y215900D03*
X139700Y190500D03*
D21*
X114300Y165100D01*
X114300Y114300D01*
X190500Y190500D02*
X292100Y292100D01*
X190500Y190500D02*
X190500Y165100D01*
D20*
X190500Y165100D03*
X190500Y139700D03*
D21*
X317500Y266700D01*
X317500Y292100D01*
X469900Y317500D02*
X469900Y355600D01*
X469900Y317500D02*
X469900Y292100D01*
X444500Y292100D02*
X444500Y317500D01*
X444500Y355600D01*
X419100Y355600D02*
X419100Y317500D01*
X419100Y292100D01*
X393700Y292100D02*
X393700Y317500D01*
X393700Y355600D01*
X749300Y152400D02*
X749300Y114300D01*
X774700Y114300D02*
X774700Y152400D01*
X800100Y152400D02*
X800100Y114300D01*
X825500Y114300D02*
X825500Y152400D01*
X1028700Y152400D02*
X1028700Y114300D01*
X1054100Y114300D02*
X1054100Y152400D01*
X1079500Y152400D02*
X1079500Y114300D01*
X1104900Y114300D02*
X1104900Y152400D01*
X368300Y292100D02*
X368300Y317500D01*
X342900Y317500D02*
X342900Y292100D01*
X910460Y80140D02*
X912110Y81790D01*
X863600Y114300D02*
X850900Y114300D01*
X897760Y80140D02*
X910460Y80140D01*
X897760Y80140D02*
X863600Y114300D01*
X1150110Y81790D02*
X1191510Y81790D01*
X1130300Y101600D02*
X1130300Y114300D01*
X1130300Y101600D02*
X1150110Y81790D01*
X353500Y65600D02*
X351400Y63500D01*
X353500Y40200D02*
X355600Y38100D01*
X353500Y40200D02*
X353500Y65600D01*
X355600Y67700D01*
X351400Y63500D02*
X342900Y63500D01*
D20*
X342900Y63500D03*
D21*
X381000Y63500D02*
X381000Y38100D01*
X381000Y63500D02*
X383100Y65600D01*
D20*
X393700Y63500D03*
D21*
X385200Y63500D01*
X383100Y65600D01*
X381000Y67700D01*
X406400Y63500D02*
X410600Y67700D01*
X419100Y67700D01*
D20*
X406400Y63500D03*
D21*
X1206500Y156600D02*
X1231900Y182000D01*
X1206500Y156600D02*
X1206500Y152400D01*
X952500Y152400D02*
X927100Y152400D01*
X952500Y152400D02*
X952500Y182000D01*
X1054100Y228600D02*
X1054100Y266700D01*
M02*
