M48
;GenerationSoftware,Autodesk,EAGLE,9.5.0*%
;CreationDate,2019-10-09T17:35:37Z*%
FMAT,2
ICI,OFF
METRIC,TZ,000.000
T7C0.350
T6C0.800
T5C0.813
T4C0.914
T3C1.016
T2C1.778
%
G90
M71
T2
X21590Y13970
X21590Y29210
X62230Y29210
X62230Y13970
T3
X44450Y76200
X46990Y31750
X44450Y31750
X41910Y31750
X39370Y31750
X46990Y35560
X44450Y35560
X41910Y35560
X39370Y35560
X44450Y71120
X41910Y71120
X39370Y71120
X36830Y71120
X34290Y71120
X53340Y3810
X41910Y76200
X39370Y76200
X36830Y76200
X34290Y76200
X16510Y72390
X13970Y72390
X11430Y72390
X8890Y72390
X6350Y72390
X8890Y55880
X50800Y3810
X48260Y3810
X45720Y3810
X40640Y3810
X38100Y3810
X35560Y3810
X33020Y3810
X26670Y69850
X44450Y55880
X57150Y10160
X53340Y6350
X36830Y50800
X16510Y55880
X34290Y31750
X6350Y55880
X11430Y55880
X13970Y55880
X34290Y55880
X36830Y55880
X39370Y55880
X41910Y55880
X36830Y31750
T4
X6350Y11430
X13970Y8890
X13970Y11430
X11430Y8890
X11430Y11430
X8890Y8890
X8890Y11430
X3810Y11430
X3810Y8890
X6350Y8890
T5
X44450Y59690
X34290Y67310
X36830Y67310
X39370Y67310
X41910Y67310
X44450Y67310
X46990Y67310
X52070Y67310
X49530Y67310
X6350Y59690
X8890Y59690
X21590Y59690
X24130Y59690
X11430Y59690
X13970Y59690
X19050Y59690
X16510Y59690
X24130Y67310
X21590Y67310
X19050Y67310
X16510Y67310
X11430Y67310
X13970Y67310
X46990Y59690
X41910Y59690
X39370Y59690
X52070Y59690
X49530Y59690
X36830Y59690
X34290Y59690
X6350Y67310
X8890Y67310
T6
X59690Y13970
X57150Y13970
X54610Y13970
X52070Y13970
X49530Y13970
X46990Y13970
X44450Y13970
X41910Y13970
X39370Y13970
X36830Y29210
X36830Y13970
X34290Y13970
X31750Y13970
X29210Y13970
X26670Y13970
X24130Y13970
X57150Y29210
X24130Y29210
X26670Y29210
X29210Y29210
X31750Y29210
X34290Y29210
X39370Y29210
X41910Y29210
X44450Y29210
X46990Y29210
X49530Y29210
X52070Y29210
X54610Y29210
X59690Y29210
T7
X33020Y6350
X40640Y6350
X39370Y6350
X34290Y6350
X19050Y15240
X19050Y16510
X13970Y19050
X19050Y21590
M30