G04 EAGLE Gerber RS-274X export*
G75*
%MOMM*%
%FSLAX34Y34*%
%LPD*%
%INBottom Copper*%
%IPPOS*%
%AMOC8*
5,1,8,0,0,1.08239X$1,22.5*%
G01*
%ADD10R,1.206400X1.206400*%
%ADD11C,1.206400*%
%ADD12C,1.219200*%
%ADD13C,1.524000*%
%ADD14C,1.371600*%
%ADD15P,1.484606X8X22.500000*%
%ADD16P,1.649562X8X22.500000*%
%ADD17C,0.635000*%
%ADD18C,0.787400*%

G36*
X1066820Y265942D02*
X1066820Y265942D01*
X1066839Y265940D01*
X1066941Y265962D01*
X1067043Y265979D01*
X1067060Y265988D01*
X1067080Y265992D01*
X1067169Y266045D01*
X1067260Y266094D01*
X1067274Y266108D01*
X1067291Y266118D01*
X1067358Y266197D01*
X1067430Y266272D01*
X1067438Y266290D01*
X1067451Y266305D01*
X1067490Y266401D01*
X1067533Y266495D01*
X1067535Y266515D01*
X1067543Y266533D01*
X1067561Y266700D01*
X1067561Y279400D01*
X1067547Y279490D01*
X1067539Y279581D01*
X1067527Y279611D01*
X1067522Y279643D01*
X1067479Y279723D01*
X1067443Y279807D01*
X1067417Y279839D01*
X1067406Y279860D01*
X1067383Y279882D01*
X1067338Y279938D01*
X1054638Y292638D01*
X1054564Y292691D01*
X1054495Y292751D01*
X1054465Y292763D01*
X1054439Y292782D01*
X1054352Y292809D01*
X1054267Y292843D01*
X1054226Y292847D01*
X1054203Y292854D01*
X1054171Y292853D01*
X1054100Y292861D01*
X1029015Y292861D01*
X1016761Y305115D01*
X1016761Y329885D01*
X1029015Y342139D01*
X1079185Y342139D01*
X1093825Y327498D01*
X1093887Y327454D01*
X1093942Y327403D01*
X1093986Y327383D01*
X1094025Y327355D01*
X1094097Y327332D01*
X1094166Y327301D01*
X1094214Y327296D01*
X1094260Y327282D01*
X1094336Y327284D01*
X1094411Y327277D01*
X1094458Y327287D01*
X1094506Y327289D01*
X1094577Y327315D01*
X1094651Y327331D01*
X1094692Y327356D01*
X1094737Y327373D01*
X1094796Y327420D01*
X1094861Y327460D01*
X1094891Y327497D01*
X1094929Y327527D01*
X1094970Y327590D01*
X1095018Y327648D01*
X1095045Y327707D01*
X1095062Y327734D01*
X1095068Y327759D01*
X1095088Y327801D01*
X1095484Y329020D01*
X1096210Y330445D01*
X1097150Y331739D01*
X1098281Y332870D01*
X1099575Y333810D01*
X1101000Y334536D01*
X1102521Y335031D01*
X1103377Y335166D01*
X1103377Y318262D01*
X1103380Y318242D01*
X1103378Y318223D01*
X1103400Y318121D01*
X1103417Y318019D01*
X1103426Y318002D01*
X1103430Y317982D01*
X1103483Y317893D01*
X1103532Y317802D01*
X1103546Y317788D01*
X1103556Y317771D01*
X1103635Y317704D01*
X1103710Y317633D01*
X1103728Y317624D01*
X1103743Y317611D01*
X1103839Y317573D01*
X1103933Y317529D01*
X1103953Y317527D01*
X1103971Y317519D01*
X1104138Y317501D01*
X1105662Y317501D01*
X1105682Y317504D01*
X1105701Y317502D01*
X1105803Y317524D01*
X1105905Y317541D01*
X1105922Y317550D01*
X1105942Y317554D01*
X1106031Y317607D01*
X1106122Y317656D01*
X1106136Y317670D01*
X1106153Y317680D01*
X1106220Y317759D01*
X1106291Y317834D01*
X1106300Y317852D01*
X1106313Y317867D01*
X1106352Y317963D01*
X1106395Y318057D01*
X1106397Y318077D01*
X1106405Y318095D01*
X1106423Y318262D01*
X1106423Y335166D01*
X1107279Y335031D01*
X1108800Y334536D01*
X1110225Y333810D01*
X1111519Y332870D01*
X1112650Y331739D01*
X1113590Y330445D01*
X1114316Y329020D01*
X1114712Y327801D01*
X1114747Y327734D01*
X1114773Y327663D01*
X1114803Y327625D01*
X1114825Y327583D01*
X1114879Y327530D01*
X1114927Y327471D01*
X1114967Y327445D01*
X1115002Y327411D01*
X1115070Y327379D01*
X1115134Y327338D01*
X1115180Y327326D01*
X1115224Y327305D01*
X1115299Y327296D01*
X1115372Y327278D01*
X1115420Y327282D01*
X1115468Y327276D01*
X1115542Y327291D01*
X1115617Y327297D01*
X1115662Y327316D01*
X1115709Y327326D01*
X1115774Y327364D01*
X1115844Y327393D01*
X1115894Y327434D01*
X1115921Y327450D01*
X1115938Y327469D01*
X1115975Y327498D01*
X1118138Y329662D01*
X1118150Y329678D01*
X1118165Y329690D01*
X1118222Y329778D01*
X1118282Y329861D01*
X1118288Y329880D01*
X1118298Y329897D01*
X1118324Y329998D01*
X1118354Y330097D01*
X1118354Y330116D01*
X1118359Y330136D01*
X1118351Y330239D01*
X1118348Y330342D01*
X1118341Y330361D01*
X1118339Y330381D01*
X1118299Y330476D01*
X1118263Y330573D01*
X1118251Y330589D01*
X1118243Y330607D01*
X1118138Y330738D01*
X1092738Y356138D01*
X1092664Y356191D01*
X1092595Y356251D01*
X1092565Y356263D01*
X1092539Y356282D01*
X1092452Y356309D01*
X1092367Y356343D01*
X1092326Y356347D01*
X1092303Y356354D01*
X1092271Y356353D01*
X1092200Y356361D01*
X1028700Y356361D01*
X1028610Y356347D01*
X1028519Y356339D01*
X1028489Y356327D01*
X1028457Y356322D01*
X1028377Y356279D01*
X1028293Y356243D01*
X1028261Y356217D01*
X1028240Y356206D01*
X1028218Y356183D01*
X1028162Y356138D01*
X1002762Y330738D01*
X1002709Y330664D01*
X1002649Y330595D01*
X1002637Y330565D01*
X1002618Y330539D01*
X1002591Y330452D01*
X1002557Y330367D01*
X1002553Y330326D01*
X1002546Y330303D01*
X1002547Y330271D01*
X1002539Y330200D01*
X1002539Y304800D01*
X1002554Y304710D01*
X1002561Y304619D01*
X1002573Y304589D01*
X1002579Y304557D01*
X1002621Y304477D01*
X1002657Y304393D01*
X1002683Y304361D01*
X1002694Y304340D01*
X1002717Y304318D01*
X1002762Y304262D01*
X1023395Y283629D01*
X1023489Y283561D01*
X1023583Y283491D01*
X1023589Y283489D01*
X1023594Y283485D01*
X1023705Y283451D01*
X1023817Y283415D01*
X1023823Y283415D01*
X1023829Y283413D01*
X1023946Y283416D01*
X1024063Y283417D01*
X1024070Y283419D01*
X1024075Y283419D01*
X1024093Y283426D01*
X1024224Y283464D01*
X1026679Y284481D01*
X1030721Y284481D01*
X1034456Y282934D01*
X1037314Y280076D01*
X1037714Y279109D01*
X1037776Y279009D01*
X1037836Y278909D01*
X1037841Y278905D01*
X1037844Y278900D01*
X1037935Y278825D01*
X1038023Y278749D01*
X1038029Y278747D01*
X1038033Y278743D01*
X1038142Y278701D01*
X1038251Y278657D01*
X1038258Y278656D01*
X1038263Y278655D01*
X1038281Y278654D01*
X1038418Y278639D01*
X1041085Y278639D01*
X1043025Y276698D01*
X1043087Y276654D01*
X1043142Y276603D01*
X1043186Y276583D01*
X1043225Y276555D01*
X1043297Y276532D01*
X1043366Y276501D01*
X1043414Y276496D01*
X1043460Y276482D01*
X1043536Y276484D01*
X1043611Y276477D01*
X1043658Y276487D01*
X1043706Y276489D01*
X1043777Y276515D01*
X1043851Y276531D01*
X1043892Y276556D01*
X1043937Y276573D01*
X1043996Y276620D01*
X1044061Y276660D01*
X1044091Y276697D01*
X1044129Y276727D01*
X1044170Y276790D01*
X1044218Y276848D01*
X1044245Y276907D01*
X1044262Y276934D01*
X1044268Y276959D01*
X1044288Y277001D01*
X1044684Y278220D01*
X1045410Y279645D01*
X1046350Y280939D01*
X1047481Y282070D01*
X1048775Y283010D01*
X1050200Y283736D01*
X1051721Y284231D01*
X1052577Y284366D01*
X1052577Y267462D01*
X1052580Y267442D01*
X1052578Y267423D01*
X1052600Y267321D01*
X1052617Y267219D01*
X1052626Y267202D01*
X1052630Y267182D01*
X1052683Y267093D01*
X1052732Y267002D01*
X1052746Y266988D01*
X1052756Y266971D01*
X1052835Y266904D01*
X1052910Y266833D01*
X1052928Y266824D01*
X1052943Y266811D01*
X1053039Y266773D01*
X1053133Y266729D01*
X1053153Y266727D01*
X1053171Y266719D01*
X1053338Y266701D01*
X1054101Y266701D01*
X1054101Y266700D01*
X1054104Y266680D01*
X1054102Y266661D01*
X1054124Y266559D01*
X1054141Y266457D01*
X1054150Y266440D01*
X1054154Y266420D01*
X1054207Y266331D01*
X1054256Y266240D01*
X1054270Y266226D01*
X1054280Y266209D01*
X1054359Y266142D01*
X1054434Y266071D01*
X1054452Y266062D01*
X1054467Y266049D01*
X1054563Y266010D01*
X1054657Y265967D01*
X1054677Y265965D01*
X1054695Y265957D01*
X1054862Y265939D01*
X1066800Y265939D01*
X1066820Y265942D01*
G37*
G36*
X532658Y62742D02*
X532658Y62742D01*
X532677Y62740D01*
X532779Y62762D01*
X532881Y62779D01*
X532898Y62788D01*
X532918Y62792D01*
X533007Y62845D01*
X533098Y62894D01*
X533112Y62908D01*
X533129Y62918D01*
X533196Y62997D01*
X533267Y63072D01*
X533276Y63090D01*
X533289Y63105D01*
X533327Y63201D01*
X533371Y63295D01*
X533373Y63315D01*
X533381Y63333D01*
X533399Y63500D01*
X533399Y63501D01*
X534162Y63501D01*
X534182Y63504D01*
X534201Y63502D01*
X534303Y63524D01*
X534405Y63541D01*
X534422Y63550D01*
X534442Y63554D01*
X534531Y63607D01*
X534622Y63656D01*
X534636Y63670D01*
X534653Y63680D01*
X534720Y63759D01*
X534791Y63834D01*
X534800Y63852D01*
X534813Y63867D01*
X534852Y63963D01*
X534895Y64057D01*
X534897Y64077D01*
X534905Y64095D01*
X534923Y64262D01*
X534923Y73661D01*
X537609Y73661D01*
X540585Y70685D01*
X540601Y70673D01*
X540613Y70658D01*
X540701Y70601D01*
X540784Y70541D01*
X540803Y70535D01*
X540820Y70525D01*
X540921Y70499D01*
X541020Y70469D01*
X541039Y70469D01*
X541059Y70464D01*
X541162Y70472D01*
X541265Y70475D01*
X541284Y70482D01*
X541304Y70484D01*
X541399Y70524D01*
X541496Y70560D01*
X541512Y70572D01*
X541530Y70580D01*
X541661Y70685D01*
X546638Y75662D01*
X546691Y75736D01*
X546751Y75805D01*
X546763Y75835D01*
X546782Y75861D01*
X546809Y75948D01*
X546843Y76033D01*
X546847Y76074D01*
X546854Y76097D01*
X546853Y76129D01*
X546861Y76200D01*
X546861Y88900D01*
X546847Y88990D01*
X546839Y89081D01*
X546827Y89111D01*
X546822Y89143D01*
X546779Y89223D01*
X546743Y89307D01*
X546717Y89339D01*
X546706Y89360D01*
X546683Y89382D01*
X546638Y89438D01*
X534161Y101915D01*
X534161Y139700D01*
X534158Y139720D01*
X534160Y139739D01*
X534138Y139841D01*
X534122Y139943D01*
X534112Y139960D01*
X534108Y139980D01*
X534055Y140069D01*
X534006Y140160D01*
X533992Y140174D01*
X533982Y140191D01*
X533903Y140258D01*
X533828Y140330D01*
X533810Y140338D01*
X533795Y140351D01*
X533699Y140390D01*
X533605Y140433D01*
X533585Y140435D01*
X533567Y140443D01*
X533400Y140461D01*
X521462Y140461D01*
X521442Y140458D01*
X521423Y140460D01*
X521321Y140438D01*
X521219Y140422D01*
X521202Y140412D01*
X521182Y140408D01*
X521093Y140355D01*
X521002Y140306D01*
X520988Y140292D01*
X520971Y140282D01*
X520904Y140203D01*
X520833Y140128D01*
X520824Y140110D01*
X520811Y140095D01*
X520773Y139999D01*
X520729Y139905D01*
X520727Y139885D01*
X520719Y139867D01*
X520701Y139700D01*
X520701Y139699D01*
X519938Y139699D01*
X519918Y139696D01*
X519899Y139698D01*
X519797Y139676D01*
X519695Y139659D01*
X519678Y139650D01*
X519658Y139646D01*
X519569Y139593D01*
X519478Y139544D01*
X519464Y139530D01*
X519447Y139520D01*
X519380Y139441D01*
X519309Y139366D01*
X519300Y139348D01*
X519287Y139333D01*
X519248Y139237D01*
X519205Y139143D01*
X519203Y139123D01*
X519195Y139105D01*
X519177Y138938D01*
X519177Y131262D01*
X518199Y131457D01*
X516639Y132103D01*
X515235Y133041D01*
X514638Y133638D01*
X514622Y133650D01*
X514610Y133665D01*
X514522Y133721D01*
X514438Y133782D01*
X514419Y133788D01*
X514403Y133798D01*
X514302Y133824D01*
X514203Y133854D01*
X514183Y133854D01*
X514164Y133858D01*
X514061Y133850D01*
X513957Y133848D01*
X513939Y133841D01*
X513919Y133839D01*
X513824Y133799D01*
X513726Y133763D01*
X513711Y133751D01*
X513693Y133743D01*
X513562Y133638D01*
X507462Y127538D01*
X507409Y127464D01*
X507349Y127395D01*
X507337Y127365D01*
X507318Y127339D01*
X507291Y127252D01*
X507257Y127167D01*
X507253Y127126D01*
X507246Y127103D01*
X507247Y127071D01*
X507239Y127000D01*
X507239Y76200D01*
X507254Y76110D01*
X507261Y76019D01*
X507273Y75989D01*
X507279Y75957D01*
X507321Y75877D01*
X507357Y75793D01*
X507383Y75761D01*
X507394Y75740D01*
X507417Y75718D01*
X507462Y75662D01*
X520162Y62962D01*
X520236Y62909D01*
X520305Y62849D01*
X520335Y62837D01*
X520361Y62818D01*
X520448Y62791D01*
X520533Y62757D01*
X520574Y62753D01*
X520597Y62746D01*
X520629Y62747D01*
X520700Y62739D01*
X532638Y62739D01*
X532658Y62742D01*
G37*
%LPC*%
G36*
X1055623Y268223D02*
X1055623Y268223D01*
X1055623Y284366D01*
X1056479Y284231D01*
X1058000Y283736D01*
X1059425Y283010D01*
X1060719Y282070D01*
X1061850Y280939D01*
X1062790Y279645D01*
X1063516Y278220D01*
X1064011Y276699D01*
X1064261Y275120D01*
X1064261Y268223D01*
X1055623Y268223D01*
G37*
%LPD*%
%LPC*%
G36*
X523239Y65023D02*
X523239Y65023D01*
X523239Y67709D01*
X529191Y73661D01*
X531877Y73661D01*
X531877Y65023D01*
X523239Y65023D01*
G37*
%LPD*%
%LPC*%
G36*
X522223Y138177D02*
X522223Y138177D01*
X529138Y138177D01*
X528943Y137199D01*
X528297Y135639D01*
X527359Y134235D01*
X526165Y133041D01*
X524761Y132103D01*
X523201Y131457D01*
X522223Y131262D01*
X522223Y138177D01*
G37*
%LPD*%
D10*
X241300Y139700D03*
D11*
X266700Y139700D03*
X292100Y139700D03*
X317500Y139700D03*
X342900Y139700D03*
X368300Y139700D03*
X393700Y139700D03*
X419100Y139700D03*
X444500Y139700D03*
X469900Y139700D03*
X495300Y139700D03*
X520700Y139700D03*
X546100Y139700D03*
X571500Y139700D03*
X596900Y139700D03*
X596900Y292100D03*
X571500Y292100D03*
X546100Y292100D03*
X520700Y292100D03*
X495300Y292100D03*
X469900Y292100D03*
X444500Y292100D03*
X419100Y292100D03*
X393700Y292100D03*
X368300Y292100D03*
X342900Y292100D03*
X317500Y292100D03*
X292100Y292100D03*
X266700Y292100D03*
X241300Y292100D03*
D12*
X749300Y158496D02*
X749300Y146304D01*
X774700Y146304D02*
X774700Y158496D01*
X901700Y158496D02*
X901700Y146304D01*
X927100Y146304D02*
X927100Y158496D01*
X800100Y158496D02*
X800100Y146304D01*
X825500Y146304D02*
X825500Y158496D01*
X876300Y158496D02*
X876300Y146304D01*
X850900Y146304D02*
X850900Y158496D01*
X927100Y222504D02*
X927100Y234696D01*
X901700Y234696D02*
X901700Y222504D01*
X876300Y222504D02*
X876300Y234696D01*
X850900Y234696D02*
X850900Y222504D01*
X825500Y222504D02*
X825500Y234696D01*
X800100Y234696D02*
X800100Y222504D01*
X774700Y222504D02*
X774700Y234696D01*
X749300Y234696D02*
X749300Y222504D01*
X1028700Y158496D02*
X1028700Y146304D01*
X1054100Y146304D02*
X1054100Y158496D01*
X1181100Y158496D02*
X1181100Y146304D01*
X1206500Y146304D02*
X1206500Y158496D01*
X1079500Y158496D02*
X1079500Y146304D01*
X1104900Y146304D02*
X1104900Y158496D01*
X1155700Y158496D02*
X1155700Y146304D01*
X1130300Y146304D02*
X1130300Y158496D01*
X1206500Y222504D02*
X1206500Y234696D01*
X1181100Y234696D02*
X1181100Y222504D01*
X1155700Y222504D02*
X1155700Y234696D01*
X1130300Y234696D02*
X1130300Y222504D01*
X1104900Y222504D02*
X1104900Y234696D01*
X1079500Y234696D02*
X1079500Y222504D01*
X1054100Y222504D02*
X1054100Y234696D01*
X1028700Y234696D02*
X1028700Y222504D01*
D13*
X749300Y271780D02*
X749300Y287020D01*
X774700Y287020D02*
X774700Y271780D01*
X800100Y271780D02*
X800100Y287020D01*
X825500Y287020D02*
X825500Y271780D01*
X850900Y271780D02*
X850900Y287020D01*
X1028700Y309880D02*
X1028700Y325120D01*
X1054100Y325120D02*
X1054100Y309880D01*
X1079500Y309880D02*
X1079500Y325120D01*
X1104900Y325120D02*
X1104900Y309880D01*
X1130300Y309880D02*
X1130300Y325120D01*
X1028700Y274320D02*
X1028700Y259080D01*
X1054100Y259080D02*
X1054100Y274320D01*
X1079500Y274320D02*
X1079500Y259080D01*
X1104900Y259080D02*
X1104900Y274320D01*
X1130300Y274320D02*
X1130300Y259080D01*
D14*
X38100Y114300D03*
D15*
X38100Y88900D03*
X63500Y114300D03*
X63500Y88900D03*
X88900Y114300D03*
X88900Y88900D03*
X114300Y114300D03*
X114300Y88900D03*
X139700Y114300D03*
X139700Y88900D03*
D13*
X393700Y347980D02*
X393700Y363220D01*
X419100Y363220D02*
X419100Y347980D01*
X444500Y347980D02*
X444500Y363220D01*
X469900Y363220D02*
X469900Y347980D01*
X393700Y325120D02*
X393700Y309880D01*
X419100Y309880D02*
X419100Y325120D01*
X444500Y325120D02*
X444500Y309880D01*
X469900Y309880D02*
X469900Y325120D01*
X749300Y121920D02*
X749300Y106680D01*
X774700Y106680D02*
X774700Y121920D01*
X800100Y121920D02*
X800100Y106680D01*
X825500Y106680D02*
X825500Y121920D01*
X1028700Y121920D02*
X1028700Y106680D01*
X1054100Y106680D02*
X1054100Y121920D01*
X1079500Y121920D02*
X1079500Y106680D01*
X1104900Y106680D02*
X1104900Y121920D01*
D16*
X368300Y317500D03*
X342900Y317500D03*
X850900Y114300D03*
X1054100Y63500D03*
X533400Y63500D03*
X571500Y101600D03*
X1130300Y114300D03*
X952500Y254000D03*
D13*
X330200Y45720D02*
X330200Y30480D01*
X355600Y30480D02*
X355600Y45720D01*
X381000Y45720D02*
X381000Y30480D01*
X406400Y30480D02*
X406400Y45720D01*
X457200Y45720D02*
X457200Y30480D01*
X482600Y30480D02*
X482600Y45720D01*
X508000Y45720D02*
X508000Y30480D01*
X533400Y30480D02*
X533400Y45720D01*
D17*
X330200Y38100D02*
X330200Y63500D01*
D18*
X330200Y63500D03*
D17*
X330200Y127000D01*
X317500Y139700D01*
X1079500Y266700D02*
X1079500Y317500D01*
D18*
X190500Y215900D03*
D17*
X165100Y190500D01*
X139700Y190500D01*
D18*
X139700Y190500D03*
X190500Y165100D03*
D17*
X165100Y139700D01*
X114300Y139700D02*
X88900Y114300D01*
X114300Y139700D02*
X165100Y139700D01*
X88900Y88900D02*
X114300Y63500D01*
X152400Y63500D01*
X190500Y101600D01*
X190500Y139700D01*
D18*
X190500Y139700D03*
D17*
X63500Y152400D02*
X63500Y114300D01*
X63500Y152400D02*
X88900Y177800D01*
X228600Y177800D02*
X266700Y139700D01*
X228600Y177800D02*
X88900Y177800D01*
D18*
X342900Y63500D03*
D17*
X342900Y139700D01*
D18*
X393700Y63500D03*
D17*
X393700Y114300D01*
X368300Y139700D01*
D18*
X406400Y63500D03*
D17*
X406400Y127000D01*
X393700Y139700D01*
X406400Y63500D02*
X406400Y38100D01*
X508000Y38100D02*
X533400Y38100D01*
X508000Y38100D02*
X482600Y38100D01*
X457200Y38100D01*
X533400Y38100D02*
X533400Y63500D01*
M02*
