G04 EAGLE Gerber RS-274X export*
G75*
%MOMM*%
%FSLAX34Y34*%
%LPD*%
%IN*%
%IPPOS*%
%AMOC8*
5,1,8,0,0,1.08239X$1,22.5*%
G01*
%ADD10C,0.254000*%


D10*
X-38100Y-50800D02*
X1333300Y-50800D01*
X1333300Y415800D01*
X-38100Y415800D01*
X-38100Y-50800D01*
X224790Y139312D02*
X224722Y138539D01*
X224588Y137774D01*
X224387Y137024D01*
X224121Y136295D01*
X223793Y135591D01*
X223405Y134919D01*
X222960Y134283D01*
X222461Y133688D01*
X221912Y133139D01*
X221317Y132640D01*
X220681Y132195D01*
X220009Y131807D01*
X219305Y131479D01*
X218576Y131213D01*
X217826Y131012D01*
X217061Y130878D01*
X216288Y130810D01*
X215512Y130810D01*
X214739Y130878D01*
X213974Y131012D01*
X213224Y131213D01*
X212495Y131479D01*
X211791Y131807D01*
X211119Y132195D01*
X210483Y132640D01*
X209888Y133139D01*
X209339Y133688D01*
X208840Y134283D01*
X208395Y134919D01*
X208007Y135591D01*
X207679Y136295D01*
X207413Y137024D01*
X207212Y137774D01*
X207078Y138539D01*
X207010Y139312D01*
X207010Y140088D01*
X207078Y140861D01*
X207212Y141626D01*
X207413Y142376D01*
X207679Y143105D01*
X208007Y143809D01*
X208395Y144481D01*
X208840Y145117D01*
X209339Y145712D01*
X209888Y146261D01*
X210483Y146760D01*
X211119Y147205D01*
X211791Y147593D01*
X212495Y147921D01*
X213224Y148187D01*
X213974Y148388D01*
X214739Y148522D01*
X215512Y148590D01*
X216288Y148590D01*
X217061Y148522D01*
X217826Y148388D01*
X218576Y148187D01*
X219305Y147921D01*
X220009Y147593D01*
X220681Y147205D01*
X221317Y146760D01*
X221912Y146261D01*
X222461Y145712D01*
X222960Y145117D01*
X223405Y144481D01*
X223793Y143809D01*
X224121Y143105D01*
X224387Y142376D01*
X224588Y141626D01*
X224722Y140861D01*
X224790Y140088D01*
X224790Y139312D01*
X224790Y291712D02*
X224722Y290939D01*
X224588Y290174D01*
X224387Y289424D01*
X224121Y288695D01*
X223793Y287991D01*
X223405Y287319D01*
X222960Y286683D01*
X222461Y286088D01*
X221912Y285539D01*
X221317Y285040D01*
X220681Y284595D01*
X220009Y284207D01*
X219305Y283879D01*
X218576Y283613D01*
X217826Y283412D01*
X217061Y283278D01*
X216288Y283210D01*
X215512Y283210D01*
X214739Y283278D01*
X213974Y283412D01*
X213224Y283613D01*
X212495Y283879D01*
X211791Y284207D01*
X211119Y284595D01*
X210483Y285040D01*
X209888Y285539D01*
X209339Y286088D01*
X208840Y286683D01*
X208395Y287319D01*
X208007Y287991D01*
X207679Y288695D01*
X207413Y289424D01*
X207212Y290174D01*
X207078Y290939D01*
X207010Y291712D01*
X207010Y292488D01*
X207078Y293261D01*
X207212Y294026D01*
X207413Y294776D01*
X207679Y295505D01*
X208007Y296209D01*
X208395Y296881D01*
X208840Y297517D01*
X209339Y298112D01*
X209888Y298661D01*
X210483Y299160D01*
X211119Y299605D01*
X211791Y299993D01*
X212495Y300321D01*
X213224Y300587D01*
X213974Y300788D01*
X214739Y300922D01*
X215512Y300990D01*
X216288Y300990D01*
X217061Y300922D01*
X217826Y300788D01*
X218576Y300587D01*
X219305Y300321D01*
X220009Y299993D01*
X220681Y299605D01*
X221317Y299160D01*
X221912Y298661D01*
X222461Y298112D01*
X222960Y297517D01*
X223405Y296881D01*
X223793Y296209D01*
X224121Y295505D01*
X224387Y294776D01*
X224588Y294026D01*
X224722Y293261D01*
X224790Y292488D01*
X224790Y291712D01*
X631190Y291712D02*
X631122Y290939D01*
X630988Y290174D01*
X630787Y289424D01*
X630521Y288695D01*
X630193Y287991D01*
X629805Y287319D01*
X629360Y286683D01*
X628861Y286088D01*
X628312Y285539D01*
X627717Y285040D01*
X627081Y284595D01*
X626409Y284207D01*
X625705Y283879D01*
X624976Y283613D01*
X624226Y283412D01*
X623461Y283278D01*
X622688Y283210D01*
X621912Y283210D01*
X621139Y283278D01*
X620374Y283412D01*
X619624Y283613D01*
X618895Y283879D01*
X618191Y284207D01*
X617519Y284595D01*
X616883Y285040D01*
X616288Y285539D01*
X615739Y286088D01*
X615240Y286683D01*
X614795Y287319D01*
X614407Y287991D01*
X614079Y288695D01*
X613813Y289424D01*
X613612Y290174D01*
X613478Y290939D01*
X613410Y291712D01*
X613410Y292488D01*
X613478Y293261D01*
X613612Y294026D01*
X613813Y294776D01*
X614079Y295505D01*
X614407Y296209D01*
X614795Y296881D01*
X615240Y297517D01*
X615739Y298112D01*
X616288Y298661D01*
X616883Y299160D01*
X617519Y299605D01*
X618191Y299993D01*
X618895Y300321D01*
X619624Y300587D01*
X620374Y300788D01*
X621139Y300922D01*
X621912Y300990D01*
X622688Y300990D01*
X623461Y300922D01*
X624226Y300788D01*
X624976Y300587D01*
X625705Y300321D01*
X626409Y299993D01*
X627081Y299605D01*
X627717Y299160D01*
X628312Y298661D01*
X628861Y298112D01*
X629360Y297517D01*
X629805Y296881D01*
X630193Y296209D01*
X630521Y295505D01*
X630787Y294776D01*
X630988Y294026D01*
X631122Y293261D01*
X631190Y292488D01*
X631190Y291712D01*
X631190Y139312D02*
X631122Y138539D01*
X630988Y137774D01*
X630787Y137024D01*
X630521Y136295D01*
X630193Y135591D01*
X629805Y134919D01*
X629360Y134283D01*
X628861Y133688D01*
X628312Y133139D01*
X627717Y132640D01*
X627081Y132195D01*
X626409Y131807D01*
X625705Y131479D01*
X624976Y131213D01*
X624226Y131012D01*
X623461Y130878D01*
X622688Y130810D01*
X621912Y130810D01*
X621139Y130878D01*
X620374Y131012D01*
X619624Y131213D01*
X618895Y131479D01*
X618191Y131807D01*
X617519Y132195D01*
X616883Y132640D01*
X616288Y133139D01*
X615739Y133688D01*
X615240Y134283D01*
X614795Y134919D01*
X614407Y135591D01*
X614079Y136295D01*
X613813Y137024D01*
X613612Y137774D01*
X613478Y138539D01*
X613410Y139312D01*
X613410Y140088D01*
X613478Y140861D01*
X613612Y141626D01*
X613813Y142376D01*
X614079Y143105D01*
X614407Y143809D01*
X614795Y144481D01*
X615240Y145117D01*
X615739Y145712D01*
X616288Y146261D01*
X616883Y146760D01*
X617519Y147205D01*
X618191Y147593D01*
X618895Y147921D01*
X619624Y148187D01*
X620374Y148388D01*
X621139Y148522D01*
X621912Y148590D01*
X622688Y148590D01*
X623461Y148522D01*
X624226Y148388D01*
X624976Y148187D01*
X625705Y147921D01*
X626409Y147593D01*
X627081Y147205D01*
X627717Y146760D01*
X628312Y146261D01*
X628861Y145712D01*
X629360Y145117D01*
X629805Y144481D01*
X630193Y143809D01*
X630521Y143105D01*
X630787Y142376D01*
X630988Y141626D01*
X631122Y140861D01*
X631190Y140088D01*
X631190Y139312D01*
M02*
